font.ufo
<glyph name="exclam" format="1">
  <advance width="369"/>
  <unicode hex="0021"/>
  <outline>
    <contour>
      <point x="271" y="486" type="line"/>
      <point x="409" y="864" type="line"/>
      <point x="369" y="909"/>
      <point x="284" y="926"/>
      <point x="215" y="904" type="curve"/>
      <point x="155" y="470" type="line"/>
      <point x="114" y="252" type="line"/>
      <point x="155" y="220"/>
      <point x="186" y="223"/>
      <point x="205" y="249" type="curve"/>
    </contour>
    <contour>
      <point x="222" y="69" type="curve"/>
      <point x="216" y="116"/>
      <point x="176" y="168"/>
      <point x="142" y="168" type="curve"/>
      <point x="93" y="162"/>
      <point x="46" y="108"/>
      <point x="35" y="57" type="curve"/>
      <point x="38" y="21"/>
      <point x="64" y="-5"/>
      <point x="96" y="-5" type="curve"/>
      <point x="138" y="-5"/>
      <point x="188" y="26"/>
    </contour>
  </outline>
</glyph>
<glyph name="question" format="1">
  <advance width="636"/>
  <unicode hex="003F"/>
  <outline>
    <contour>
      <point x="288" y="389" type="line"/>
      <point x="475" y="438"/>
      <point x="620" y="524"/>
      <point x="626" y="658" type="curve" smooth="yes"/>
      <point x="630" y="776"/>
      <point x="525" y="896"/>
      <point x="409" y="896" type="curve" smooth="yes"/>
      <point x="311" y="896"/>
      <point x="180" y="848"/>
      <point x="68" y="767" type="curve"/>
      <point x="71" y="675"/>
      <point x="121" y="592"/>
      <point x="159" y="592" type="curve" smooth="yes"/>
      <point x="170" y="592"/>
      <point x="183" y="597"/>
      <point x="198" y="604" type="curve"/>
      <point x="183" y="673" type="line"/>
      <point x="261" y="725"/>
      <point x="381" y="772"/>
      <point x="488" y="777" type="curve"/>
      <point x="511" y="758"/>
      <point x="522" y="729"/>
      <point x="521" y="695" type="curve" smooth="yes"/>
      <point x="517" y="614"/>
      <point x="376" y="528"/>
      <point x="222" y="498" type="curve"/>
      <point x="195" y="480"/>
      <point x="172" y="445"/>
      <point x="166" y="409" type="curve"/>
      <point x="238" y="226" type="line" smooth="yes"/>
      <point x="247" y="205"/>
      <point x="275" y="201"/>
      <point x="305" y="212" type="curve"/>
    </contour>
    <contour>
      <point x="258" y="-5" type="curve" smooth="yes"/>
      <point x="300" y="-5"/>
      <point x="350" y="26"/>
      <point x="384" y="69" type="curve"/>
      <point x="379" y="116"/>
      <point x="338" y="168"/>
      <point x="304" y="168" type="curve"/>
      <point x="256" y="162"/>
      <point x="208" y="108"/>
      <point x="197" y="57" type="curve"/>
      <point x="200" y="21"/>
      <point x="226" y="-5"/>
    </contour>
  </outline>
</glyph>
<glyph name="U" format="1">
  <advance width="643"/>
  <unicode hex="0055"/>
  <outline>
    <contour>
      <point x="398" y="777" type="move" name="top"/>
    </contour>
    <contour>
      <point x="319" y="0" type="move" name="ogonek"/>
    </contour>
    <contour>
      <point x="449" y="145" type="curve" smooth="yes"/>
      <point x="565" y="201"/>
      <point x="604" y="350"/>
      <point x="637" y="539" type="curve" smooth="yes"/>
      <point x="643" y="622"/>
      <point x="637" y="683"/>
      <point x="634" y="743" type="curve"/>
      <point x="605" y="747"/>
      <point x="571" y="742"/>
      <point x="538" y="730" type="curve" smooth="yes"/>
      <point x="526" y="730"/>
      <point x="534" y="621"/>
      <point x="519" y="611" type="curve"/>
      <point x="510" y="544"/>
      <point x="498" y="383"/>
      <point x="472" y="336" type="curve"/>
      <point x="376" y="234"/>
      <point x="366" y="194"/>
      <point x="323" y="203" type="curve"/>
      <point x="263" y="213"/>
      <point x="222" y="314"/>
      <point x="243" y="426" type="curve" smooth="yes"/>
      <point x="232" y="528"/>
      <point x="248" y="644"/>
      <point x="262" y="743" type="curve"/>
      <point x="232" y="747"/>
      <point x="199" y="742"/>
      <point x="166" y="730" type="curve" smooth="yes"/>
      <point x="146" y="649"/>
      <point x="127" y="585"/>
      <point x="97" y="498" type="curve"/>
      <point x="95" y="330"/>
      <point x="129" y="210"/>
      <point x="185" y="93" type="curve"/>
      <point x="276" y="59"/>
      <point x="360" y="58"/>
    </contour>
  </outline>
</glyph>
<glyph name="e" format="1">
  <advance width="553"/>
  <unicode hex="0065"/>
  <outline>
    <contour>
      <point x="340" y="580" type="move" name="top"/>
    </contour>
    <contour>
      <point x="312" y="0" type="move" name="ogonek"/>
    </contour>
    <contour>
      <point x="157" y="230" type="curve"/>
      <point x="202" y="237"/>
      <point x="278" y="235"/>
      <point x="315" y="254" type="curve"/>
      <point x="404" y="324"/>
      <point x="441" y="395"/>
      <point x="438" y="432" type="curve"/>
      <point x="385" y="482"/>
      <point x="318" y="509"/>
      <point x="211" y="501" type="curve"/>
      <point x="118" y="448"/>
      <point x="68" y="370"/>
      <point x="44" y="296" type="curve"/>
      <point x="36" y="231"/>
      <point x="63" y="169"/>
      <point x="139" y="139" type="curve" smooth="yes"/>
      <point x="184" y="76"/>
      <point x="284" y="38"/>
      <point x="389" y="50" type="curve"/>
      <point x="427" y="87"/>
      <point x="473" y="126"/>
      <point x="468" y="146" type="curve"/>
      <point x="441" y="145"/>
      <point x="407" y="140"/>
      <point x="356" y="135" type="curve"/>
      <point x="319" y="131"/>
      <point x="276" y="132"/>
      <point x="247" y="151" type="curve"/>
      <point x="189" y="199"/>
      <point x="188" y="266"/>
      <point x="212" y="347" type="curve" smooth="yes"/>
      <point x="213" y="388"/>
      <point x="262" y="452"/>
      <point x="312" y="476" type="curve"/>
      <point x="323" y="468"/>
      <point x="343" y="454"/>
      <point x="334" y="424" type="curve"/>
      <point x="353" y="396"/>
      <point x="332" y="360"/>
      <point x="304" y="311" type="curve"/>
      <point x="253" y="288"/>
      <point x="216" y="244"/>
    </contour>
  </outline>
</glyph>
<glyph name="dieresis" format="1">
  <advance width="379"/>
  <unicode hex="00A8"/>
  <outline>
    <contour>
      <point x="256" y="580" type="move" name="_top"/>
    </contour>
    <contour>
      <point x="157" y="621" type="curve" smooth="yes"/>
      <point x="196" y="621"/>
      <point x="226" y="653"/>
      <point x="226" y="690" type="curve" smooth="yes"/>
      <point x="226" y="728"/>
      <point x="196" y="758"/>
      <point x="157" y="758" type="curve" smooth="yes"/>
      <point x="118" y="758"/>
      <point x="87" y="728"/>
      <point x="87" y="690" type="curve" smooth="yes"/>
      <point x="87" y="653"/>
      <point x="118" y="621"/>
    </contour>
    <contour>
      <point x="373" y="621" type="curve" smooth="yes"/>
      <point x="410" y="621"/>
      <point x="441" y="653"/>
      <point x="441" y="690" type="curve" smooth="yes"/>
      <point x="441" y="728"/>
      <point x="410" y="758"/>
      <point x="373" y="758" type="curve" smooth="yes"/>
      <point x="333" y="758"/>
      <point x="302" y="728"/>
      <point x="302" y="690" type="curve" smooth="yes"/>
      <point x="302" y="653"/>
      <point x="333" y="621"/>
    </contour>
  </outline>
</glyph>
<glyph name="uni0122" format="1">
  <advance width="683"/>
  <unicode hex="0122"/>
  <outline>
    <contour>
      <point x="336" y="-283" type="curve"/>
      <point x="402" y="-230"/>
      <point x="449" y="-158"/>
      <point x="454" y="-90" type="curve"/>
      <point x="440" y="-49"/>
      <point x="384" y="-14"/>
      <point x="326" y="-59" type="curve"/>
      <point x="344" y="-181" type="line"/>
      <point x="292" y="-259" type="line"/>
      <point x="299" y="-276"/>
      <point x="315" y="-283"/>
    </contour>
    <component base="G"/>
  </outline>
</glyph>
<glyph name="uni0123" format="1">
  <advance width="600"/>
  <unicode hex="0123"/>
  <outline>
    <contour>
      <point x="406" y="600" type="curve"/>
      <point x="472" y="653"/>
      <point x="519" y="725"/>
      <point x="524" y="793" type="curve"/>
      <point x="510" y="834"/>
      <point x="454" y="869"/>
      <point x="396" y="824" type="curve"/>
      <point x="414" y="702" type="line"/>
      <point x="362" y="624" type="line"/>
      <point x="369" y="607"/>
      <point x="385" y="600"/>
    </contour>
    <component base="g"/>
  </outline>
</glyph>
<glyph name="uni0136" format="1">
  <advance width="660"/>
  <unicode hex="0136"/>
  <outline>
    <contour>
      <point x="255" y="-283" type="curve"/>
      <point x="321" y="-230"/>
      <point x="368" y="-158"/>
      <point x="373" y="-90" type="curve"/>
      <point x="359" y="-49"/>
      <point x="303" y="-14"/>
      <point x="245" y="-59" type="curve"/>
      <point x="263" y="-181" type="line"/>
      <point x="211" y="-259" type="line"/>
      <point x="218" y="-276"/>
      <point x="234" y="-283"/>
    </contour>
    <component base="K"/>
  </outline>
</glyph>
<glyph name="uni0137" format="1">
  <advance width="575"/>
  <unicode hex="0137"/>
  <outline>
    <contour>
      <point x="218" y="-283" type="curve"/>
      <point x="284" y="-230"/>
      <point x="330" y="-158"/>
      <point x="336" y="-90" type="curve"/>
      <point x="322" y="-49"/>
      <point x="265" y="-14"/>
      <point x="208" y="-59" type="curve"/>
      <point x="225" y="-181" type="line"/>
      <point x="174" y="-259" type="line"/>
      <point x="181" y="-276"/>
      <point x="196" y="-283"/>
    </contour>
    <component base="k"/>
  </outline>
</glyph>
<glyph name="uni013B" format="1">
  <advance width="527"/>
  <unicode hex="013B"/>
  <outline>
    <contour>
      <point x="201" y="-283" type="curve"/>
      <point x="266" y="-230"/>
      <point x="313" y="-158"/>
      <point x="319" y="-90" type="curve"/>
      <point x="304" y="-49"/>
      <point x="248" y="-14"/>
      <point x="191" y="-59" type="curve"/>
      <point x="208" y="-181" type="line"/>
      <point x="157" y="-259" type="line"/>
      <point x="164" y="-276"/>
      <point x="179" y="-283"/>
    </contour>
    <component base="L"/>
  </outline>
</glyph>
<glyph name="uni013C" format="1">
  <advance width="302"/>
  <unicode hex="013C"/>
  <outline>
    <contour>
      <point x="55" y="-283" type="curve"/>
      <point x="120" y="-230"/>
      <point x="167" y="-158"/>
      <point x="173" y="-90" type="curve"/>
      <point x="158" y="-49"/>
      <point x="102" y="-14"/>
      <point x="44" y="-59" type="curve"/>
      <point x="62" y="-181" type="line"/>
      <point x="11" y="-259" type="line"/>
      <point x="18" y="-276"/>
      <point x="33" y="-283"/>
    </contour>
    <component base="l"/>
  </outline>
</glyph>
<glyph name="Lcaron" format="1">
  <advance width="527"/>
  <unicode hex="013D"/>
  <outline>
    <contour>
      <point x="434" y="621" type="curve"/>
      <point x="509" y="680"/>
      <point x="560" y="760"/>
      <point x="567" y="837" type="curve"/>
      <point x="551" y="883"/>
      <point x="487" y="922"/>
      <point x="422" y="872" type="curve"/>
      <point x="443" y="734" type="line"/>
      <point x="385" y="647" type="line"/>
      <point x="393" y="629"/>
      <point x="410" y="621"/>
    </contour>
    <component base="L"/>
  </outline>
</glyph>
<glyph name="Lslash" format="1">
  <advance width="593"/>
  <unicode hex="0141"/>
  <outline>
    <contour>
      <point x="445" y="463" type="curve"/>
      <point x="186" y="414" type="line"/>
      <point x="63" y="424" type="line"/>
      <point x="40" y="406"/>
      <point x="41" y="367"/>
      <point x="76" y="337" type="curve"/>
      <point x="275" y="367" type="line"/>
      <point x="458" y="377" type="line"/>
      <point x="493" y="412"/>
      <point x="477" y="450"/>
    </contour>
    <component base="L" xOffset="66"/>
  </outline>
</glyph>
<glyph name="uni0145" format="1">
  <advance width="711"/>
  <unicode hex="0145"/>
  <outline>
    <contour>
      <point x="299" y="-283" type="curve"/>
      <point x="364" y="-230"/>
      <point x="411" y="-158"/>
      <point x="417" y="-90" type="curve"/>
      <point x="402" y="-49"/>
      <point x="346" y="-14"/>
      <point x="288" y="-59" type="curve"/>
      <point x="306" y="-181" type="line"/>
      <point x="255" y="-259" type="line"/>
      <point x="262" y="-276"/>
      <point x="277" y="-283"/>
    </contour>
    <component base="N"/>
  </outline>
</glyph>
<glyph name="uni0146" format="1">
  <advance width="612"/>
  <unicode hex="0146"/>
  <outline>
    <contour>
      <point x="239" y="-283" type="curve"/>
      <point x="304" y="-230"/>
      <point x="351" y="-158"/>
      <point x="357" y="-90" type="curve"/>
      <point x="343" y="-49"/>
      <point x="286" y="-14"/>
      <point x="229" y="-59" type="curve"/>
      <point x="246" y="-181" type="line"/>
      <point x="195" y="-259" type="line"/>
      <point x="202" y="-276"/>
      <point x="217" y="-283"/>
    </contour>
    <component base="n"/>
  </outline>
</glyph>
<glyph name="uni0156" format="1">
  <advance width="652"/>
  <unicode hex="0156"/>
  <outline>
    <contour>
      <point x="263" y="-283" type="curve"/>
      <point x="328" y="-230"/>
      <point x="375" y="-158"/>
      <point x="381" y="-90" type="curve"/>
      <point x="367" y="-49"/>
      <point x="310" y="-14"/>
      <point x="253" y="-59" type="curve"/>
      <point x="270" y="-181" type="line"/>
      <point x="219" y="-259" type="line"/>
      <point x="226" y="-276"/>
      <point x="241" y="-283"/>
    </contour>
    <component base="R"/>
  </outline>
</glyph>
<glyph name="uni0157" format="1">
  <advance width="487"/>
  <unicode hex="0157"/>
  <outline>
    <contour>
      <point x="45" y="-283" type="curve"/>
      <point x="110" y="-230"/>
      <point x="157" y="-158"/>
      <point x="163" y="-90" type="curve"/>
      <point x="148" y="-49"/>
      <point x="92" y="-14"/>
      <point x="35" y="-59" type="curve"/>
      <point x="52" y="-181" type="line"/>
      <point x="1" y="-259" type="line"/>
      <point x="8" y="-276"/>
      <point x="23" y="-283"/>
    </contour>
    <component base="r"/>
  </outline>
</glyph>
<glyph name="uni0218" format="1">
  <advance width="635"/>
  <unicode hex="0218"/>
  <outline>
    <contour>
      <point x="242" y="-283" type="curve"/>
      <point x="308" y="-230"/>
      <point x="354" y="-158"/>
      <point x="360" y="-90" type="curve"/>
      <point x="346" y="-49"/>
      <point x="289" y="-14"/>
      <point x="232" y="-59" type="curve"/>
      <point x="249" y="-181" type="line"/>
      <point x="198" y="-259" type="line"/>
      <point x="205" y="-276"/>
      <point x="220" y="-283"/>
    </contour>
    <component base="S"/>
  </outline>
</glyph>
<glyph name="uni0219" format="1">
  <advance width="523"/>
  <unicode hex="0219"/>
  <outline>
    <contour>
      <point x="169" y="-283" type="curve"/>
      <point x="235" y="-230"/>
      <point x="282" y="-158"/>
      <point x="287" y="-90" type="curve"/>
      <point x="273" y="-49"/>
      <point x="217" y="-14"/>
      <point x="159" y="-59" type="curve"/>
      <point x="177" y="-181" type="line"/>
      <point x="125" y="-259" type="line"/>
      <point x="132" y="-276"/>
      <point x="148" y="-283"/>
    </contour>
    <component base="s"/>
  </outline>
</glyph>
<glyph name="uni021A" format="1">
  <advance width="621"/>
  <unicode hex="021A"/>
  <outline>
    <contour>
      <point x="215" y="-283" type="curve"/>
      <point x="281" y="-230"/>
      <point x="328" y="-158"/>
      <point x="333" y="-90" type="curve"/>
      <point x="319" y="-49"/>
      <point x="263" y="-14"/>
      <point x="205" y="-59" type="curve"/>
      <point x="223" y="-181" type="line"/>
      <point x="171" y="-259" type="line"/>
      <point x="178" y="-276"/>
      <point x="194" y="-283"/>
    </contour>
    <component base="T"/>
  </outline>
</glyph>
<glyph name="uni021B" format="1">
  <advance width="476"/>
  <unicode hex="021B"/>
  <outline>
    <contour>
      <point x="185" y="-283" type="curve"/>
      <point x="250" y="-230"/>
      <point x="297" y="-158"/>
      <point x="303" y="-90" type="curve"/>
      <point x="288" y="-49"/>
      <point x="232" y="-14"/>
      <point x="174" y="-59" type="curve"/>
      <point x="192" y="-181" type="line"/>
      <point x="141" y="-259" type="line"/>
      <point x="147" y="-276"/>
      <point x="163" y="-283"/>
    </contour>
    <component base="t"/>
  </outline>
</glyph>
<glyph name="dvCandrabindu" format="1">
  <advance width="0"/>
  <unicode hex="0901"/>
  <outline>
    <contour>
      <point x="-125" y="640" type="move" name="_abvm_Ekaar"/>
    </contour>
    <contour>
      <point x="4" y="799" type="curve" smooth="yes"/>
      <point x="35" y="799"/>
      <point x="61" y="825"/>
      <point x="61" y="856" type="curve" smooth="yes"/>
      <point x="61" y="888"/>
      <point x="35" y="913"/>
      <point x="4" y="913" type="curve" smooth="yes"/>
      <point x="-29" y="913"/>
      <point x="-55" y="888"/>
      <point x="-55" y="856" type="curve" smooth="yes"/>
      <point x="-55" y="825"/>
      <point x="-29" y="799"/>
    </contour>
    <contour>
      <point x="107" y="844" type="curve"/>
      <point x="76" y="788"/>
      <point x="33" y="755"/>
      <point x="-32" y="744" type="curve"/>
      <point x="-83" y="784"/>
      <point x="-110" y="849"/>
      <point x="-112" y="926" type="curve"/>
      <point x="-158" y="946"/>
      <point x="-201" y="927"/>
      <point x="-232" y="878" type="curve"/>
      <point x="-209" y="775"/>
      <point x="-106" y="685"/>
      <point x="-35" y="685" type="curve" smooth="yes"/>
      <point x="42" y="685"/>
      <point x="143" y="727"/>
      <point x="191" y="792" type="curve"/>
      <point x="176" y="835"/>
      <point x="144" y="855"/>
    </contour>
  </outline>
</glyph>
<glyph name="dvAnusvara" format="1">
  <advance width="0"/>
  <unicode hex="0902"/>
  <outline>
    <contour>
      <point x="-125" y="640" type="move" name="_abvm_Ekaar"/>
    </contour>
    <contour>
      <point x="-24" y="682" type="curve" smooth="yes"/>
      <point x="16" y="682"/>
      <point x="47" y="715"/>
      <point x="47" y="753" type="curve" smooth="yes"/>
      <point x="47" y="793"/>
      <point x="16" y="825"/>
      <point x="-24" y="825" type="curve" smooth="yes"/>
      <point x="-65" y="825"/>
      <point x="-97" y="793"/>
      <point x="-97" y="753" type="curve" smooth="yes"/>
      <point x="-97" y="715"/>
      <point x="-65" y="682"/>
    </contour>
  </outline>
</glyph>
<glyph name="dvEcandra" format="1">
  <advance width="563"/>
  <unicode hex="090D"/>
  <outline>
    <contour>
      <point x="691" y="569" type="line"/>
      <point x="706" y="579"/>
      <point x="714" y="595"/>
      <point x="718" y="610" type="curve"/>
      <point x="706" y="623" type="line"/>
      <point x="20" y="623" type="line"/>
      <point x="5" y="613"/>
      <point x="-5" y="597"/>
      <point x="-10" y="584" type="curve"/>
      <point x="5" y="569" type="line"/>
    </contour>
    <contour>
      <point x="172" y="210" type="line"/>
      <point x="229" y="323"/>
      <point x="265" y="469"/>
      <point x="282" y="606" type="curve"/>
      <point x="134" y="588" type="line"/>
      <point x="143" y="456" type="line"/>
      <point x="123" y="371"/>
      <point x="78" y="273"/>
      <point x="41" y="202" type="curve"/>
      <point x="43" y="150"/>
      <point x="97" y="113"/>
      <point x="171" y="102" type="curve"/>
      <point x="319" y="194" type="line"/>
      <point x="332" y="187" type="line"/>
      <point x="333" y="118" type="line"/>
      <point x="311" y="40"/>
      <point x="281" y="-26"/>
      <point x="215" y="-97" type="curve"/>
      <point x="219" y="-139"/>
      <point x="254" y="-164"/>
      <point x="321" y="-167" type="curve"/>
      <point x="401" y="-64"/>
      <point x="447" y="86"/>
      <point x="444" y="217" type="curve"/>
      <point x="420" y="260"/>
      <point x="367" y="288"/>
      <point x="312" y="279" type="curve"/>
      <point x="183" y="202" type="line"/>
    </contour>
    <contour>
      <point x="486" y="305" type="curve"/>
      <point x="554" y="398"/>
      <point x="576" y="518"/>
      <point x="564" y="608" type="curve"/>
      <point x="432" y="594" type="line"/>
      <point x="446" y="492" type="line"/>
      <point x="442" y="440"/>
      <point x="423" y="401"/>
      <point x="394" y="358" type="curve"/>
      <point x="401" y="330"/>
      <point x="435" y="309"/>
    </contour>
    <contour>
      <point x="674" y="801" type="curve"/>
      <point x="657" y="842"/>
      <point x="618" y="864"/>
      <point x="580" y="849" type="curve"/>
      <point x="556" y="792"/>
      <point x="517" y="745"/>
      <point x="452" y="734" type="curve"/>
      <point x="402" y="774"/>
      <point x="381" y="839"/>
      <point x="376" y="916" type="curve"/>
      <point x="330" y="935"/>
      <point x="286" y="917"/>
      <point x="255" y="867" type="curve"/>
      <point x="281" y="768"/>
      <point x="378" y="675"/>
      <point x="444" y="675" type="curve" smooth="yes"/>
      <point x="538" y="675"/>
      <point x="631" y="735"/>
    </contour>
  </outline>
</glyph>
<glyph name="dvNNA" format="1">
  <advance width="734"/>
  <unicode hex="0923"/>
  <outline>
    <contour>
      <point x="888" y="610" type="curve"/>
      <point x="876" y="623" type="line"/>
      <point x="237" y="623" type="line"/>
      <point x="133" y="560"/>
      <point x="44" y="424"/>
      <point x="44" y="351" type="curve" smooth="yes"/>
      <point x="44" y="273"/>
      <point x="131" y="153"/>
      <point x="211" y="153" type="curve" smooth="yes"/>
      <point x="294" y="153"/>
      <point x="436" y="240"/>
      <point x="458" y="367" type="curve"/>
      <point x="464" y="431"/>
      <point x="445" y="497"/>
      <point x="413" y="569" type="curve"/>
      <point x="861" y="569" type="line"/>
      <point x="876" y="579"/>
      <point x="884" y="595"/>
    </contour>
    <contour>
      <point x="301" y="569" type="line"/>
      <point x="329" y="495"/>
      <point x="342" y="439"/>
      <point x="344" y="377" type="curve"/>
      <point x="328" y="302"/>
      <point x="278" y="258"/>
      <point x="223" y="239" type="curve"/>
      <point x="187" y="261"/>
      <point x="169" y="301"/>
      <point x="164" y="353" type="curve"/>
      <point x="176" y="423"/>
      <point x="226" y="506"/>
      <point x="285" y="569" type="curve"/>
    </contour>
    <contour>
      <point x="758" y="609" type="line"/>
      <point x="736" y="645"/>
      <point x="697" y="660"/>
      <point x="606" y="653" type="curve"/>
      <point x="467" y="41" type="line"/>
      <point x="514" y="1"/>
      <point x="586" y="-10"/>
      <point x="628" y="11" type="curve"/>
      <point x="669" y="431" type="line"/>
    </contour>
  </outline>
</glyph>
<glyph name="dvLA" format="1">
  <advance width="716"/>
  <unicode hex="0932"/>
  <outline>
    <contour>
      <point x="741" y="609" type="line"/>
      <point x="719" y="645"/>
      <point x="679" y="660"/>
      <point x="588" y="653" type="curve"/>
      <point x="521" y="357" type="line"/>
      <point x="537" y="339" type="line"/>
      <point x="505" y="286" type="line"/>
      <point x="449" y="41" type="line"/>
      <point x="497" y="1"/>
      <point x="569" y="-10"/>
      <point x="610" y="11" type="curve"/>
      <point x="652" y="431" type="line"/>
    </contour>
    <contour>
      <point x="844" y="569" type="line"/>
      <point x="859" y="579"/>
      <point x="867" y="595"/>
      <point x="871" y="610" type="curve"/>
      <point x="859" y="623" type="line"/>
      <point x="20" y="623" type="line"/>
      <point x="6" y="613"/>
      <point x="-4" y="597"/>
      <point x="-10" y="584" type="curve"/>
      <point x="6" y="569" type="line"/>
    </contour>
    <contour>
      <point x="341" y="282" type="line"/>
      <point x="355" y="300"/>
      <point x="369" y="322"/>
      <point x="381" y="341" type="curve"/>
      <point x="376" y="399"/>
      <point x="349" y="444"/>
      <point x="294" y="468" type="curve"/>
      <point x="270" y="474"/>
      <point x="225" y="474"/>
      <point x="190" y="469" type="curve"/>
      <point x="104" y="431"/>
      <point x="6" y="329"/>
      <point x="6" y="253" type="curve" smooth="yes"/>
      <point x="6" y="178"/>
      <point x="80" y="64"/>
      <point x="185" y="0" type="curve"/>
      <point x="259" y="13"/>
      <point x="289" y="63"/>
      <point x="268" y="99" type="curve"/>
      <point x="184" y="140"/>
      <point x="147" y="196"/>
      <point x="130" y="264" type="curve"/>
      <point x="136" y="316"/>
      <point x="187" y="384"/>
      <point x="229" y="393" type="curve"/>
      <point x="260" y="386"/>
      <point x="279" y="358"/>
      <point x="285" y="327" type="curve"/>
      <point x="274" y="308"/>
      <point x="260" y="292"/>
      <point x="243" y="274" type="curve"/>
      <point x="238" y="237"/>
      <point x="280" y="199"/>
      <point x="352" y="191" type="curve"/>
      <point x="430" y="254"/>
      <point x="524" y="341"/>
      <point x="577" y="394" type="curve"/>
      <point x="545" y="457" type="line"/>
      <point x="483" y="386"/>
      <point x="408" y="318"/>
      <point x="348" y="278" type="curve"/>
    </contour>
  </outline>
</glyph>
<glyph name="dvNukta" format="1">
  <advance width="0"/>
  <unicode hex="093C"/>
  <outline>
    <contour>
      <point x="75" y="-11" type="curve" smooth="yes"/>
      <point x="110" y="-11"/>
      <point x="138" y="17"/>
      <point x="138" y="51" type="curve" smooth="yes"/>
      <point x="138" y="86"/>
      <point x="110" y="115"/>
      <point x="75" y="115" type="curve" smooth="yes"/>
      <point x="39" y="115"/>
      <point x="11" y="86"/>
      <point x="11" y="51" type="curve" smooth="yes"/>
      <point x="11" y="17"/>
      <point x="39" y="-11"/>
    </contour>
  </outline>
</glyph>
<glyph name="dvmI" format="1">
  <advance width="283"/>
  <unicode hex="093F"/>
  <outline>
    <contour>
      <point x="572" y="698" type="move" name="abvm_Reph_alt"/>
    </contour>
    <contour>
      <point x="166" y="870" type="curve"/>
      <point x="142" y="593" type="line"/>
      <point x="11" y="41" type="line"/>
      <point x="58" y="1"/>
      <point x="131" y="-10"/>
      <point x="172" y="11" type="curve"/>
      <point x="189" y="331"/>
      <point x="258" y="661"/>
      <point x="301" y="870" type="curve"/>
      <point x="312" y="876" type="line"/>
      <point x="394" y="829"/>
      <point x="458" y="756"/>
      <point x="531" y="661" type="curve"/>
      <point x="586" y="667"/>
      <point x="626" y="695"/>
      <point x="631" y="737" type="curve"/>
      <point x="568" y="833"/>
      <point x="410" y="972"/>
      <point x="331" y="972" type="curve" smooth="yes"/>
      <point x="276" y="972"/>
      <point x="194" y="922"/>
    </contour>
    <contour>
      <point x="403" y="569" type="line"/>
      <point x="417" y="579"/>
      <point x="425" y="595"/>
      <point x="429" y="610" type="curve"/>
      <point x="417" y="623" type="line"/>
      <point x="20" y="623" type="line"/>
      <point x="5" y="613"/>
      <point x="-5" y="597"/>
      <point x="-10" y="584" type="curve"/>
      <point x="5" y="569" type="line"/>
    </contour>
  </outline>
</glyph>
<glyph name="dvmvRR" format="1">
  <advance width="0"/>
  <unicode hex="0944"/>
  <outline>
    <contour>
      <point x="-348" y="-108" type="curve"/>
      <point x="-350" y="-144"/>
      <point x="-317" y="-182"/>
      <point x="-250" y="-168" type="curve"/>
      <point x="-247" y="-174" type="line"/>
      <point x="-289" y="-184"/>
      <point x="-331" y="-206"/>
      <point x="-362" y="-245" type="curve"/>
      <point x="-361" y="-285"/>
      <point x="-329" y="-316"/>
      <point x="-274" y="-326" type="curve"/>
      <point x="-202" y="-325"/>
      <point x="-134" y="-304"/>
      <point x="-92" y="-268" type="curve"/>
      <point x="-87" y="-231"/>
      <point x="-103" y="-204"/>
      <point x="-132" y="-203" type="curve"/>
      <point x="-172" y="-235"/>
      <point x="-224" y="-257"/>
      <point x="-265" y="-265" type="curve"/>
      <point x="-273" y="-255" type="line"/>
      <point x="-239" y="-222"/>
      <point x="-199" y="-205"/>
      <point x="-157" y="-191" type="curve"/>
      <point x="-142" y="-159"/>
      <point x="-159" y="-127"/>
      <point x="-191" y="-120" type="curve"/>
      <point x="-210" y="-127"/>
      <point x="-235" y="-133"/>
      <point x="-257" y="-139" type="curve"/>
      <point x="-261" y="-130" type="line"/>
      <point x="-224" y="-102"/>
      <point x="-180" y="-85"/>
      <point x="-131" y="-74" type="curve"/>
      <point x="-123" y="-39"/>
      <point x="-133" y="-18"/>
      <point x="-177" y="-11" type="curve"/>
      <point x="-231" y="-24"/>
      <point x="-307" y="-59"/>
    </contour>
  </outline>
</glyph>
<glyph name="dvmOcandra" format="1">
  <advance width="275"/>
  <unicode hex="0949"/>
  <outline>
    <contour>
      <point x="300" y="617" type="line"/>
      <point x="278" y="653"/>
      <point x="238" y="660"/>
      <point x="148" y="653" type="curve"/>
      <point x="8" y="41" type="line"/>
      <point x="56" y="1"/>
      <point x="128" y="-10"/>
      <point x="170" y="11" type="curve"/>
      <point x="211" y="431" type="line"/>
    </contour>
    <contour>
      <point x="403" y="569" type="line"/>
      <point x="418" y="579"/>
      <point x="426" y="595"/>
      <point x="430" y="610" type="curve"/>
      <point x="418" y="623" type="line"/>
      <point x="20" y="623" type="line"/>
      <point x="5" y="613"/>
      <point x="-5" y="597"/>
      <point x="-10" y="584" type="curve"/>
      <point x="5" y="569" type="line"/>
    </contour>
    <contour>
      <point x="463" y="801" type="curve"/>
      <point x="447" y="842"/>
      <point x="408" y="864"/>
      <point x="370" y="849" type="curve"/>
      <point x="346" y="792"/>
      <point x="307" y="745"/>
      <point x="242" y="734" type="curve"/>
      <point x="191" y="774"/>
      <point x="170" y="839"/>
      <point x="166" y="916" type="curve"/>
      <point x="120" y="935"/>
      <point x="76" y="917"/>
      <point x="45" y="867" type="curve"/>
      <point x="70" y="768"/>
      <point x="168" y="675"/>
      <point x="233" y="675" type="curve" smooth="yes"/>
      <point x="327" y="675"/>
      <point x="420" y="735"/>
    </contour>
  </outline>
</glyph>
<glyph name="dvmAU" format="1">
  <advance width="275"/>
  <unicode hex="094C"/>
  <outline>
    <contour>
      <point x="300" y="617" type="line"/>
      <point x="278" y="653"/>
      <point x="238" y="660"/>
      <point x="148" y="653" type="curve"/>
      <point x="8" y="41" type="line"/>
      <point x="56" y="1"/>
      <point x="128" y="-10"/>
      <point x="170" y="11" type="curve"/>
      <point x="211" y="431" type="line"/>
    </contour>
    <contour>
      <point x="403" y="569" type="line"/>
      <point x="418" y="579"/>
      <point x="426" y="595"/>
      <point x="430" y="610" type="curve"/>
      <point x="418" y="623" type="line"/>
      <point x="20" y="623" type="line"/>
      <point x="5" y="613"/>
      <point x="-5" y="597"/>
      <point x="-10" y="584" type="curve"/>
      <point x="5" y="569" type="line"/>
    </contour>
    <contour>
      <point x="195" y="738" type="curve"/>
      <point x="191" y="734" type="line"/>
      <point x="150" y="771"/>
      <point x="107" y="801"/>
      <point x="71" y="807" type="curve" smooth="yes"/>
      <point x="29" y="801"/>
      <point x="1" y="780"/>
      <point x="-19" y="749" type="curve"/>
      <point x="-11" y="713"/>
      <point x="28" y="692"/>
      <point x="77" y="688" type="curve"/>
      <point x="108" y="724" type="line"/>
      <point x="145" y="714"/>
      <point x="168" y="699"/>
      <point x="197" y="675" type="curve"/>
      <point x="229" y="676"/>
      <point x="249" y="691"/>
      <point x="253" y="709" type="curve"/>
      <point x="205" y="829"/>
      <point x="99" y="965"/>
      <point x="30" y="965" type="curve" smooth="yes"/>
      <point x="-14" y="965"/>
      <point x="-61" y="939"/>
      <point x="-82" y="912" type="curve"/>
      <point x="-89" y="862"/>
      <point x="-53" y="833"/>
      <point x="11" y="812" type="curve"/>
      <point x="71" y="867" type="line"/>
      <point x="125" y="836"/>
      <point x="168" y="785"/>
    </contour>
  </outline>
</glyph>
<glyph name="dvOm" format="1">
  <advance width="1043"/>
  <unicode hex="0950"/>
  <outline>
    <contour>
      <point x="486" y="307" type="line"/>
      <point x="509" y="269" type="line"/>
      <point x="620" y="283" type="line"/>
      <point x="705" y="353"/>
      <point x="761" y="445"/>
      <point x="819" y="506" type="curve"/>
      <point x="865" y="460"/>
      <point x="886" y="390"/>
      <point x="899" y="310" type="curve"/>
      <point x="852" y="208"/>
      <point x="789" y="143"/>
      <point x="652" y="94" type="curve"/>
      <point x="626" y="55"/>
      <point x="647" y="15"/>
      <point x="707" y="0" type="curve"/>
      <point x="859" y="69"/>
      <point x="956" y="186"/>
      <point x="982" y="313" type="curve"/>
      <point x="974" y="422"/>
      <point x="935" y="574"/>
      <point x="823" y="603" type="curve"/>
      <point x="729" y="569"/>
      <point x="654" y="393"/>
      <point x="564" y="331" type="curve"/>
    </contour>
    <contour>
      <point x="412" y="323" type="line"/>
      <point x="447" y="300"/>
      <point x="491" y="253"/>
      <point x="501" y="212" type="curve"/>
      <point x="470" y="143"/>
      <point x="405" y="93"/>
      <point x="320" y="72" type="curve"/>
      <point x="236" y="120"/>
      <point x="186" y="196"/>
      <point x="148" y="297" type="curve"/>
      <point x="103" y="310"/>
      <point x="64" y="287"/>
      <point x="42" y="226" type="curve"/>
      <point x="100" y="122"/>
      <point x="188" y="40"/>
      <point x="315" y="0" type="curve"/>
      <point x="471" y="15"/>
      <point x="608" y="131"/>
      <point x="607" y="216" type="curve" smooth="yes"/>
      <point x="607" y="268"/>
      <point x="532" y="328"/>
      <point x="462" y="353" type="curve"/>
    </contour>
    <contour>
      <point x="348" y="288" type="curve"/>
      <point x="476" y="316"/>
      <point x="618" y="409"/>
      <point x="636" y="525" type="curve"/>
      <point x="610" y="587"/>
      <point x="562" y="637"/>
      <point x="491" y="655" type="curve"/>
      <point x="389" y="653"/>
      <point x="323" y="626"/>
      <point x="247" y="582" type="curve"/>
      <point x="225" y="546"/>
      <point x="255" y="502"/>
      <point x="313" y="486" type="curve"/>
      <point x="365" y="529"/>
      <point x="414" y="560"/>
      <point x="472" y="568" type="curve"/>
      <point x="493" y="558"/>
      <point x="512" y="538"/>
      <point x="523" y="512" type="curve"/>
      <point x="501" y="433"/>
      <point x="451" y="384"/>
      <point x="324" y="354" type="curve"/>
      <point x="304" y="330"/>
      <point x="315" y="303"/>
    </contour>
    <contour>
      <point x="733" y="731" type="curve" smooth="yes"/>
      <point x="763" y="731"/>
      <point x="786" y="757"/>
      <point x="786" y="786" type="curve" smooth="yes"/>
      <point x="786" y="816"/>
      <point x="763" y="840"/>
      <point x="733" y="840" type="curve" smooth="yes"/>
      <point x="703" y="840"/>
      <point x="678" y="816"/>
      <point x="678" y="786" type="curve" smooth="yes"/>
      <point x="678" y="757"/>
      <point x="703" y="731"/>
    </contour>
    <contour>
      <point x="833" y="776" type="curve"/>
      <point x="804" y="721"/>
      <point x="763" y="690"/>
      <point x="701" y="679" type="curve"/>
      <point x="653" y="717"/>
      <point x="627" y="779"/>
      <point x="625" y="852" type="curve"/>
      <point x="582" y="871"/>
      <point x="543" y="854"/>
      <point x="514" y="807" type="curve"/>
      <point x="536" y="716"/>
      <point x="631" y="623"/>
      <point x="699" y="623" type="curve" smooth="yes"/>
      <point x="771" y="623"/>
      <point x="865" y="664"/>
      <point x="911" y="727" type="curve"/>
      <point x="897" y="766"/>
      <point x="868" y="786"/>
    </contour>
  </outline>
</glyph>
<glyph name="dvZero" format="1">
  <advance width="499"/>
  <unicode hex="0966"/>
  <outline>
    <contour>
      <point x="36" y="288" type="curve"/>
      <point x="36" y="208"/>
      <point x="124" y="75"/>
      <point x="201" y="75" type="curve" smooth="yes"/>
      <point x="318" y="75"/>
      <point x="460" y="188"/>
      <point x="479" y="300" type="curve"/>
      <point x="477" y="419"/>
      <point x="449" y="508"/>
      <point x="368" y="594" type="curve"/>
      <point x="313" y="602"/>
      <point x="249" y="578"/>
      <point x="212" y="560" type="curve"/>
      <point x="138" y="513"/>
      <point x="36" y="371"/>
    </contour>
    <contour>
      <point x="315" y="515" type="curve"/>
      <point x="358" y="457"/>
      <point x="382" y="376"/>
      <point x="373" y="315" type="curve"/>
      <point x="353" y="240"/>
      <point x="300" y="183"/>
      <point x="215" y="155" type="curve"/>
      <point x="173" y="193"/>
      <point x="152" y="240"/>
      <point x="148" y="300" type="curve"/>
      <point x="173" y="389"/>
      <point x="221" y="459"/>
      <point x="277" y="504" type="curve"/>
      <point x="289" y="511"/>
      <point x="302" y="514"/>
    </contour>
  </outline>
</glyph>
<glyph name="dvOne" format="1">
  <advance width="491"/>
  <unicode hex="0967"/>
  <outline>
    <contour>
      <point x="405" y="160" type="curve"/>
      <point x="363" y="125"/>
      <point x="298" y="88"/>
      <point x="270" y="88" type="curve" smooth="yes"/>
      <point x="259" y="88"/>
      <point x="253" y="96"/>
      <point x="253" y="106" type="curve" smooth="yes"/>
      <point x="252" y="155"/>
      <point x="448" y="437"/>
      <point x="447" y="507" type="curve" smooth="yes"/>
      <point x="446" y="571"/>
      <point x="390" y="664"/>
      <point x="315" y="664" type="curve" smooth="yes"/>
      <point x="206" y="664"/>
      <point x="96" y="563"/>
      <point x="64" y="482" type="curve"/>
      <point x="69" y="428"/>
      <point x="114" y="382"/>
      <point x="195" y="352" type="curve"/>
      <point x="260" y="372"/>
      <point x="330" y="411"/>
      <point x="366" y="433" type="curve"/>
      <point x="341" y="466" type="line"/>
      <point x="299" y="447"/>
      <point x="271" y="434"/>
      <point x="224" y="421" type="curve"/>
      <point x="198" y="435"/>
      <point x="187" y="451"/>
      <point x="181" y="479" type="curve"/>
      <point x="201" y="524"/>
      <point x="266" y="579"/>
      <point x="303" y="579" type="curve" smooth="yes"/>
      <point x="322" y="579"/>
      <point x="333" y="542"/>
      <point x="334" y="511" type="curve" smooth="yes"/>
      <point x="334" y="477"/>
      <point x="310" y="442"/>
      <point x="286" y="409" type="curve"/>
      <point x="305" y="382" type="line"/>
      <point x="259" y="344" type="line"/>
      <point x="214" y="249"/>
      <point x="124" y="137"/>
      <point x="124" y="100" type="curve" smooth="yes"/>
      <point x="124" y="55"/>
      <point x="161" y="16"/>
      <point x="254" y="0" type="curve"/>
      <point x="328" y="26"/>
      <point x="398" y="73"/>
      <point x="444" y="122" type="curve"/>
      <point x="441" y="144"/>
      <point x="436" y="160"/>
    </contour>
  </outline>
</glyph>
<glyph name="dvTwo" format="1">
  <advance width="495"/>
  <unicode hex="0968"/>
  <outline>
    <contour>
      <point x="258" y="-70" type="curve"/>
      <point x="318" y="-70"/>
      <point x="361" y="-36"/>
      <point x="357" y="7" type="curve"/>
      <point x="279" y="63"/>
      <point x="210" y="183"/>
      <point x="181" y="332" type="curve"/>
      <point x="135" y="364"/>
      <point x="53" y="337"/>
      <point x="29" y="303" type="curve"/>
      <point x="20" y="266"/>
      <point x="36" y="227"/>
      <point x="83" y="186" type="curve"/>
      <point x="256" y="195"/>
      <point x="498" y="343"/>
      <point x="501" y="464" type="curve" smooth="yes"/>
      <point x="503" y="536"/>
      <point x="417" y="663"/>
      <point x="314" y="663" type="curve" smooth="yes"/>
      <point x="250" y="663"/>
      <point x="169" y="634"/>
      <point x="107" y="584" type="curve"/>
      <point x="92" y="548"/>
      <point x="112" y="513"/>
      <point x="175" y="494" type="curve"/>
      <point x="215" y="538"/>
      <point x="261" y="566"/>
      <point x="309" y="576" type="curve"/>
      <point x="365" y="548"/>
      <point x="392" y="508"/>
      <point x="398" y="453" type="curve"/>
      <point x="346" y="343"/>
      <point x="233" y="294"/>
      <point x="128" y="263" type="curve"/>
      <point x="140" y="163"/>
      <point x="169" y="53"/>
    </contour>
  </outline>
</glyph>
<glyph name="dvThree" format="1">
  <advance width="530"/>
  <unicode hex="0969"/>
  <outline>
    <contour>
      <point x="216" y="24" type="line"/>
      <point x="329" y="44"/>
      <point x="478" y="133"/>
      <point x="480" y="234" type="curve" smooth="yes"/>
      <point x="481" y="282"/>
      <point x="451" y="327"/>
      <point x="351" y="349" type="curve"/>
      <point x="347" y="358" type="line"/>
      <point x="449" y="399"/>
      <point x="507" y="457"/>
      <point x="527" y="536" type="curve"/>
      <point x="505" y="590"/>
      <point x="471" y="639"/>
      <point x="402" y="661" type="curve"/>
      <point x="313" y="661"/>
      <point x="242" y="644"/>
      <point x="162" y="604" type="curve"/>
      <point x="142" y="564"/>
      <point x="166" y="527"/>
      <point x="220" y="509" type="curve"/>
      <point x="279" y="547"/>
      <point x="325" y="564"/>
      <point x="380" y="573" type="curve"/>
      <point x="402" y="561"/>
      <point x="409" y="551"/>
      <point x="417" y="538" type="curve"/>
      <point x="403" y="473"/>
      <point x="371" y="437"/>
      <point x="279" y="393" type="curve"/>
      <point x="242" y="394"/>
      <point x="220" y="399"/>
      <point x="191" y="400" type="curve"/>
      <point x="161" y="370"/>
      <point x="171" y="302"/>
      <point x="226" y="263" type="curve"/>
      <point x="254" y="275"/>
      <point x="275" y="284"/>
      <point x="301" y="294" type="curve"/>
      <point x="351" y="282"/>
      <point x="378" y="256"/>
      <point x="378" y="225" type="curve" smooth="yes"/>
      <point x="372" y="182"/>
      <point x="311" y="133"/>
      <point x="231" y="103" type="curve"/>
      <point x="197" y="141"/>
      <point x="166" y="190"/>
      <point x="140" y="230" type="curve"/>
      <point x="101" y="245"/>
      <point x="57" y="218"/>
      <point x="16" y="175" type="curve"/>
      <point x="58" y="66"/>
      <point x="94" y="-61"/>
      <point x="114" y="-174" type="curve"/>
      <point x="181" y="-181"/>
      <point x="214" y="-165"/>
      <point x="221" y="-137" type="curve"/>
      <point x="200" y="-44"/>
      <point x="166" y="12"/>
      <point x="133" y="106" type="curve"/>
      <point x="144" y="116" type="line"/>
    </contour>
  </outline>
</glyph>
<glyph name="dvFour" format="1">
  <advance width="546"/>
  <unicode hex="096A"/>
  <outline>
    <contour>
      <point x="70" y="574" type="curve"/>
      <point x="217" y="480"/>
      <point x="322" y="360"/>
      <point x="323" y="127" type="curve"/>
      <point x="305" y="101"/>
      <point x="287" y="88"/>
      <point x="255" y="77" type="curve"/>
      <point x="217" y="101"/>
      <point x="190" y="129"/>
      <point x="181" y="173" type="curve"/>
      <point x="272" y="367"/>
      <point x="418" y="486"/>
      <point x="599" y="620" type="curve"/>
      <point x="599" y="642"/>
      <point x="593" y="661"/>
      <point x="563" y="659" type="curve"/>
      <point x="410" y="559"/>
      <point x="198" y="391"/>
      <point x="78" y="180" type="curve"/>
      <point x="78" y="95"/>
      <point x="143" y="26"/>
      <point x="238" y="0" type="curve"/>
      <point x="338" y="23"/>
      <point x="389" y="68"/>
      <point x="416" y="128" type="curve"/>
      <point x="420" y="365"/>
      <point x="311" y="563"/>
      <point x="156" y="658" type="curve"/>
      <point x="112" y="656"/>
      <point x="90" y="632"/>
    </contour>
  </outline>
</glyph>
<glyph name="dvFive" format="1">
  <advance width="491"/>
  <unicode hex="096B"/>
  <outline>
    <contour>
      <point x="379" y="311" type="curve"/>
      <point x="390" y="307" type="line"/>
      <point x="365" y="209"/>
      <point x="304" y="35"/>
      <point x="243" y="-95" type="curve"/>
      <point x="244" y="-124"/>
      <point x="269" y="-142"/>
      <point x="317" y="-142" type="curve"/>
      <point x="379" y="-7"/>
      <point x="458" y="214"/>
      <point x="494" y="340" type="curve"/>
      <point x="489" y="393"/>
      <point x="437" y="417"/>
      <point x="353" y="406" type="curve"/>
      <point x="316" y="346"/>
      <point x="269" y="271"/>
      <point x="204" y="186" type="curve"/>
      <point x="165" y="210"/>
      <point x="146" y="237"/>
      <point x="146" y="281" type="curve" smooth="yes"/>
      <point x="146" y="387"/>
      <point x="298" y="522"/>
      <point x="441" y="609" type="curve"/>
      <point x="438" y="634"/>
      <point x="421" y="649"/>
      <point x="389" y="653" type="curve"/>
      <point x="211" y="575"/>
      <point x="24" y="413"/>
      <point x="22" y="280" type="curve" smooth="yes"/>
      <point x="21" y="176"/>
      <point x="95" y="105"/>
      <point x="232" y="85" type="curve"/>
      <point x="293" y="186"/>
      <point x="350" y="271"/>
    </contour>
  </outline>
</glyph>
<glyph name="dvSix" format="1">
  <advance width="533"/>
  <unicode hex="096C"/>
  <outline>
    <contour>
      <point x="247" y="20" type="curve"/>
      <point x="337" y="116" type="line"/>
      <point x="346" y="106" type="line"/>
      <point x="321" y="26"/>
      <point x="282" y="-51"/>
      <point x="251" y="-137" type="curve"/>
      <point x="250" y="-163"/>
      <point x="279" y="-180"/>
      <point x="346" y="-176" type="curve"/>
      <point x="380" y="-67"/>
      <point x="415" y="61"/>
      <point x="465" y="172" type="curve"/>
      <point x="436" y="212"/>
      <point x="397" y="238"/>
      <point x="353" y="227" type="curve"/>
      <point x="326" y="183"/>
      <point x="284" y="138"/>
      <point x="242" y="99" type="curve"/>
      <point x="186" y="127"/>
      <point x="153" y="169"/>
      <point x="154" y="213" type="curve" smooth="yes"/>
      <point x="159" y="251"/>
      <point x="180" y="283"/>
      <point x="240" y="308" type="curve"/>
      <point x="266" y="299"/>
      <point x="284" y="292"/>
      <point x="309" y="280" type="curve"/>
      <point x="367" y="320"/>
      <point x="395" y="390"/>
      <point x="365" y="413" type="curve"/>
      <point x="339" y="410"/>
      <point x="316" y="404"/>
      <point x="282" y="400" type="curve"/>
      <point x="209" y="447"/>
      <point x="198" y="474"/>
      <point x="200" y="538" type="curve"/>
      <point x="212" y="551"/>
      <point x="222" y="561"/>
      <point x="247" y="573" type="curve"/>
      <point x="299" y="564"/>
      <point x="341" y="547"/>
      <point x="387" y="509" type="curve"/>
      <point x="447" y="527"/>
      <point x="484" y="564"/>
      <point x="477" y="604" type="curve"/>
      <point x="410" y="644"/>
      <point x="344" y="661"/>
      <point x="249" y="660" type="curve"/>
      <point x="179" y="639"/>
      <point x="130" y="590"/>
      <point x="96" y="543" type="curve"/>
      <point x="89" y="456"/>
      <point x="135" y="411"/>
      <point x="211" y="372" type="curve"/>
      <point x="204" y="363" type="line"/>
      <point x="100" y="335"/>
      <point x="59" y="273"/>
      <point x="50" y="216" type="curve" smooth="yes"/>
      <point x="33" y="130"/>
      <point x="120" y="42"/>
    </contour>
  </outline>
</glyph>
<glyph name="dvSeven" format="1">
  <advance width="629"/>
  <unicode hex="096D"/>
  <outline>
    <contour>
      <point x="559" y="356" type="line"/>
      <point x="510" y="340"/>
      <point x="466" y="326"/>
      <point x="429" y="315" type="curve"/>
      <point x="368" y="349"/>
      <point x="370" y="435"/>
      <point x="413" y="468" type="curve"/>
      <point x="437" y="475" type="line"/>
      <point x="496" y="446"/>
      <point x="520" y="413"/>
      <point x="528" y="339" type="curve"/>
      <point x="505" y="305" type="line"/>
      <point x="521" y="280" type="line"/>
      <point x="477" y="253" type="line"/>
      <point x="411" y="154"/>
      <point x="337" y="94"/>
      <point x="237" y="62" type="curve"/>
      <point x="98" y="224"/>
      <point x="174" y="473"/>
      <point x="237" y="569" type="curve"/>
      <point x="230" y="624"/>
      <point x="168" y="630"/>
      <point x="112" y="602" type="curve"/>
      <point x="15" y="429"/>
      <point x="7" y="95"/>
      <point x="217" y="-8" type="curve"/>
      <point x="406" y="-5"/>
      <point x="590" y="207"/>
      <point x="626" y="356" type="curve"/>
      <point x="621" y="445"/>
      <point x="580" y="517"/>
      <point x="475" y="551" type="curve"/>
      <point x="398" y="545"/>
      <point x="338" y="518"/>
      <point x="300" y="473" type="curve"/>
      <point x="262" y="409"/>
      <point x="258" y="306"/>
      <point x="404" y="244" type="curve"/>
      <point x="466" y="270"/>
      <point x="531" y="304"/>
      <point x="569" y="324" type="curve"/>
    </contour>
  </outline>
</glyph>
<glyph name="dvEight" format="1">
  <advance width="534"/>
  <unicode hex="096E"/>
  <outline>
    <contour>
      <point x="472" y="266" type="curve"/>
      <point x="420" y="197"/>
      <point x="358" y="129"/>
      <point x="271" y="88" type="curve"/>
      <point x="195" y="112"/>
      <point x="152" y="165"/>
      <point x="142" y="231" type="curve"/>
      <point x="214" y="354"/>
      <point x="331" y="486"/>
      <point x="468" y="599" type="curve"/>
      <point x="462" y="628"/>
      <point x="451" y="644"/>
      <point x="419" y="641" type="curve"/>
      <point x="294" y="554"/>
      <point x="99" y="377"/>
      <point x="20" y="240" type="curve"/>
      <point x="29" y="129"/>
      <point x="148" y="7"/>
      <point x="259" y="7" type="curve"/>
      <point x="344" y="7"/>
      <point x="483" y="162"/>
      <point x="525" y="228" type="curve"/>
      <point x="522" y="253"/>
      <point x="511" y="263"/>
    </contour>
  </outline>
</glyph>
<glyph name="dvNine" format="1">
  <advance width="428"/>
  <unicode hex="096F"/>
  <outline>
    <contour>
      <point x="323" y="191" type="curve"/>
      <point x="292" y="258"/>
      <point x="202" y="372"/>
      <point x="171" y="450" type="curve"/>
      <point x="194" y="514"/>
      <point x="245" y="551"/>
      <point x="293" y="558" type="curve"/>
      <point x="332" y="536"/>
      <point x="331" y="472"/>
      <point x="309" y="423" type="curve"/>
      <point x="192" y="349" type="line"/>
      <point x="225" y="308" type="line"/>
      <point x="387" y="399" type="line"/>
      <point x="445" y="528"/>
      <point x="407" y="646"/>
      <point x="296" y="646" type="curve" smooth="yes"/>
      <point x="203" y="646"/>
      <point x="68" y="541"/>
      <point x="67" y="460" type="curve" smooth="yes"/>
      <point x="67" y="394"/>
      <point x="194" y="266"/>
      <point x="238" y="158" type="curve"/>
      <point x="234" y="140" type="line"/>
      <point x="181" y="78"/>
      <point x="99" y="28"/>
      <point x="6" y="-15" type="curve"/>
      <point x="-4" y="-38"/>
      <point x="3" y="-65"/>
      <point x="39" y="-73" type="curve"/>
      <point x="95" y="-54"/>
      <point x="221" y="22"/>
      <point x="296" y="87" type="curve"/>
      <point x="329" y="121"/>
      <point x="338" y="164"/>
    </contour>
  </outline>
</glyph>
<glyph name="indianrupee" format="1">
  <advance width="593"/>
  <unicode hex="20B9"/>
  <outline>
    <contour>
      <point x="84" y="304" type="curve"/>
      <point x="116" y="198"/>
      <point x="202" y="87"/>
      <point x="301" y="0" type="curve"/>
      <point x="382" y="1"/>
      <point x="421" y="55"/>
      <point x="413" y="113" type="curve"/>
      <point x="233" y="204" type="line"/>
      <point x="199" y="296" type="line"/>
      <point x="368" y="301"/>
      <point x="483" y="400"/>
      <point x="483" y="538" type="curve" smooth="yes"/>
      <point x="483" y="619"/>
      <point x="441" y="731"/>
      <point x="344" y="731" type="curve" smooth="yes"/>
      <point x="296" y="731"/>
      <point x="266" y="708"/>
      <point x="243" y="676" type="curve"/>
      <point x="325" y="659"/>
      <point x="353" y="601"/>
      <point x="353" y="528" type="curve" smooth="yes"/>
      <point x="353" y="477"/>
      <point x="336" y="423"/>
      <point x="284" y="380" type="curve"/>
      <point x="229" y="361"/>
      <point x="182" y="360"/>
      <point x="151" y="373" type="curve"/>
      <point x="115" y="363"/>
      <point x="101" y="346"/>
    </contour>
    <contour>
      <point x="632" y="713" type="curve"/>
      <point x="370" y="696" type="line"/>
      <point x="115" y="701" type="line"/>
      <point x="98" y="672"/>
      <point x="94" y="651"/>
      <point x="106" y="635" type="curve"/>
      <point x="619" y="644" type="line"/>
      <point x="641" y="676"/>
      <point x="645" y="703"/>
    </contour>
    <contour>
      <point x="603" y="552" type="curve"/>
      <point x="342" y="535" type="line"/>
      <point x="86" y="540" type="line"/>
      <point x="70" y="511"/>
      <point x="66" y="490"/>
      <point x="78" y="474" type="curve"/>
      <point x="591" y="482" type="line"/>
      <point x="613" y="516"/>
      <point x="617" y="541"/>
    </contour>
  </outline>
</glyph>
<glyph name="fi" format="1">
  <advance width="608"/>
  <unicode hex="FB01"/>
  <outline>
    <contour>
      <point x="436" y="348" type="line"/>
      <point x="415" y="243"/>
      <point x="388" y="146"/>
      <point x="350" y="42" type="curve"/>
      <point x="381" y="2"/>
      <point x="466" y="-12"/>
      <point x="517" y="14" type="curve"/>
      <point x="527" y="151"/>
      <point x="533" y="262"/>
      <point x="545" y="376" type="curve"/>
      <point x="586" y="515" type="line"/>
      <point x="549" y="544"/>
      <point x="503" y="541"/>
      <point x="431" y="508" type="curve"/>
    </contour>
    <contour>
      <point x="387" y="775" type="curve"/>
      <point x="424" y="744"/>
      <point x="438" y="694"/>
      <point x="437" y="621" type="curve"/>
      <point x="510" y="602"/>
      <point x="566" y="620"/>
      <point x="589" y="663" type="curve"/>
      <point x="564" y="758"/>
      <point x="517" y="835"/>
      <point x="405" y="853" type="curve"/>
      <point x="303" y="843"/>
      <point x="221" y="795"/>
      <point x="155" y="710" type="curve"/>
      <point x="172" y="469" type="line"/>
      <point x="144" y="318"/>
      <point x="103" y="173"/>
      <point x="53" y="39" type="curve"/>
      <point x="75" y="2"/>
      <point x="162" y="-12"/>
      <point x="217" y="14" type="curve"/>
      <point x="248" y="210"/>
      <point x="291" y="567"/>
      <point x="282" y="722" type="curve"/>
      <point x="313" y="751"/>
      <point x="352" y="769"/>
    </contour>
    <contour>
      <point x="187" y="465" type="line"/>
      <point x="31" y="466" type="line"/>
      <point x="6" y="432"/>
      <point x="6" y="403"/>
      <point x="30" y="376" type="curve"/>
      <point x="250" y="416" type="line"/>
      <point x="454" y="426" type="line"/>
      <point x="477" y="466"/>
      <point x="477" y="498"/>
      <point x="455" y="515" type="curve"/>
    </contour>
  </outline>
</glyph>
<glyph name="dvCH_NA" format="1">
  <advance width="1340"/>
  <outline>
    <contour>
      <point x="798" y="569" type="line"/>
      <point x="813" y="579"/>
      <point x="821" y="595"/>
      <point x="825" y="610" type="curve"/>
      <point x="813" y="623" type="line"/>
      <point x="24" y="623" type="line"/>
      <point x="9" y="613"/>
      <point x="-1" y="597"/>
      <point x="-7" y="584" type="curve"/>
      <point x="9" y="569" type="line"/>
    </contour>
    <contour>
      <point x="601" y="103" type="curve"/>
      <point x="611" y="193"/>
      <point x="503" y="328"/>
      <point x="512" y="410" type="curve" smooth="yes"/>
      <point x="516" y="422"/>
      <point x="523" y="430"/>
      <point x="532" y="433" type="curve"/>
      <point x="550" y="427"/>
      <point x="577" y="407"/>
      <point x="583" y="388" type="curve" smooth="yes"/>
      <point x="560" y="303"/>
      <point x="362" y="163"/>
      <point x="213" y="130" type="curve"/>
      <point x="203" y="139" type="line"/>
      <point x="243" y="194"/>
      <point x="302" y="258"/>
      <point x="355" y="299" type="curve"/>
      <point x="370" y="349"/>
      <point x="341" y="391"/>
      <point x="279" y="416" type="curve"/>
      <point x="243" y="406"/>
      <point x="196" y="391"/>
      <point x="161" y="387" type="curve"/>
      <point x="153" y="399" type="line"/>
      <point x="203" y="449"/>
      <point x="298" y="526"/>
      <point x="394" y="569" type="curve"/>
      <point x="352" y="616" type="line"/>
      <point x="230" y="578"/>
      <point x="106" y="499"/>
      <point x="36" y="430" type="curve"/>
      <point x="20" y="382"/>
      <point x="63" y="327"/>
      <point x="116" y="301" type="curve"/>
      <point x="162" y="309"/>
      <point x="212" y="325"/>
      <point x="247" y="337" type="curve"/>
      <point x="252" y="329" type="line"/>
      <point x="185" y="287"/>
      <point x="108" y="219"/>
      <point x="78" y="152" type="curve"/>
      <point x="78" y="96"/>
      <point x="135" y="53"/>
      <point x="198" y="34" type="curve"/>
      <point x="365" y="63"/>
      <point x="672" y="276"/>
      <point x="676" y="392" type="curve" smooth="yes"/>
      <point x="677" y="444"/>
      <point x="597" y="505"/>
      <point x="540" y="523" type="curve"/>
      <point x="493" y="519"/>
      <point x="443" y="480"/>
      <point x="421" y="447" type="curve"/>
      <point x="393" y="326"/>
      <point x="501" y="212"/>
      <point x="508" y="118" type="curve"/>
      <point x="474" y="64"/>
      <point x="393" y="25"/>
      <point x="325" y="-8" type="curve"/>
      <point x="307" y="-40"/>
      <point x="322" y="-77"/>
      <point x="387" y="-108" type="curve"/>
      <point x="479" y="-59"/>
      <point x="593" y="25"/>
    </contour>
    <contour>
      <point x="1468" y="569" type="line"/>
      <point x="1483" y="579"/>
      <point x="1491" y="595"/>
      <point x="1495" y="610" type="curve"/>
      <point x="1483" y="623" type="line"/>
      <point x="728" y="623" type="line"/>
      <point x="713" y="613"/>
      <point x="703" y="597"/>
      <point x="697" y="584" type="curve"/>
      <point x="713" y="569" type="line"/>
    </contour>
    <contour>
      <point x="1329" y="483" type="line"/>
      <point x="1304" y="520"/>
      <point x="1262" y="536"/>
      <point x="1178" y="530" type="curve"/>
      <point x="1156" y="457" type="line"/>
      <point x="1166" y="451" type="line"/>
      <point x="1071" y="41" type="line"/>
      <point x="1118" y="1"/>
      <point x="1191" y="-10"/>
      <point x="1232" y="11" type="curve"/>
      <point x="1263" y="372" type="line"/>
    </contour>
    <contour>
      <point x="871" y="332" type="line"/>
      <point x="889" y="292"/>
      <point x="896" y="250"/>
      <point x="885" y="208" type="curve"/>
      <point x="875" y="201" type="line"/>
      <point x="836" y="217"/>
      <point x="817" y="238"/>
      <point x="797" y="277" type="curve"/>
      <point x="787" y="248" type="line"/>
      <point x="915" y="322"/>
      <point x="1063" y="398"/>
      <point x="1205" y="486" type="curve"/>
      <point x="1178" y="530" type="line"/>
      <point x="1056" y="452"/>
      <point x="881" y="366"/>
      <point x="758" y="309" type="curve"/>
      <point x="733" y="290"/>
      <point x="721" y="257"/>
      <point x="724" y="215" type="curve"/>
      <point x="759" y="163"/>
      <point x="818" y="135"/>
      <point x="884" y="124" type="curve"/>
      <point x="926" y="127"/>
      <point x="978" y="148"/>
      <point x="994" y="176" type="curve"/>
      <point x="1006" y="238"/>
      <point x="1004" y="314"/>
      <point x="978" y="376" type="curve"/>
    </contour>
  </outline>
</glyph>
<glyph name="dvCH_R_YA" format="1">
  <advance width="1306"/>
  <outline>
    <contour>
      <point x="343" y="-197" type="curve"/>
      <point x="297" y="-145"/>
      <point x="285" y="-107"/>
      <point x="275" y="-27" type="curve"/>
      <point x="243" y="2"/>
      <point x="222" y="11"/>
      <point x="177" y="8" type="curve"/>
      <point x="114" y="-31"/>
      <point x="48" y="-107"/>
      <point x="-3" y="-190" type="curve"/>
      <point x="-3" y="-221"/>
      <point x="23" y="-254"/>
      <point x="91" y="-248" type="curve"/>
      <point x="118" y="-165"/>
      <point x="150" y="-108"/>
      <point x="202" y="-62" type="curve"/>
      <point x="208" y="-65" type="line"/>
      <point x="207" y="-132"/>
      <point x="237" y="-198"/>
      <point x="286" y="-249" type="curve"/>
      <point x="324" y="-244"/>
      <point x="344" y="-227"/>
    </contour>
    <contour>
      <point x="1331" y="609" type="line"/>
      <point x="1309" y="645"/>
      <point x="1269" y="660"/>
      <point x="1178" y="653" type="curve"/>
      <point x="1099" y="299" type="line"/>
      <point x="1121" y="277" type="line"/>
      <point x="1079" y="210" type="line"/>
      <point x="1039" y="41" type="line"/>
      <point x="1087" y="1"/>
      <point x="1159" y="-10"/>
      <point x="1200" y="11" type="curve"/>
      <point x="1242" y="431" type="line"/>
    </contour>
    <contour>
      <point x="1434" y="569" type="line"/>
      <point x="1449" y="579"/>
      <point x="1457" y="595"/>
      <point x="1461" y="610" type="curve"/>
      <point x="1449" y="623" type="line"/>
      <point x="667" y="623" type="line"/>
      <point x="652" y="613"/>
      <point x="642" y="597"/>
      <point x="636" y="584" type="curve"/>
      <point x="652" y="569" type="line"/>
    </contour>
    <contour>
      <point x="736" y="562" type="curve"/>
      <point x="721" y="529"/>
      <point x="750" y="496"/>
      <point x="803" y="483" type="curve"/>
      <point x="833" y="504"/>
      <point x="862" y="520"/>
      <point x="893" y="523" type="curve" smooth="yes"/>
      <point x="914" y="525"/>
      <point x="938" y="519"/>
      <point x="947" y="505" type="curve" smooth="yes"/>
      <point x="938" y="399"/>
      <point x="672" y="340"/>
      <point x="672" y="263" type="curve" smooth="yes"/>
      <point x="672" y="201"/>
      <point x="783" y="120"/>
      <point x="848" y="120" type="curve" smooth="yes"/>
      <point x="922" y="120"/>
      <point x="1099" y="251"/>
      <point x="1162" y="356" type="curve"/>
      <point x="1120" y="392" type="line"/>
      <point x="1063" y="308"/>
      <point x="958" y="230"/>
      <point x="894" y="212" type="curve" smooth="yes"/>
      <point x="863" y="212"/>
      <point x="819" y="247"/>
      <point x="823" y="276" type="curve" smooth="yes"/>
      <point x="866" y="332"/>
      <point x="1061" y="429"/>
      <point x="1061" y="522" type="curve" smooth="yes"/>
      <point x="1061" y="569"/>
      <point x="985" y="623"/>
      <point x="905" y="623" type="curve" smooth="yes"/>
      <point x="855" y="623"/>
      <point x="778" y="598"/>
    </contour>
    <contour>
      <point x="798" y="569" type="line"/>
      <point x="813" y="579"/>
      <point x="821" y="595"/>
      <point x="825" y="610" type="curve"/>
      <point x="813" y="623" type="line"/>
      <point x="24" y="623" type="line"/>
      <point x="9" y="613"/>
      <point x="-1" y="597"/>
      <point x="-7" y="584" type="curve"/>
      <point x="9" y="569" type="line"/>
    </contour>
    <contour>
      <point x="601" y="103" type="curve"/>
      <point x="611" y="193"/>
      <point x="503" y="328"/>
      <point x="512" y="410" type="curve" smooth="yes"/>
      <point x="516" y="422"/>
      <point x="523" y="430"/>
      <point x="532" y="433" type="curve"/>
      <point x="550" y="427"/>
      <point x="577" y="407"/>
      <point x="583" y="388" type="curve" smooth="yes"/>
      <point x="560" y="303"/>
      <point x="362" y="163"/>
      <point x="213" y="130" type="curve"/>
      <point x="203" y="139" type="line"/>
      <point x="243" y="194"/>
      <point x="302" y="258"/>
      <point x="355" y="299" type="curve"/>
      <point x="370" y="349"/>
      <point x="341" y="391"/>
      <point x="279" y="416" type="curve"/>
      <point x="243" y="406"/>
      <point x="196" y="391"/>
      <point x="161" y="387" type="curve"/>
      <point x="153" y="399" type="line"/>
      <point x="203" y="449"/>
      <point x="298" y="526"/>
      <point x="394" y="569" type="curve"/>
      <point x="352" y="616" type="line"/>
      <point x="230" y="578"/>
      <point x="106" y="499"/>
      <point x="36" y="430" type="curve"/>
      <point x="20" y="382"/>
      <point x="63" y="327"/>
      <point x="116" y="301" type="curve"/>
      <point x="162" y="309"/>
      <point x="212" y="325"/>
      <point x="247" y="337" type="curve"/>
      <point x="252" y="329" type="line"/>
      <point x="185" y="287"/>
      <point x="108" y="219"/>
      <point x="78" y="152" type="curve"/>
      <point x="78" y="96"/>
      <point x="135" y="53"/>
      <point x="198" y="34" type="curve"/>
      <point x="365" y="63"/>
      <point x="672" y="276"/>
      <point x="676" y="392" type="curve" smooth="yes"/>
      <point x="677" y="444"/>
      <point x="597" y="505"/>
      <point x="540" y="523" type="curve"/>
      <point x="493" y="519"/>
      <point x="443" y="480"/>
      <point x="421" y="447" type="curve"/>
      <point x="393" y="326"/>
      <point x="501" y="212"/>
      <point x="508" y="118" type="curve"/>
      <point x="474" y="64"/>
      <point x="393" y="25"/>
      <point x="325" y="-8" type="curve"/>
      <point x="307" y="-40"/>
      <point x="322" y="-77"/>
      <point x="387" y="-108" type="curve"/>
      <point x="479" y="-59"/>
      <point x="593" y="25"/>
    </contour>
  </outline>
</glyph>
<glyph name="dvCH_VA" format="1">
  <advance width="719"/>
  <outline>
    <contour>
      <point x="352" y="-239" type="move" name="blwm"/>
    </contour>
    <contour>
      <point x="517" y="640" type="move" name="abvm_Ekaar"/>
    </contour>
    <contour>
      <point x="798" y="569" type="line"/>
      <point x="813" y="579"/>
      <point x="821" y="595"/>
      <point x="825" y="610" type="curve"/>
      <point x="813" y="623" type="line"/>
      <point x="24" y="623" type="line"/>
      <point x="9" y="613"/>
      <point x="-1" y="597"/>
      <point x="-7" y="584" type="curve"/>
      <point x="9" y="569" type="line"/>
    </contour>
    <contour>
      <point x="569" y="137" type="curve"/>
      <point x="553" y="273"/>
      <point x="486" y="396"/>
      <point x="503" y="472" type="curve"/>
      <point x="507" y="483"/>
      <point x="513" y="491"/>
      <point x="521" y="493" type="curve"/>
      <point x="538" y="487"/>
      <point x="564" y="468"/>
      <point x="568" y="450" type="curve"/>
      <point x="542" y="368"/>
      <point x="361" y="204"/>
      <point x="206" y="164" type="curve"/>
      <point x="199" y="172" type="line"/>
      <point x="236" y="222"/>
      <point x="290" y="275"/>
      <point x="343" y="313" type="curve"/>
      <point x="355" y="376"/>
      <point x="321" y="405"/>
      <point x="275" y="422" type="curve"/>
      <point x="240" y="413"/>
      <point x="200" y="404"/>
      <point x="166" y="399" type="curve"/>
      <point x="161" y="409" type="line"/>
      <point x="213" y="458"/>
      <point x="295" y="527"/>
      <point x="392" y="569" type="curve"/>
      <point x="352" y="618" type="line"/>
      <point x="228" y="580"/>
      <point x="117" y="502"/>
      <point x="43" y="435" type="curve"/>
      <point x="26" y="388"/>
      <point x="64" y="339"/>
      <point x="116" y="314" type="curve"/>
      <point x="159" y="324"/>
      <point x="204" y="338"/>
      <point x="239" y="349" type="curve"/>
      <point x="244" y="341" type="line"/>
      <point x="179" y="302"/>
      <point x="104" y="240"/>
      <point x="72" y="180" type="curve"/>
      <point x="69" y="126"/>
      <point x="123" y="87"/>
      <point x="183" y="69" type="curve"/>
      <point x="362" y="109"/>
      <point x="653" y="341"/>
      <point x="662" y="453" type="curve"/>
      <point x="665" y="506"/>
      <point x="589" y="566"/>
      <point x="533" y="583" type="curve"/>
      <point x="485" y="579"/>
      <point x="435" y="541"/>
      <point x="412" y="508" type="curve"/>
      <point x="387" y="386"/>
      <point x="469" y="281"/>
      <point x="489" y="136" type="curve"/>
      <point x="463" y="27"/>
      <point x="408" y="-135"/>
      <point x="356" y="-234" type="curve"/>
      <point x="357" y="-265"/>
      <point x="392" y="-280"/>
      <point x="438" y="-277" type="curve"/>
      <point x="489" y="-153"/>
      <point x="547" y="17"/>
    </contour>
    <contour>
      <point x="378" y="106" type="curve"/>
      <point x="268" y="106"/>
      <point x="157" y="-3"/>
      <point x="147" y="-105" type="curve"/>
      <point x="140" y="-181"/>
      <point x="198" y="-229"/>
      <point x="292" y="-230" type="curve"/>
      <point x="350" y="-175"/>
      <point x="408" y="-128"/>
      <point x="463" y="-75" type="curve"/>
      <point x="433" y="-48" type="line"/>
      <point x="388" y="-87"/>
      <point x="333" y="-127"/>
      <point x="292" y="-163" type="curve"/>
      <point x="271" y="-152"/>
      <point x="264" y="-130"/>
      <point x="267" y="-99" type="curve"/>
      <point x="274" y="-39"/>
      <point x="326" y="26"/>
      <point x="380" y="38" type="curve"/>
      <point x="407" y="28"/>
      <point x="426" y="2"/>
      <point x="440" y="-29" type="curve"/>
      <point x="482" y="-3" type="line"/>
      <point x="461" y="39"/>
      <point x="417" y="106"/>
    </contour>
  </outline>
</glyph>
<glyph name="dvCH_YA" format="1">
  <advance width="1368"/>
  <outline>
    <contour>
      <point x="798" y="569" type="line"/>
      <point x="813" y="579"/>
      <point x="821" y="595"/>
      <point x="825" y="610" type="curve"/>
      <point x="813" y="623" type="line"/>
      <point x="24" y="623" type="line"/>
      <point x="9" y="613"/>
      <point x="-1" y="597"/>
      <point x="-7" y="584" type="curve"/>
      <point x="9" y="569" type="line"/>
    </contour>
    <contour>
      <point x="601" y="103" type="curve"/>
      <point x="611" y="193"/>
      <point x="503" y="328"/>
      <point x="512" y="410" type="curve" smooth="yes"/>
      <point x="516" y="422"/>
      <point x="523" y="430"/>
      <point x="532" y="433" type="curve"/>
      <point x="550" y="427"/>
      <point x="577" y="407"/>
      <point x="583" y="388" type="curve" smooth="yes"/>
      <point x="560" y="303"/>
      <point x="362" y="163"/>
      <point x="213" y="130" type="curve"/>
      <point x="203" y="139" type="line"/>
      <point x="243" y="194"/>
      <point x="302" y="258"/>
      <point x="355" y="299" type="curve"/>
      <point x="370" y="349"/>
      <point x="341" y="391"/>
      <point x="279" y="416" type="curve"/>
      <point x="243" y="406"/>
      <point x="196" y="391"/>
      <point x="161" y="387" type="curve"/>
      <point x="153" y="399" type="line"/>
      <point x="203" y="449"/>
      <point x="298" y="526"/>
      <point x="394" y="569" type="curve"/>
      <point x="352" y="616" type="line"/>
      <point x="230" y="578"/>
      <point x="106" y="499"/>
      <point x="36" y="430" type="curve"/>
      <point x="20" y="382"/>
      <point x="63" y="327"/>
      <point x="116" y="301" type="curve"/>
      <point x="162" y="309"/>
      <point x="212" y="325"/>
      <point x="247" y="337" type="curve"/>
      <point x="252" y="329" type="line"/>
      <point x="185" y="287"/>
      <point x="108" y="219"/>
      <point x="78" y="152" type="curve"/>
      <point x="78" y="96"/>
      <point x="135" y="53"/>
      <point x="198" y="34" type="curve"/>
      <point x="365" y="63"/>
      <point x="672" y="276"/>
      <point x="676" y="392" type="curve" smooth="yes"/>
      <point x="677" y="444"/>
      <point x="597" y="505"/>
      <point x="540" y="523" type="curve"/>
      <point x="493" y="519"/>
      <point x="443" y="480"/>
      <point x="421" y="447" type="curve"/>
      <point x="393" y="326"/>
      <point x="501" y="212"/>
      <point x="508" y="118" type="curve"/>
      <point x="474" y="64"/>
      <point x="393" y="25"/>
      <point x="325" y="-8" type="curve"/>
      <point x="307" y="-40"/>
      <point x="322" y="-77"/>
      <point x="387" y="-108" type="curve"/>
      <point x="479" y="-59"/>
      <point x="593" y="25"/>
    </contour>
    <contour>
      <point x="1393" y="609" type="line"/>
      <point x="1370" y="645"/>
      <point x="1331" y="660"/>
      <point x="1240" y="653" type="curve"/>
      <point x="1160" y="299" type="line"/>
      <point x="1183" y="277" type="line"/>
      <point x="1141" y="210" type="line"/>
      <point x="1101" y="41" type="line"/>
      <point x="1148" y="1"/>
      <point x="1221" y="-10"/>
      <point x="1262" y="11" type="curve"/>
      <point x="1304" y="431" type="line"/>
    </contour>
    <contour>
      <point x="1496" y="569" type="line"/>
      <point x="1511" y="579"/>
      <point x="1519" y="595"/>
      <point x="1523" y="610" type="curve"/>
      <point x="1511" y="623" type="line"/>
      <point x="729" y="623" type="line"/>
      <point x="714" y="613"/>
      <point x="703" y="597"/>
      <point x="698" y="584" type="curve"/>
      <point x="714" y="569" type="line"/>
    </contour>
    <contour>
      <point x="798" y="562" type="curve"/>
      <point x="783" y="529"/>
      <point x="812" y="496"/>
      <point x="865" y="483" type="curve"/>
      <point x="894" y="504"/>
      <point x="923" y="520"/>
      <point x="955" y="523" type="curve" smooth="yes"/>
      <point x="975" y="525"/>
      <point x="1000" y="519"/>
      <point x="1009" y="505" type="curve" smooth="yes"/>
      <point x="1000" y="399"/>
      <point x="734" y="340"/>
      <point x="734" y="263" type="curve" smooth="yes"/>
      <point x="734" y="201"/>
      <point x="845" y="120"/>
      <point x="910" y="120" type="curve" smooth="yes"/>
      <point x="984" y="120"/>
      <point x="1161" y="251"/>
      <point x="1224" y="356" type="curve"/>
      <point x="1182" y="392" type="line"/>
      <point x="1124" y="308"/>
      <point x="1020" y="230"/>
      <point x="956" y="212" type="curve" smooth="yes"/>
      <point x="924" y="212"/>
      <point x="881" y="247"/>
      <point x="885" y="276" type="curve" smooth="yes"/>
      <point x="927" y="332"/>
      <point x="1123" y="429"/>
      <point x="1123" y="522" type="curve" smooth="yes"/>
      <point x="1123" y="569"/>
      <point x="1047" y="623"/>
      <point x="967" y="623" type="curve" smooth="yes"/>
      <point x="917" y="623"/>
      <point x="839" y="598"/>
    </contour>
  </outline>
</glyph>
<glyph name="dvDDH_R" format="1">
  <advance width="594"/>
  <outline>
    <contour>
      <point x="387" y="-140" type="curve"/>
      <point x="356" y="-94"/>
      <point x="351" y="-69"/>
      <point x="349" y="-14" type="curve"/>
      <point x="319" y="13"/>
      <point x="296" y="22"/>
      <point x="248" y="19" type="curve"/>
      <point x="188" y="-14"/>
      <point x="136" y="-62"/>
      <point x="91" y="-122" type="curve"/>
      <point x="90" y="-148"/>
      <point x="112" y="-177"/>
      <point x="183" y="-174" type="curve"/>
      <point x="212" y="-110"/>
      <point x="236" y="-76"/>
      <point x="271" y="-44" type="curve"/>
      <point x="276" y="-46" type="line"/>
      <point x="276" y="-93"/>
      <point x="288" y="-134"/>
      <point x="324" y="-181" type="curve"/>
      <point x="366" y="-175"/>
      <point x="385" y="-161"/>
    </contour>
    <contour>
      <point x="712" y="569" type="line"/>
      <point x="726" y="579"/>
      <point x="734" y="595"/>
      <point x="738" y="610" type="curve"/>
      <point x="726" y="623" type="line"/>
      <point x="31" y="623" type="line"/>
      <point x="16" y="613"/>
      <point x="6" y="597"/>
      <point x="0" y="584" type="curve"/>
      <point x="16" y="569" type="line"/>
    </contour>
    <contour>
      <point x="309" y="614" type="curve"/>
      <point x="264" y="576" type="line"/>
      <point x="311" y="547"/>
      <point x="343" y="529"/>
      <point x="366" y="494" type="curve"/>
      <point x="362" y="484" type="line"/>
      <point x="296" y="433"/>
      <point x="156" y="376"/>
      <point x="70" y="325" type="curve"/>
      <point x="41" y="300"/>
      <point x="29" y="265"/>
      <point x="29" y="226" type="curve"/>
      <point x="63" y="135"/>
      <point x="174" y="51"/>
      <point x="283" y="47" type="curve"/>
      <point x="371" y="47"/>
      <point x="550" y="137"/>
      <point x="550" y="210" type="curve"/>
      <point x="550" y="250"/>
      <point x="477" y="314"/>
      <point x="382" y="313" type="curve"/>
      <point x="309" y="258"/>
      <point x="248" y="213"/>
      <point x="170" y="156" type="curve"/>
      <point x="207" y="115" type="line"/>
      <point x="278" y="163"/>
      <point x="338" y="207"/>
      <point x="381" y="233" type="curve"/>
      <point x="398" y="227"/>
      <point x="414" y="215"/>
      <point x="422" y="202" type="curve"/>
      <point x="404" y="159"/>
      <point x="352" y="123"/>
      <point x="286" y="111" type="curve"/>
      <point x="224" y="135"/>
      <point x="169" y="189"/>
      <point x="169" y="235" type="curve"/>
      <point x="169" y="291"/>
      <point x="369" y="354"/>
      <point x="447" y="425" type="curve"/>
      <point x="473" y="456"/>
      <point x="485" y="484"/>
      <point x="474" y="513" type="curve"/>
      <point x="435" y="555"/>
      <point x="372" y="582"/>
    </contour>
    <contour>
      <point x="361" y="-388" type="curve"/>
      <point x="383" y="-374"/>
      <point x="392" y="-360"/>
      <point x="389" y="-341" type="curve"/>
      <point x="323" y="-280"/>
      <point x="211" y="-214"/>
      <point x="123" y="-192" type="curve"/>
      <point x="84" y="-200"/>
      <point x="66" y="-231"/>
      <point x="74" y="-282" type="curve"/>
      <point x="185" y="-303"/>
      <point x="270" y="-335"/>
    </contour>
  </outline>
</glyph>
<glyph name="dvDD_NA" format="1">
  <advance width="503"/>
  <outline>
    <contour>
      <point x="244" y="-248" type="move" name="blwm"/>
    </contour>
    <contour>
      <point x="216" y="640" type="move" name="abvm_Ekaar"/>
    </contour>
    <contour>
      <point x="634" y="569" type="line"/>
      <point x="649" y="579"/>
      <point x="657" y="595"/>
      <point x="661" y="610" type="curve"/>
      <point x="649" y="623" type="line"/>
      <point x="20" y="623" type="line"/>
      <point x="6" y="613"/>
      <point x="-4" y="597"/>
      <point x="-10" y="584" type="curve"/>
      <point x="6" y="569" type="line"/>
    </contour>
    <contour>
      <point x="307" y="609" type="curve"/>
      <point x="267" y="573" type="line"/>
      <point x="308" y="559"/>
      <point x="354" y="542"/>
      <point x="379" y="518" type="curve"/>
      <point x="376" y="512" type="line"/>
      <point x="312" y="485"/>
      <point x="237" y="474"/>
      <point x="156" y="461" type="curve"/>
      <point x="103" y="434"/>
      <point x="83" y="377"/>
      <point x="104" y="337" type="curve"/>
      <point x="181" y="300"/>
      <point x="287" y="293"/>
      <point x="363" y="261" type="curve"/>
      <point x="363" y="255" type="line"/>
      <point x="283" y="214"/>
      <point x="154" y="204"/>
      <point x="56" y="204" type="curve"/>
      <point x="25" y="181"/>
      <point x="35" y="134"/>
      <point x="82" y="101" type="curve"/>
      <point x="208" y="107"/>
      <point x="369" y="140"/>
      <point x="438" y="181" type="curve"/>
      <point x="470" y="226"/>
      <point x="478" y="281"/>
      <point x="445" y="306" type="curve"/>
      <point x="376" y="334"/>
      <point x="270" y="346"/>
      <point x="207" y="372" type="curve"/>
      <point x="209" y="378" type="line"/>
      <point x="276" y="394"/>
      <point x="364" y="407"/>
      <point x="426" y="435" type="curve"/>
      <point x="459" y="461"/>
      <point x="475" y="509"/>
      <point x="464" y="535" type="curve"/>
      <point x="422" y="575"/>
      <point x="368" y="594"/>
    </contour>
    <contour>
      <point x="316" y="188" type="line"/>
      <point x="281" y="34" type="line"/>
      <point x="297" y="-2" type="line"/>
      <point x="266" y="-30" type="line"/>
      <point x="211" y="-243" type="line"/>
      <point x="250" y="-275"/>
      <point x="308" y="-286"/>
      <point x="344" y="-267" type="curve"/>
      <point x="366" y="33" type="line"/>
      <point x="429" y="186" type="line"/>
    </contour>
    <contour>
      <point x="85" y="-42" type="line"/>
      <point x="101" y="-68"/>
      <point x="111" y="-107"/>
      <point x="104" y="-141" type="curve"/>
      <point x="96" y="-145" type="line"/>
      <point x="67" y="-135"/>
      <point x="43" y="-115"/>
      <point x="25" y="-77" type="curve"/>
      <point x="13" y="-97" type="line"/>
      <point x="124" y="-54"/>
      <point x="225" y="-22"/>
      <point x="337" y="27" type="curve"/>
      <point x="324" y="80" type="line"/>
      <point x="226" y="35"/>
      <point x="112" y="-11"/>
      <point x="-4" y="-36" type="curve"/>
      <point x="-24" y="-52"/>
      <point x="-40" y="-79"/>
      <point x="-41" y="-108" type="curve"/>
      <point x="-16" y="-165"/>
      <point x="24" y="-190"/>
      <point x="81" y="-201" type="curve"/>
      <point x="135" y="-194"/>
      <point x="156" y="-182"/>
      <point x="175" y="-152" type="curve"/>
      <point x="186" y="-98"/>
      <point x="183" y="-52"/>
      <point x="159" y="-11" type="curve"/>
    </contour>
  </outline>
</glyph>
<glyph name="dvD_YA" format="1">
  <advance width="676"/>
  <outline>
    <contour>
      <point x="689" y="609" type="line"/>
      <point x="667" y="645"/>
      <point x="628" y="660"/>
      <point x="537" y="653" type="curve"/>
      <point x="453" y="283" type="line"/>
      <point x="476" y="258" type="line"/>
      <point x="436" y="208" type="line"/>
      <point x="398" y="41" type="line"/>
      <point x="445" y="1"/>
      <point x="517" y="-10"/>
      <point x="559" y="11" type="curve"/>
      <point x="600" y="431" type="line"/>
    </contour>
    <contour>
      <point x="792" y="569" type="line"/>
      <point x="807" y="579"/>
      <point x="815" y="595"/>
      <point x="819" y="610" type="curve"/>
      <point x="807" y="623" type="line"/>
      <point x="21" y="623" type="line"/>
      <point x="6" y="613"/>
      <point x="-4" y="597"/>
      <point x="-10" y="584" type="curve"/>
      <point x="6" y="569" type="line"/>
    </contour>
    <contour>
      <point x="165" y="378" type="line"/>
      <point x="226" y="405"/>
      <point x="286" y="439"/>
      <point x="331" y="470" type="curve"/>
      <point x="351" y="494"/>
      <point x="360" y="517"/>
      <point x="353" y="539" type="curve"/>
      <point x="320" y="569"/>
      <point x="282" y="587"/>
      <point x="234" y="602" type="curve"/>
      <point x="193" y="570" type="line"/>
      <point x="223" y="557"/>
      <point x="246" y="541"/>
      <point x="260" y="527" type="curve"/>
      <point x="257" y="519" type="line"/>
      <point x="157" y="442"/>
      <point x="38" y="436"/>
      <point x="38" y="391" type="curve" smooth="yes"/>
      <point x="38" y="352"/>
      <point x="73" y="311"/>
      <point x="118" y="294" type="curve"/>
      <point x="172" y="303"/>
      <point x="222" y="317"/>
      <point x="262" y="331" type="curve"/>
      <point x="268" y="325" type="line"/>
      <point x="171" y="253"/>
      <point x="63" y="216"/>
      <point x="63" y="178" type="curve" smooth="yes"/>
      <point x="63" y="138"/>
      <point x="114" y="96"/>
      <point x="189" y="84" type="curve"/>
      <point x="302" y="122"/>
      <point x="460" y="247"/>
      <point x="520" y="338" type="curve"/>
      <point x="475" y="376" type="line"/>
      <point x="421" y="300"/>
      <point x="315" y="213"/>
      <point x="213" y="174" type="curve"/>
      <point x="206" y="183" type="line"/>
      <point x="254" y="226"/>
      <point x="309" y="267"/>
      <point x="354" y="305" type="curve"/>
      <point x="359" y="358"/>
      <point x="328" y="390"/>
      <point x="289" y="401" type="curve"/>
      <point x="251" y="387"/>
      <point x="213" y="377"/>
      <point x="172" y="369" type="curve"/>
    </contour>
  </outline>
</glyph>
<glyph name="dvD_Y_BHA" format="1">
  <advance width="994"/>
  <outline>
    <contour>
      <point x="513" y="569" type="line"/>
      <point x="527" y="579"/>
      <point x="535" y="595"/>
      <point x="539" y="610" type="curve"/>
      <point x="527" y="623" type="line"/>
      <point x="21" y="623" type="line"/>
      <point x="6" y="613"/>
      <point x="-4" y="597"/>
      <point x="-10" y="584" type="curve"/>
      <point x="6" y="569" type="line"/>
    </contour>
    <contour>
      <point x="398" y="291" type="line"/>
      <point x="346" y="244"/>
      <point x="280" y="200"/>
      <point x="213" y="174" type="curve"/>
      <point x="206" y="183" type="line"/>
      <point x="254" y="226"/>
      <point x="309" y="267"/>
      <point x="354" y="305" type="curve"/>
      <point x="359" y="358"/>
      <point x="328" y="390"/>
      <point x="289" y="401" type="curve"/>
      <point x="251" y="387"/>
      <point x="213" y="377"/>
      <point x="172" y="369" type="curve"/>
      <point x="165" y="378" type="line"/>
      <point x="226" y="405"/>
      <point x="286" y="439"/>
      <point x="331" y="470" type="curve"/>
      <point x="351" y="494"/>
      <point x="360" y="517"/>
      <point x="353" y="539" type="curve"/>
      <point x="320" y="569"/>
      <point x="282" y="587"/>
      <point x="234" y="602" type="curve"/>
      <point x="193" y="570" type="line"/>
      <point x="223" y="557"/>
      <point x="246" y="541"/>
      <point x="260" y="527" type="curve"/>
      <point x="257" y="519" type="line"/>
      <point x="157" y="442"/>
      <point x="38" y="436"/>
      <point x="38" y="391" type="curve" smooth="yes"/>
      <point x="38" y="352"/>
      <point x="73" y="311"/>
      <point x="118" y="294" type="curve"/>
      <point x="172" y="303"/>
      <point x="222" y="317"/>
      <point x="262" y="331" type="curve"/>
      <point x="268" y="325" type="line"/>
      <point x="171" y="253"/>
      <point x="63" y="216"/>
      <point x="63" y="178" type="curve" smooth="yes"/>
      <point x="63" y="138"/>
      <point x="114" y="96"/>
      <point x="189" y="84" type="curve"/>
      <point x="270" y="112"/>
      <point x="370" y="181"/>
      <point x="443" y="251" type="curve"/>
    </contour>
    <contour>
      <point x="1008" y="483" type="line"/>
      <point x="983" y="520"/>
      <point x="941" y="536"/>
      <point x="857" y="530" type="curve"/>
      <point x="835" y="457" type="line"/>
      <point x="845" y="451" type="line"/>
      <point x="750" y="41" type="line"/>
      <point x="798" y="1"/>
      <point x="870" y="-10"/>
      <point x="911" y="11" type="curve"/>
      <point x="942" y="372" type="line"/>
    </contour>
    <contour>
      <point x="1122" y="569" type="line"/>
      <point x="1137" y="579"/>
      <point x="1145" y="595"/>
      <point x="1149" y="610" type="curve"/>
      <point x="1137" y="623" type="line"/>
      <point x="837" y="623" type="line"/>
      <point x="822" y="613"/>
      <point x="812" y="597"/>
      <point x="806" y="584" type="curve"/>
      <point x="822" y="569" type="line"/>
    </contour>
    <contour>
      <point x="634" y="611" type="line"/>
      <point x="629" y="572"/>
      <point x="621" y="524"/>
      <point x="613" y="480" type="curve"/>
      <point x="626" y="460" type="line"/>
      <point x="604" y="430" type="line"/>
      <point x="590" y="356"/>
      <point x="568" y="284"/>
      <point x="542" y="210" type="curve"/>
      <point x="532" y="204" type="line"/>
      <point x="497" y="219"/>
      <point x="476" y="237"/>
      <point x="456" y="274" type="curve"/>
      <point x="434" y="237" type="line"/>
      <point x="595" y="319"/>
      <point x="738" y="394"/>
      <point x="881" y="483" type="curve"/>
      <point x="857" y="530" type="line"/>
      <point x="731" y="448"/>
      <point x="555" y="362"/>
      <point x="411" y="299" type="curve"/>
      <point x="383" y="287"/>
      <point x="373" y="250"/>
      <point x="372" y="224" type="curve"/>
      <point x="401" y="172"/>
      <point x="460" y="133"/>
      <point x="519" y="122" type="curve"/>
      <point x="560" y="121"/>
      <point x="617" y="137"/>
      <point x="648" y="166" type="curve"/>
      <point x="699" y="321"/>
      <point x="737" y="518"/>
      <point x="753" y="671" type="curve"/>
      <point x="734" y="702"/>
      <point x="690" y="721"/>
      <point x="640" y="720" type="curve"/>
      <point x="593" y="672"/>
      <point x="489" y="606"/>
      <point x="430" y="577" type="curve"/>
      <point x="413" y="565"/>
      <point x="402" y="536"/>
      <point x="400" y="513" type="curve" smooth="yes"/>
      <point x="412" y="478"/>
      <point x="460" y="438"/>
      <point x="519" y="424" type="curve"/>
      <point x="647" y="479" type="line"/>
      <point x="629" y="513" type="line"/>
      <point x="528" y="487" type="line"/>
      <point x="514" y="491"/>
      <point x="499" y="510"/>
      <point x="494" y="520" type="curve"/>
      <point x="539" y="551"/>
      <point x="587" y="585"/>
      <point x="626" y="614" type="curve"/>
    </contour>
  </outline>
</glyph>
<glyph name="dvD_Y_RA" format="1">
  <advance width="664"/>
  <outline>
    <contour>
      <point x="792" y="569" type="line"/>
      <point x="807" y="579"/>
      <point x="815" y="595"/>
      <point x="819" y="610" type="curve"/>
      <point x="807" y="623" type="line"/>
      <point x="21" y="623" type="line"/>
      <point x="6" y="613"/>
      <point x="-4" y="597"/>
      <point x="-10" y="584" type="curve"/>
      <point x="6" y="569" type="line"/>
    </contour>
    <contour>
      <point x="165" y="383" type="line"/>
      <point x="226" y="410"/>
      <point x="286" y="441"/>
      <point x="331" y="472" type="curve"/>
      <point x="351" y="497"/>
      <point x="360" y="517"/>
      <point x="353" y="539" type="curve"/>
      <point x="320" y="569"/>
      <point x="282" y="587"/>
      <point x="234" y="602" type="curve"/>
      <point x="193" y="570" type="line"/>
      <point x="223" y="557"/>
      <point x="246" y="541"/>
      <point x="260" y="527" type="curve"/>
      <point x="257" y="519" type="line"/>
      <point x="146" y="436"/>
      <point x="38" y="436"/>
      <point x="38" y="388" type="curve" smooth="yes"/>
      <point x="38" y="352"/>
      <point x="73" y="314"/>
      <point x="118" y="296" type="curve"/>
      <point x="172" y="305"/>
      <point x="222" y="319"/>
      <point x="262" y="334" type="curve"/>
      <point x="268" y="327" type="line"/>
      <point x="177" y="259"/>
      <point x="72" y="221"/>
      <point x="72" y="181" type="curve" smooth="yes"/>
      <point x="72" y="144"/>
      <point x="127" y="108"/>
      <point x="189" y="95" type="curve"/>
      <point x="320" y="140"/>
      <point x="477" y="270"/>
      <point x="536" y="360" type="curve"/>
      <point x="491" y="398" type="line"/>
      <point x="440" y="315"/>
      <point x="316" y="212"/>
      <point x="213" y="177" type="curve"/>
      <point x="206" y="185" type="line"/>
      <point x="254" y="228"/>
      <point x="309" y="270"/>
      <point x="354" y="308" type="curve"/>
      <point x="359" y="360"/>
      <point x="328" y="394"/>
      <point x="289" y="406" type="curve"/>
      <point x="251" y="391"/>
      <point x="213" y="382"/>
      <point x="172" y="373" type="curve"/>
    </contour>
    <contour>
      <point x="129" y="32" type="curve"/>
      <point x="116" y="-3"/>
      <point x="133" y="-33"/>
      <point x="185" y="-55" type="curve"/>
      <point x="280" y="-1"/>
      <point x="399" y="85"/>
      <point x="455" y="149" type="curve"/>
      <point x="464" y="142" type="line"/>
      <point x="419" y="34" type="line"/>
      <point x="463" y="1"/>
      <point x="528" y="-9"/>
      <point x="570" y="11" type="curve"/>
      <point x="612" y="431" type="line"/>
      <point x="701" y="609" type="line"/>
      <point x="679" y="645"/>
      <point x="639" y="660"/>
      <point x="548" y="653" type="curve"/>
      <point x="468" y="302" type="line"/>
      <point x="493" y="277" type="line"/>
      <point x="427" y="177"/>
      <point x="279" y="86"/>
    </contour>
  </outline>
</glyph>
<glyph name="dvEyelash_HA" format="1">
  <advance width="621"/>
  <outline>
    <contour>
      <point x="395" y="569" type="line"/>
      <point x="409" y="579"/>
      <point x="417" y="595"/>
      <point x="421" y="610" type="curve"/>
      <point x="409" y="623" type="line"/>
      <point x="0" y="623" type="line"/>
      <point x="-15" y="613"/>
      <point x="-25" y="597"/>
      <point x="-31" y="584" type="curve"/>
      <point x="-15" y="569" type="line"/>
    </contour>
    <contour>
      <point x="133" y="157" type="curve"/>
      <point x="219" y="173"/>
      <point x="282" y="191"/>
      <point x="351" y="228" type="curve"/>
      <point x="324" y="269" type="line"/>
      <point x="274" y="250"/>
      <point x="216" y="233"/>
      <point x="172" y="224" type="curve"/>
      <point x="156" y="250"/>
      <point x="142" y="277"/>
      <point x="130" y="307" type="curve"/>
      <point x="61" y="312"/>
      <point x="34" y="274"/>
      <point x="27" y="226" type="curve"/>
      <point x="53" y="192"/>
      <point x="94" y="170"/>
    </contour>
    <component base="dvHA" xOffset="194"/>
  </outline>
</glyph>
<glyph name="dvHA_mvR" format="1">
  <advance width="513"/>
  <outline>
    <contour>
      <point x="297" y="-111" type="move" name="blwm"/>
    </contour>
    <contour>
      <point x="270" y="640" type="move" name="abvm_Ekaar"/>
    </contour>
    <contour>
      <point x="639" y="569" type="line"/>
      <point x="654" y="579"/>
      <point x="662" y="595"/>
      <point x="666" y="610" type="curve"/>
      <point x="654" y="623" type="line"/>
      <point x="20" y="623" type="line"/>
      <point x="5" y="613"/>
      <point x="-5" y="597"/>
      <point x="-10" y="584" type="curve"/>
      <point x="5" y="569" type="line"/>
    </contour>
    <contour>
      <point x="328" y="218" type="line"/>
      <point x="242" y="186"/>
      <point x="165" y="112"/>
      <point x="164" y="60" type="curve" smooth="yes"/>
      <point x="164" y="30"/>
      <point x="216" y="-17"/>
      <point x="270" y="-17" type="curve" smooth="yes"/>
      <point x="347" y="-17"/>
      <point x="417" y="13"/>
      <point x="472" y="55" type="curve"/>
      <point x="473" y="91"/>
      <point x="452" y="114"/>
      <point x="411" y="115" type="curve"/>
      <point x="373" y="75"/>
      <point x="331" y="48"/>
      <point x="261" y="41" type="curve"/>
      <point x="248" y="55" type="line"/>
      <point x="274" y="104"/>
      <point x="317" y="147"/>
      <point x="394" y="173" type="curve"/>
      <point x="422" y="206"/>
      <point x="428" y="227"/>
      <point x="422" y="252" type="curve"/>
      <point x="396" y="292"/>
      <point x="322" y="339"/>
      <point x="236" y="364" type="curve"/>
      <point x="238" y="371" type="line"/>
      <point x="317" y="379"/>
      <point x="376" y="394"/>
      <point x="437" y="422" type="curve"/>
      <point x="471" y="450"/>
      <point x="490" y="497"/>
      <point x="481" y="532" type="curve"/>
      <point x="459" y="566"/>
      <point x="421" y="584"/>
      <point x="368" y="604" type="curve"/>
      <point x="327" y="571" type="line"/>
      <point x="357" y="556"/>
      <point x="381" y="543"/>
      <point x="401" y="519" type="curve"/>
      <point x="398" y="511" type="line"/>
      <point x="348" y="486"/>
      <point x="266" y="464"/>
      <point x="161" y="457" type="curve"/>
      <point x="139" y="440"/>
      <point x="119" y="386"/>
      <point x="138" y="354" type="curve"/>
      <point x="163" y="339"/>
      <point x="217" y="312"/>
      <point x="247" y="301" type="curve"/>
      <point x="245" y="293" type="line"/>
      <point x="86" y="274"/>
      <point x="-16" y="175"/>
      <point x="-16" y="72" type="curve" smooth="yes"/>
      <point x="-16" y="-23"/>
      <point x="107" y="-146"/>
      <point x="241" y="-165" type="curve"/>
      <point x="341" y="-160"/>
      <point x="445" y="-122"/>
      <point x="504" y="-79" type="curve"/>
      <point x="506" y="-34"/>
      <point x="479" y="-7"/>
      <point x="442" y="-5" type="curve"/>
      <point x="389" y="-49"/>
      <point x="321" y="-81"/>
      <point x="250" y="-93" type="curve"/>
      <point x="176" y="-78"/>
      <point x="94" y="4"/>
      <point x="90" y="74" type="curve"/>
      <point x="107" y="165"/>
      <point x="180" y="220"/>
      <point x="290" y="248" type="curve"/>
      <point x="307" y="242"/>
      <point x="317" y="236"/>
      <point x="332" y="225" type="curve"/>
    </contour>
  </outline>
</glyph>
<glyph name="dvK_SS_M_YA" format="1">
  <advance width="2043"/>
  <outline>
    <contour>
      <point x="143" y="240" type="curve"/>
      <point x="274" y="301"/>
      <point x="491" y="440"/>
      <point x="491" y="553" type="curve" smooth="yes"/>
      <point x="491" y="616"/>
      <point x="408" y="721"/>
      <point x="336" y="721" type="curve" smooth="yes"/>
      <point x="261" y="721"/>
      <point x="145" y="609"/>
      <point x="149" y="534" type="curve" smooth="yes"/>
      <point x="153" y="431"/>
      <point x="299" y="302"/>
      <point x="377" y="259" type="curve"/>
      <point x="438" y="249"/>
      <point x="518" y="254"/>
      <point x="586" y="282" type="curve"/>
      <point x="551" y="339" type="line"/>
      <point x="511" y="321"/>
      <point x="456" y="318"/>
      <point x="405" y="318" type="curve"/>
      <point x="331" y="368"/>
      <point x="276" y="420"/>
      <point x="245" y="526" type="curve"/>
      <point x="258" y="579"/>
      <point x="288" y="626"/>
      <point x="334" y="639" type="curve"/>
      <point x="367" y="622"/>
      <point x="386" y="579"/>
      <point x="391" y="544" type="curve"/>
      <point x="348" y="427"/>
      <point x="176" y="344"/>
      <point x="56" y="299" type="curve"/>
      <point x="6" y="257"/>
      <point x="3" y="172"/>
      <point x="56" y="93" type="curve"/>
      <point x="98" y="62"/>
      <point x="166" y="33"/>
      <point x="248" y="24" type="curve"/>
      <point x="318" y="118" type="line"/>
      <point x="326" y="112" type="line"/>
      <point x="297" y="52"/>
      <point x="254" y="-57"/>
      <point x="222" y="-127" type="curve"/>
      <point x="235" y="-159"/>
      <point x="286" y="-186"/>
      <point x="347" y="-173" type="curve"/>
      <point x="374" y="-67"/>
      <point x="413" y="78"/>
      <point x="444" y="162" type="curve"/>
      <point x="414" y="208"/>
      <point x="374" y="229"/>
      <point x="323" y="221" type="curve"/>
      <point x="300" y="184"/>
      <point x="273" y="142"/>
      <point x="245" y="114" type="curve"/>
      <point x="198" y="125"/>
      <point x="165" y="142"/>
      <point x="134" y="167" type="curve"/>
      <point x="125" y="198"/>
      <point x="124" y="221"/>
    </contour>
    <contour>
      <point x="735" y="308" type="line"/>
      <point x="781" y="275"/>
      <point x="827" y="250"/>
      <point x="885" y="228" type="curve"/>
      <point x="936" y="230"/>
      <point x="1022" y="241"/>
      <point x="1060" y="256" type="curve"/>
      <point x="1046" y="310" type="line"/>
      <point x="998" y="293"/>
      <point x="941" y="287"/>
      <point x="899" y="284" type="curve"/>
      <point x="857" y="299"/>
      <point x="812" y="326"/>
      <point x="786" y="348" type="curve"/>
    </contour>
    <contour>
      <point x="1194" y="569" type="line"/>
      <point x="1209" y="579"/>
      <point x="1217" y="595"/>
      <point x="1221" y="610" type="curve"/>
      <point x="1209" y="623" type="line"/>
      <point x="509" y="623" type="line"/>
      <point x="494" y="613"/>
      <point x="485" y="597"/>
      <point x="479" y="584" type="curve"/>
      <point x="494" y="569" type="line"/>
    </contour>
    <contour>
      <point x="962" y="500" type="curve"/>
      <point x="962" y="547"/>
      <point x="876" y="623"/>
      <point x="794" y="623" type="curve" smooth="yes"/>
      <point x="726" y="623"/>
      <point x="653" y="595"/>
      <point x="609" y="556" type="curve"/>
      <point x="596" y="525"/>
      <point x="624" y="491"/>
      <point x="674" y="476" type="curve"/>
      <point x="711" y="507"/>
      <point x="758" y="531"/>
      <point x="802" y="531" type="curve" smooth="yes"/>
      <point x="824" y="531"/>
      <point x="845" y="507"/>
      <point x="849" y="487" type="curve" smooth="yes"/>
      <point x="845" y="417"/>
      <point x="740" y="345"/>
      <point x="641" y="327" type="curve" smooth="yes"/>
      <point x="625" y="333"/>
      <point x="609" y="341"/>
      <point x="595" y="352" type="curve"/>
      <point x="542" y="350"/>
      <point x="506" y="306"/>
      <point x="499" y="250" type="curve"/>
      <point x="564" y="168"/>
      <point x="697" y="48"/>
      <point x="801" y="-1" type="curve"/>
      <point x="850" y="16"/>
      <point x="881" y="72"/>
      <point x="859" y="108" type="curve"/>
      <point x="781" y="148"/>
      <point x="699" y="216"/>
      <point x="638" y="262" type="curve"/>
      <point x="642" y="270" type="line"/>
      <point x="777" y="267"/>
      <point x="962" y="389"/>
    </contour>
    <contour>
      <point x="1543" y="569" type="line"/>
      <point x="1558" y="579"/>
      <point x="1566" y="595"/>
      <point x="1570" y="610" type="curve"/>
      <point x="1558" y="623" type="line"/>
      <point x="976" y="623" type="line"/>
      <point x="961" y="613"/>
      <point x="951" y="597"/>
      <point x="945" y="584" type="curve"/>
      <point x="961" y="569" type="line"/>
    </contour>
    <contour>
      <point x="1127" y="189" type="line"/>
      <point x="1094" y="202"/>
      <point x="1070" y="223"/>
      <point x="1049" y="261" type="curve"/>
      <point x="1033" y="235" type="line"/>
      <point x="1182" y="309"/>
      <point x="1296" y="304"/>
      <point x="1455" y="282" type="curve"/>
      <point x="1477" y="326" type="line"/>
      <point x="1326" y="368"/>
      <point x="1103" y="346"/>
      <point x="1004" y="292" type="curve"/>
      <point x="976" y="276"/>
      <point x="968" y="245"/>
      <point x="967" y="209" type="curve"/>
      <point x="997" y="155"/>
      <point x="1056" y="118"/>
      <point x="1114" y="107" type="curve"/>
      <point x="1160" y="107"/>
      <point x="1215" y="122"/>
      <point x="1242" y="154" type="curve"/>
      <point x="1281" y="258"/>
      <point x="1306" y="469"/>
      <point x="1314" y="610" type="curve"/>
      <point x="1160" y="591" type="line"/>
      <point x="1184" y="474" type="line"/>
      <point x="1182" y="377"/>
      <point x="1168" y="269"/>
      <point x="1137" y="196" type="curve"/>
    </contour>
    <contour>
      <point x="2068" y="609" type="line"/>
      <point x="2046" y="645"/>
      <point x="2006" y="660"/>
      <point x="1915" y="653" type="curve"/>
      <point x="1835" y="299" type="line"/>
      <point x="1858" y="277" type="line"/>
      <point x="1816" y="210" type="line"/>
      <point x="1776" y="41" type="line"/>
      <point x="1824" y="1"/>
      <point x="1896" y="-10"/>
      <point x="1937" y="11" type="curve"/>
      <point x="1979" y="431" type="line"/>
    </contour>
    <contour>
      <point x="2171" y="569" type="line"/>
      <point x="2186" y="579"/>
      <point x="2194" y="595"/>
      <point x="2198" y="610" type="curve"/>
      <point x="2186" y="623" type="line"/>
      <point x="1404" y="623" type="line"/>
      <point x="1389" y="613"/>
      <point x="1379" y="597"/>
      <point x="1373" y="584" type="curve"/>
      <point x="1389" y="569" type="line"/>
    </contour>
    <contour>
      <point x="1473" y="562" type="curve"/>
      <point x="1458" y="529"/>
      <point x="1487" y="496"/>
      <point x="1540" y="483" type="curve"/>
      <point x="1569" y="504"/>
      <point x="1599" y="520"/>
      <point x="1630" y="523" type="curve" smooth="yes"/>
      <point x="1651" y="525"/>
      <point x="1675" y="519"/>
      <point x="1684" y="505" type="curve" smooth="yes"/>
      <point x="1675" y="399"/>
      <point x="1409" y="340"/>
      <point x="1409" y="263" type="curve" smooth="yes"/>
      <point x="1409" y="201"/>
      <point x="1520" y="120"/>
      <point x="1585" y="120" type="curve" smooth="yes"/>
      <point x="1659" y="120"/>
      <point x="1836" y="251"/>
      <point x="1899" y="356" type="curve"/>
      <point x="1857" y="392" type="line"/>
      <point x="1800" y="308"/>
      <point x="1695" y="230"/>
      <point x="1631" y="212" type="curve" smooth="yes"/>
      <point x="1600" y="212"/>
      <point x="1556" y="247"/>
      <point x="1560" y="276" type="curve" smooth="yes"/>
      <point x="1603" y="332"/>
      <point x="1798" y="429"/>
      <point x="1798" y="522" type="curve" smooth="yes"/>
      <point x="1798" y="569"/>
      <point x="1722" y="623"/>
      <point x="1642" y="623" type="curve" smooth="yes"/>
      <point x="1592" y="623"/>
      <point x="1514" y="598"/>
    </contour>
  </outline>
</glyph>
<glyph name="dvLL_YA" format="1">
  <advance width="1487"/>
  <outline>
    <contour>
      <point x="955" y="569" type="line"/>
      <point x="969" y="579"/>
      <point x="977" y="595"/>
      <point x="981" y="610" type="curve"/>
      <point x="969" y="623" type="line"/>
      <point x="20" y="623" type="line"/>
      <point x="5" y="613"/>
      <point x="-5" y="597"/>
      <point x="-10" y="584" type="curve"/>
      <point x="5" y="569" type="line"/>
    </contour>
    <contour>
      <point x="378" y="158" type="line"/>
      <point x="416" y="97"/>
      <point x="467" y="33"/>
      <point x="533" y="0" type="curve"/>
      <point x="647" y="16"/>
      <point x="779" y="156"/>
      <point x="780" y="265" type="curve" smooth="yes"/>
      <point x="783" y="355"/>
      <point x="695" y="449"/>
      <point x="656" y="449" type="curve" smooth="yes"/>
      <point x="523" y="449"/>
      <point x="417" y="191"/>
      <point x="192" y="82" type="curve"/>
      <point x="148" y="104"/>
      <point x="131" y="139"/>
      <point x="129" y="181" type="curve"/>
      <point x="137" y="233"/>
      <point x="191" y="296"/>
      <point x="257" y="325" type="curve"/>
      <point x="295" y="285"/>
      <point x="331" y="237"/>
      <point x="375" y="173" type="curve"/>
      <point x="413" y="207" type="line"/>
      <point x="374" y="281"/>
      <point x="324" y="353"/>
      <point x="276" y="412" type="curve"/>
      <point x="142" y="407"/>
      <point x="19" y="267"/>
      <point x="17" y="188" type="curve" smooth="yes"/>
      <point x="15" y="98"/>
      <point x="102" y="11"/>
      <point x="204" y="0" type="curve"/>
      <point x="393" y="49"/>
      <point x="530" y="274"/>
      <point x="645" y="348" type="curve"/>
      <point x="667" y="320"/>
      <point x="676" y="290"/>
      <point x="673" y="258" type="curve" smooth="yes"/>
      <point x="668" y="189"/>
      <point x="615" y="116"/>
      <point x="544" y="82" type="curve"/>
      <point x="502" y="97"/>
      <point x="454" y="150"/>
      <point x="419" y="199" type="curve"/>
    </contour>
    <contour>
      <point x="1512" y="609" type="line"/>
      <point x="1490" y="645"/>
      <point x="1450" y="660"/>
      <point x="1359" y="653" type="curve"/>
      <point x="1279" y="299" type="line"/>
      <point x="1302" y="277" type="line"/>
      <point x="1260" y="210" type="line"/>
      <point x="1220" y="41" type="line"/>
      <point x="1268" y="1"/>
      <point x="1340" y="-10"/>
      <point x="1381" y="11" type="curve"/>
      <point x="1423" y="431" type="line"/>
    </contour>
    <contour>
      <point x="1615" y="569" type="line"/>
      <point x="1630" y="579"/>
      <point x="1638" y="595"/>
      <point x="1642" y="610" type="curve"/>
      <point x="1630" y="623" type="line"/>
      <point x="848" y="623" type="line"/>
      <point x="833" y="613"/>
      <point x="823" y="597"/>
      <point x="817" y="584" type="curve"/>
      <point x="833" y="569" type="line"/>
    </contour>
    <contour>
      <point x="917" y="562" type="curve"/>
      <point x="902" y="529"/>
      <point x="931" y="496"/>
      <point x="984" y="483" type="curve"/>
      <point x="1013" y="504"/>
      <point x="1043" y="520"/>
      <point x="1074" y="523" type="curve" smooth="yes"/>
      <point x="1095" y="525"/>
      <point x="1119" y="519"/>
      <point x="1128" y="505" type="curve" smooth="yes"/>
      <point x="1119" y="399"/>
      <point x="853" y="340"/>
      <point x="853" y="263" type="curve" smooth="yes"/>
      <point x="853" y="201"/>
      <point x="964" y="120"/>
      <point x="1029" y="120" type="curve" smooth="yes"/>
      <point x="1103" y="120"/>
      <point x="1280" y="251"/>
      <point x="1343" y="356" type="curve"/>
      <point x="1301" y="392" type="line"/>
      <point x="1243" y="308"/>
      <point x="1139" y="230"/>
      <point x="1075" y="212" type="curve" smooth="yes"/>
      <point x="1044" y="212"/>
      <point x="1000" y="247"/>
      <point x="1004" y="276" type="curve" smooth="yes"/>
      <point x="1046" y="332"/>
      <point x="1242" y="429"/>
      <point x="1242" y="522" type="curve" smooth="yes"/>
      <point x="1242" y="569"/>
      <point x="1166" y="623"/>
      <point x="1086" y="623" type="curve" smooth="yes"/>
      <point x="1036" y="623"/>
      <point x="958" y="598"/>
    </contour>
  </outline>
</glyph>
<glyph name="dvL" format="1">
  <advance width="441"/>
  <outline>
    <contour>
      <point x="350" y="298" type="line"/>
      <point x="361" y="314"/>
      <point x="373" y="331"/>
      <point x="382" y="347" type="curve" smooth="yes"/>
      <point x="378" y="402"/>
      <point x="351" y="447"/>
      <point x="297" y="468" type="curve"/>
      <point x="269" y="474"/>
      <point x="222" y="473"/>
      <point x="186" y="467" type="curve"/>
      <point x="101" y="430"/>
      <point x="6" y="333"/>
      <point x="6" y="256" type="curve" smooth="yes"/>
      <point x="6" y="177"/>
      <point x="82" y="62"/>
      <point x="185" y="-2" type="curve"/>
      <point x="253" y="11"/>
      <point x="283" y="60"/>
      <point x="273" y="95" type="curve"/>
      <point x="187" y="143"/>
      <point x="151" y="197"/>
      <point x="139" y="256" type="curve" smooth="yes"/>
      <point x="141" y="311"/>
      <point x="184" y="371"/>
      <point x="227" y="388" type="curve"/>
      <point x="258" y="381"/>
      <point x="275" y="359"/>
      <point x="281" y="335" type="curve" smooth="yes"/>
      <point x="274" y="314"/>
      <point x="259" y="291"/>
      <point x="240" y="269" type="curve"/>
      <point x="241" y="236"/>
      <point x="287" y="198"/>
      <point x="352" y="191" type="curve"/>
      <point x="423" y="247"/>
      <point x="518" y="336"/>
      <point x="577" y="394" type="curve"/>
      <point x="545" y="460" type="line"/>
      <point x="491" y="399"/>
      <point x="426" y="341"/>
      <point x="357" y="292" type="curve"/>
    </contour>
    <contour>
      <point x="625" y="569" type="line"/>
      <point x="640" y="579"/>
      <point x="648" y="595"/>
      <point x="652" y="610" type="curve"/>
      <point x="640" y="623" type="line"/>
      <point x="20" y="623" type="line"/>
      <point x="6" y="613"/>
      <point x="-4" y="597"/>
      <point x="-10" y="584" type="curve"/>
      <point x="6" y="569" type="line"/>
    </contour>
  </outline>
</glyph>
<glyph name="dvL_BA" format="1">
  <advance width="976"/>
  <outline>
    <contour>
      <point x="625" y="569" type="line"/>
      <point x="640" y="579"/>
      <point x="648" y="595"/>
      <point x="652" y="610" type="curve"/>
      <point x="640" y="623" type="line"/>
      <point x="20" y="623" type="line"/>
      <point x="6" y="613"/>
      <point x="-4" y="597"/>
      <point x="-10" y="584" type="curve"/>
      <point x="6" y="569" type="line"/>
    </contour>
    <contour>
      <point x="520" y="436" type="line"/>
      <point x="465" y="376"/>
      <point x="425" y="342"/>
      <point x="357" y="292" type="curve"/>
      <point x="350" y="298" type="line"/>
      <point x="361" y="314"/>
      <point x="373" y="331"/>
      <point x="382" y="347" type="curve" smooth="yes"/>
      <point x="378" y="402"/>
      <point x="351" y="447"/>
      <point x="297" y="468" type="curve"/>
      <point x="269" y="474"/>
      <point x="222" y="473"/>
      <point x="186" y="467" type="curve"/>
      <point x="101" y="430"/>
      <point x="6" y="333"/>
      <point x="6" y="256" type="curve" smooth="yes"/>
      <point x="6" y="177"/>
      <point x="82" y="62"/>
      <point x="185" y="-2" type="curve"/>
      <point x="253" y="11"/>
      <point x="283" y="60"/>
      <point x="273" y="95" type="curve"/>
      <point x="187" y="143"/>
      <point x="151" y="197"/>
      <point x="139" y="256" type="curve" smooth="yes"/>
      <point x="141" y="311"/>
      <point x="184" y="371"/>
      <point x="227" y="388" type="curve"/>
      <point x="258" y="381"/>
      <point x="275" y="359"/>
      <point x="281" y="335" type="curve" smooth="yes"/>
      <point x="274" y="314"/>
      <point x="259" y="291"/>
      <point x="240" y="269" type="curve"/>
      <point x="241" y="236"/>
      <point x="287" y="198"/>
      <point x="352" y="191" type="curve"/>
      <point x="423" y="247"/>
      <point x="508" y="325"/>
      <point x="567" y="384" type="curve"/>
    </contour>
    <contour>
      <point x="614" y="168" type="curve"/>
      <point x="591" y="181"/>
      <point x="576" y="208"/>
      <point x="576" y="246" type="curve" smooth="yes"/>
      <point x="576" y="335"/>
      <point x="642" y="427"/>
      <point x="704" y="439" type="curve" smooth="yes"/>
      <point x="736" y="430"/>
      <point x="765" y="390"/>
      <point x="786" y="352" type="curve"/>
      <point x="779" y="318" type="line"/>
      <point x="732" y="272"/>
      <point x="671" y="219"/>
    </contour>
    <contour>
      <point x="1104" y="569" type="line"/>
      <point x="1119" y="579"/>
      <point x="1127" y="595"/>
      <point x="1131" y="610" type="curve"/>
      <point x="1119" y="623" type="line"/>
      <point x="437" y="623" type="line"/>
      <point x="423" y="613"/>
      <point x="413" y="597"/>
      <point x="407" y="584" type="curve"/>
      <point x="423" y="569" type="line"/>
    </contour>
    <contour>
      <point x="801" y="422" type="line"/>
      <point x="775" y="462"/>
      <point x="743" y="504"/>
      <point x="693" y="515" type="curve" smooth="yes"/>
      <point x="560" y="515"/>
      <point x="439" y="371"/>
      <point x="439" y="242" type="curve" smooth="yes"/>
      <point x="439" y="144"/>
      <point x="516" y="93"/>
      <point x="623" y="90" type="curve"/>
      <point x="679" y="150"/>
      <point x="734" y="207"/>
      <point x="777" y="254" type="curve"/>
      <point x="787" y="244" type="line"/>
      <point x="741" y="176" type="line"/>
      <point x="709" y="41" type="line"/>
      <point x="757" y="1"/>
      <point x="829" y="-10"/>
      <point x="870" y="11" type="curve"/>
      <point x="912" y="431" type="line"/>
      <point x="1001" y="609" type="line"/>
      <point x="979" y="645"/>
      <point x="939" y="660"/>
      <point x="848" y="653" type="curve"/>
      <point x="805" y="424" type="line"/>
    </contour>
    <contour>
      <point x="736" y="231" type="curve"/>
      <point x="769" y="265" type="line"/>
      <point x="715" y="313"/>
      <point x="665" y="370"/>
      <point x="626" y="420" type="curve"/>
      <point x="597" y="373" type="line"/>
      <point x="631" y="326"/>
      <point x="696" y="264"/>
    </contour>
  </outline>
</glyph>
<glyph name="dvL_BHA" format="1">
  <advance width="1079"/>
  <outline>
    <contour>
      <point x="603" y="569" type="line"/>
      <point x="618" y="579"/>
      <point x="626" y="595"/>
      <point x="630" y="610" type="curve"/>
      <point x="618" y="623" type="line"/>
      <point x="20" y="623" type="line"/>
      <point x="6" y="613"/>
      <point x="-4" y="597"/>
      <point x="-10" y="584" type="curve"/>
      <point x="6" y="569" type="line"/>
    </contour>
    <contour>
      <point x="537" y="458" type="line"/>
      <point x="473" y="389"/>
      <point x="403" y="330"/>
      <point x="348" y="290" type="curve"/>
      <point x="341" y="295" type="line"/>
      <point x="364" y="330"/>
      <point x="366" y="386"/>
      <point x="345" y="413" type="curve"/>
      <point x="336" y="442"/>
      <point x="311" y="461"/>
      <point x="270" y="468" type="curve" smooth="yes"/>
      <point x="245" y="471"/>
      <point x="216" y="471"/>
      <point x="186" y="467" type="curve"/>
      <point x="101" y="430"/>
      <point x="6" y="333"/>
      <point x="6" y="256" type="curve" smooth="yes"/>
      <point x="6" y="177"/>
      <point x="82" y="62"/>
      <point x="185" y="-2" type="curve"/>
      <point x="253" y="11"/>
      <point x="283" y="60"/>
      <point x="273" y="95" type="curve"/>
      <point x="187" y="143"/>
      <point x="151" y="197"/>
      <point x="139" y="256" type="curve" smooth="yes"/>
      <point x="141" y="311"/>
      <point x="184" y="371"/>
      <point x="227" y="388" type="curve"/>
      <point x="258" y="381"/>
      <point x="275" y="359"/>
      <point x="281" y="335" type="curve" smooth="yes"/>
      <point x="274" y="314"/>
      <point x="259" y="298"/>
      <point x="239" y="277" type="curve"/>
      <point x="240" y="244"/>
      <point x="287" y="206"/>
      <point x="353" y="203" type="curve"/>
      <point x="422" y="255"/>
      <point x="522" y="352"/>
      <point x="575" y="409" type="curve"/>
    </contour>
    <contour>
      <point x="1093" y="483" type="line"/>
      <point x="1068" y="520"/>
      <point x="1026" y="536"/>
      <point x="942" y="530" type="curve"/>
      <point x="920" y="457" type="line"/>
      <point x="930" y="451" type="line"/>
      <point x="835" y="41" type="line"/>
      <point x="883" y="1"/>
      <point x="955" y="-10"/>
      <point x="996" y="11" type="curve"/>
      <point x="1027" y="372" type="line"/>
    </contour>
    <contour>
      <point x="1207" y="569" type="line"/>
      <point x="1222" y="579"/>
      <point x="1230" y="595"/>
      <point x="1234" y="610" type="curve"/>
      <point x="1222" y="623" type="line"/>
      <point x="922" y="623" type="line"/>
      <point x="907" y="613"/>
      <point x="897" y="597"/>
      <point x="891" y="584" type="curve"/>
      <point x="907" y="569" type="line"/>
    </contour>
    <contour>
      <point x="719" y="611" type="line"/>
      <point x="714" y="572"/>
      <point x="706" y="524"/>
      <point x="698" y="480" type="curve"/>
      <point x="711" y="460" type="line"/>
      <point x="690" y="430" type="line"/>
      <point x="675" y="356"/>
      <point x="653" y="284"/>
      <point x="627" y="210" type="curve"/>
      <point x="617" y="204" type="line"/>
      <point x="582" y="219"/>
      <point x="561" y="237"/>
      <point x="541" y="274" type="curve"/>
      <point x="519" y="237" type="line"/>
      <point x="680" y="319"/>
      <point x="823" y="394"/>
      <point x="966" y="483" type="curve"/>
      <point x="942" y="530" type="line"/>
      <point x="816" y="448"/>
      <point x="640" y="362"/>
      <point x="496" y="299" type="curve"/>
      <point x="468" y="287"/>
      <point x="458" y="250"/>
      <point x="457" y="224" type="curve"/>
      <point x="486" y="172"/>
      <point x="545" y="133"/>
      <point x="604" y="122" type="curve"/>
      <point x="645" y="121"/>
      <point x="702" y="137"/>
      <point x="733" y="166" type="curve"/>
      <point x="784" y="321"/>
      <point x="822" y="518"/>
      <point x="838" y="671" type="curve"/>
      <point x="819" y="702"/>
      <point x="775" y="721"/>
      <point x="726" y="720" type="curve"/>
      <point x="678" y="672"/>
      <point x="574" y="606"/>
      <point x="515" y="577" type="curve"/>
      <point x="498" y="565"/>
      <point x="487" y="536"/>
      <point x="485" y="513" type="curve" smooth="yes"/>
      <point x="497" y="478"/>
      <point x="545" y="438"/>
      <point x="604" y="424" type="curve"/>
      <point x="732" y="479" type="line"/>
      <point x="714" y="513" type="line"/>
      <point x="613" y="487" type="line"/>
      <point x="599" y="491"/>
      <point x="584" y="510"/>
      <point x="579" y="520" type="curve"/>
      <point x="624" y="551"/>
      <point x="672" y="585"/>
      <point x="711" y="614" type="curve"/>
    </contour>
  </outline>
</glyph>
<glyph name="dvL_DA" format="1">
  <advance width="940"/>
  <outline>
    <contour>
      <point x="592" y="-53" type="move" name="blwm"/>
    </contour>
    <contour>
      <point x="591" y="640" type="move" name="abvm_Ekaar"/>
    </contour>
    <contour>
      <point x="625" y="569" type="line"/>
      <point x="640" y="579"/>
      <point x="648" y="595"/>
      <point x="652" y="610" type="curve"/>
      <point x="640" y="623" type="line"/>
      <point x="20" y="623" type="line"/>
      <point x="6" y="613"/>
      <point x="-4" y="597"/>
      <point x="-10" y="584" type="curve"/>
      <point x="6" y="569" type="line"/>
    </contour>
    <contour>
      <point x="532" y="364" type="line"/>
      <point x="476" y="331"/>
      <point x="417" y="306"/>
      <point x="354" y="283" type="curve"/>
      <point x="347" y="288" type="line"/>
      <point x="361" y="306"/>
      <point x="373" y="331"/>
      <point x="382" y="347" type="curve" smooth="yes"/>
      <point x="378" y="402"/>
      <point x="351" y="447"/>
      <point x="297" y="468" type="curve"/>
      <point x="269" y="474"/>
      <point x="222" y="473"/>
      <point x="186" y="467" type="curve"/>
      <point x="101" y="430"/>
      <point x="6" y="333"/>
      <point x="6" y="256" type="curve" smooth="yes"/>
      <point x="6" y="177"/>
      <point x="82" y="62"/>
      <point x="185" y="-2" type="curve"/>
      <point x="253" y="11"/>
      <point x="283" y="60"/>
      <point x="273" y="95" type="curve"/>
      <point x="187" y="143"/>
      <point x="151" y="197"/>
      <point x="139" y="256" type="curve" smooth="yes"/>
      <point x="141" y="311"/>
      <point x="184" y="371"/>
      <point x="227" y="388" type="curve"/>
      <point x="258" y="381"/>
      <point x="275" y="359"/>
      <point x="281" y="335" type="curve" smooth="yes"/>
      <point x="274" y="314"/>
      <point x="259" y="291"/>
      <point x="240" y="269" type="curve"/>
      <point x="236" y="236"/>
      <point x="280" y="199"/>
      <point x="352" y="191" type="curve"/>
      <point x="409" y="218"/>
      <point x="502" y="264"/>
      <point x="566" y="317" type="curve"/>
    </contour>
    <contour>
      <point x="1042" y="569" type="line"/>
      <point x="1057" y="579"/>
      <point x="1065" y="595"/>
      <point x="1069" y="610" type="curve"/>
      <point x="1057" y="623" type="line"/>
      <point x="421" y="623" type="line"/>
      <point x="406" y="613"/>
      <point x="397" y="597"/>
      <point x="391" y="584" type="curve"/>
      <point x="406" y="569" type="line"/>
    </contour>
    <contour>
      <point x="683" y="616" type="curve"/>
      <point x="641" y="582" type="line"/>
      <point x="693" y="554"/>
      <point x="736" y="526"/>
      <point x="756" y="497" type="curve"/>
      <point x="752" y="489" type="line"/>
      <point x="659" y="389"/>
      <point x="411" y="359"/>
      <point x="411" y="230" type="curve" smooth="yes"/>
      <point x="411" y="133"/>
      <point x="519" y="47"/>
      <point x="655" y="31" type="curve"/>
      <point x="702" y="89"/>
      <point x="743" y="146"/>
      <point x="777" y="184" type="curve"/>
      <point x="785" y="178" type="line"/>
      <point x="755" y="112"/>
      <point x="705" y="-9"/>
      <point x="666" y="-112" type="curve"/>
      <point x="673" y="-148"/>
      <point x="722" y="-172"/>
      <point x="787" y="-168" type="curve"/>
      <point x="822" y="-32"/>
      <point x="858" y="99"/>
      <point x="903" y="209" type="curve"/>
      <point x="871" y="268"/>
      <point x="811" y="286"/>
      <point x="771" y="274" type="curve"/>
      <point x="738" y="239"/>
      <point x="673" y="162"/>
      <point x="619" y="108" type="curve"/>
      <point x="663" y="123" type="line"/>
      <point x="608" y="128"/>
      <point x="551" y="177"/>
      <point x="541" y="226" type="curve"/>
      <point x="598" y="288"/>
      <point x="747" y="352"/>
      <point x="810" y="403" type="curve"/>
      <point x="844" y="437"/>
      <point x="861" y="482"/>
      <point x="848" y="514" type="curve"/>
      <point x="812" y="557"/>
      <point x="745" y="593"/>
    </contour>
  </outline>
</glyph>
<glyph name="dvL_DDA" format="1">
  <advance width="900"/>
  <outline>
    <contour>
      <point x="677" y="4" type="move" name="blwm"/>
    </contour>
    <contour>
      <point x="576" y="640" type="move" name="abvm_Ekaar"/>
    </contour>
    <contour>
      <point x="625" y="569" type="line"/>
      <point x="640" y="579"/>
      <point x="648" y="595"/>
      <point x="652" y="610" type="curve"/>
      <point x="640" y="623" type="line"/>
      <point x="20" y="623" type="line"/>
      <point x="6" y="613"/>
      <point x="-4" y="597"/>
      <point x="-10" y="584" type="curve"/>
      <point x="6" y="569" type="line"/>
    </contour>
    <contour>
      <point x="510" y="385" type="line"/>
      <point x="466" y="346"/>
      <point x="407" y="313"/>
      <point x="354" y="283" type="curve"/>
      <point x="347" y="289" type="line"/>
      <point x="361" y="306"/>
      <point x="373" y="331"/>
      <point x="382" y="347" type="curve" smooth="yes"/>
      <point x="378" y="402"/>
      <point x="351" y="447"/>
      <point x="297" y="468" type="curve"/>
      <point x="269" y="474"/>
      <point x="222" y="473"/>
      <point x="186" y="467" type="curve"/>
      <point x="101" y="430"/>
      <point x="6" y="333"/>
      <point x="6" y="256" type="curve" smooth="yes"/>
      <point x="6" y="177"/>
      <point x="82" y="62"/>
      <point x="185" y="-2" type="curve"/>
      <point x="253" y="11"/>
      <point x="283" y="60"/>
      <point x="273" y="95" type="curve"/>
      <point x="187" y="143"/>
      <point x="151" y="197"/>
      <point x="139" y="256" type="curve" smooth="yes"/>
      <point x="141" y="311"/>
      <point x="184" y="371"/>
      <point x="227" y="388" type="curve"/>
      <point x="258" y="381"/>
      <point x="275" y="359"/>
      <point x="281" y="335" type="curve" smooth="yes"/>
      <point x="274" y="314"/>
      <point x="259" y="291"/>
      <point x="240" y="269" type="curve"/>
      <point x="238" y="236"/>
      <point x="284" y="198"/>
      <point x="352" y="191" type="curve"/>
      <point x="411" y="235"/>
      <point x="492" y="292"/>
      <point x="546" y="338" type="curve"/>
    </contour>
    <contour>
      <point x="1027" y="569" type="line"/>
      <point x="1042" y="579"/>
      <point x="1050" y="595"/>
      <point x="1054" y="610" type="curve"/>
      <point x="1042" y="623" type="line"/>
      <point x="422" y="623" type="line"/>
      <point x="408" y="613"/>
      <point x="398" y="597"/>
      <point x="392" y="584" type="curve"/>
      <point x="408" y="569" type="line"/>
    </contour>
    <contour>
      <point x="682" y="614" type="curve"/>
      <point x="643" y="577" type="line"/>
      <point x="684" y="558"/>
      <point x="732" y="539"/>
      <point x="758" y="508" type="curve"/>
      <point x="754" y="499" type="line"/>
      <point x="692" y="468"/>
      <point x="612" y="452"/>
      <point x="526" y="435" type="curve"/>
      <point x="470" y="403"/>
      <point x="450" y="341"/>
      <point x="470" y="295" type="curve"/>
      <point x="551" y="251"/>
      <point x="661" y="240"/>
      <point x="741" y="201" type="curve"/>
      <point x="742" y="193" type="line"/>
      <point x="666" y="143"/>
      <point x="529" y="124"/>
      <point x="423" y="123" type="curve"/>
      <point x="395" y="97"/>
      <point x="403" y="48"/>
      <point x="449" y="10" type="curve"/>
      <point x="580" y="17"/>
      <point x="750" y="61"/>
      <point x="818" y="109" type="curve"/>
      <point x="852" y="161"/>
      <point x="858" y="222"/>
      <point x="828" y="251" type="curve"/>
      <point x="754" y="284"/>
      <point x="644" y="299"/>
      <point x="576" y="332" type="curve"/>
      <point x="579" y="343" type="line"/>
      <point x="650" y="363"/>
      <point x="740" y="381"/>
      <point x="803" y="414" type="curve"/>
      <point x="837" y="443"/>
      <point x="853" y="495"/>
      <point x="843" y="525" type="curve"/>
      <point x="800" y="572"/>
      <point x="745" y="594"/>
    </contour>
  </outline>
</glyph>
<glyph name="dvL_DDHA" format="1">
  <advance width="997"/>
  <outline>
    <contour>
      <point x="762" y="4" type="move" name="blwm"/>
    </contour>
    <contour>
      <point x="621" y="640" type="move" name="abvm_Ekaar"/>
    </contour>
    <contour>
      <point x="625" y="569" type="line"/>
      <point x="640" y="579"/>
      <point x="648" y="595"/>
      <point x="652" y="610" type="curve"/>
      <point x="640" y="623" type="line"/>
      <point x="20" y="623" type="line"/>
      <point x="6" y="613"/>
      <point x="-4" y="597"/>
      <point x="-10" y="584" type="curve"/>
      <point x="6" y="569" type="line"/>
    </contour>
    <contour>
      <point x="544" y="360" type="line"/>
      <point x="487" y="332"/>
      <point x="417" y="306"/>
      <point x="354" y="283" type="curve"/>
      <point x="347" y="289" type="line"/>
      <point x="361" y="306"/>
      <point x="373" y="331"/>
      <point x="382" y="347" type="curve" smooth="yes"/>
      <point x="378" y="402"/>
      <point x="351" y="447"/>
      <point x="297" y="468" type="curve"/>
      <point x="269" y="474"/>
      <point x="222" y="473"/>
      <point x="186" y="467" type="curve"/>
      <point x="101" y="430"/>
      <point x="6" y="333"/>
      <point x="6" y="256" type="curve" smooth="yes"/>
      <point x="6" y="177"/>
      <point x="82" y="62"/>
      <point x="185" y="-2" type="curve"/>
      <point x="253" y="11"/>
      <point x="283" y="60"/>
      <point x="273" y="95" type="curve"/>
      <point x="187" y="143"/>
      <point x="151" y="197"/>
      <point x="139" y="256" type="curve" smooth="yes"/>
      <point x="141" y="311"/>
      <point x="184" y="371"/>
      <point x="227" y="388" type="curve"/>
      <point x="258" y="381"/>
      <point x="275" y="359"/>
      <point x="281" y="335" type="curve" smooth="yes"/>
      <point x="274" y="314"/>
      <point x="259" y="291"/>
      <point x="242" y="269" type="curve"/>
      <point x="238" y="236"/>
      <point x="284" y="198"/>
      <point x="352" y="191" type="curve"/>
      <point x="415" y="221"/>
      <point x="506" y="276"/>
      <point x="581" y="315" type="curve"/>
    </contour>
    <contour>
      <point x="1115" y="569" type="line"/>
      <point x="1130" y="579"/>
      <point x="1138" y="595"/>
      <point x="1142" y="610" type="curve"/>
      <point x="1130" y="623" type="line"/>
      <point x="434" y="623" type="line"/>
      <point x="419" y="613"/>
      <point x="410" y="597"/>
      <point x="404" y="584" type="curve"/>
      <point x="419" y="569" type="line"/>
    </contour>
    <contour>
      <point x="713" y="612" type="curve"/>
      <point x="668" y="574" type="line"/>
      <point x="716" y="546"/>
      <point x="753" y="524"/>
      <point x="776" y="489" type="curve"/>
      <point x="773" y="479" type="line"/>
      <point x="704" y="426"/>
      <point x="557" y="366"/>
      <point x="465" y="312" type="curve"/>
      <point x="438" y="290"/>
      <point x="423" y="250"/>
      <point x="423" y="210" type="curve"/>
      <point x="459" y="113"/>
      <point x="572" y="28"/>
      <point x="684" y="24" type="curve" smooth="yes"/>
      <point x="774" y="24"/>
      <point x="957" y="116"/>
      <point x="957" y="193" type="curve" smooth="yes"/>
      <point x="957" y="236"/>
      <point x="885" y="299"/>
      <point x="791" y="299" type="curve"/>
      <point x="724" y="249"/>
      <point x="646" y="192"/>
      <point x="570" y="136" type="curve"/>
      <point x="606" y="97" type="line"/>
      <point x="671" y="141"/>
      <point x="739" y="191"/>
      <point x="785" y="218" type="curve"/>
      <point x="807" y="211"/>
      <point x="826" y="198"/>
      <point x="835" y="184" type="curve"/>
      <point x="816" y="139"/>
      <point x="758" y="101"/>
      <point x="685" y="88" type="curve"/>
      <point x="615" y="114"/>
      <point x="559" y="172"/>
      <point x="559" y="219" type="curve" smooth="yes"/>
      <point x="559" y="274"/>
      <point x="768" y="344"/>
      <point x="849" y="416" type="curve"/>
      <point x="876" y="447"/>
      <point x="889" y="479"/>
      <point x="877" y="511" type="curve"/>
      <point x="837" y="552"/>
      <point x="774" y="581"/>
    </contour>
  </outline>
</glyph>
<glyph name="dvL_D_RA" format="1">
  <advance width="940"/>
  <outline>
    <contour>
      <point x="653" y="-250" type="move" name="blwm"/>
    </contour>
    <contour>
      <point x="573" y="640" type="move" name="abvm_Ekaar"/>
    </contour>
    <contour>
      <point x="625" y="569" type="line"/>
      <point x="640" y="579"/>
      <point x="648" y="595"/>
      <point x="652" y="610" type="curve"/>
      <point x="640" y="623" type="line"/>
      <point x="20" y="623" type="line"/>
      <point x="6" y="613"/>
      <point x="-4" y="597"/>
      <point x="-10" y="584" type="curve"/>
      <point x="6" y="569" type="line"/>
    </contour>
    <contour>
      <point x="532" y="364" type="line"/>
      <point x="476" y="331"/>
      <point x="417" y="306"/>
      <point x="354" y="283" type="curve"/>
      <point x="347" y="288" type="line"/>
      <point x="361" y="306"/>
      <point x="373" y="331"/>
      <point x="382" y="347" type="curve" smooth="yes"/>
      <point x="378" y="402"/>
      <point x="351" y="447"/>
      <point x="297" y="468" type="curve"/>
      <point x="269" y="474"/>
      <point x="222" y="473"/>
      <point x="186" y="467" type="curve"/>
      <point x="101" y="430"/>
      <point x="6" y="333"/>
      <point x="6" y="256" type="curve" smooth="yes"/>
      <point x="6" y="177"/>
      <point x="82" y="62"/>
      <point x="185" y="-2" type="curve"/>
      <point x="253" y="11"/>
      <point x="283" y="60"/>
      <point x="273" y="95" type="curve"/>
      <point x="187" y="143"/>
      <point x="151" y="197"/>
      <point x="139" y="256" type="curve" smooth="yes"/>
      <point x="141" y="311"/>
      <point x="184" y="371"/>
      <point x="227" y="388" type="curve"/>
      <point x="258" y="381"/>
      <point x="275" y="359"/>
      <point x="281" y="335" type="curve" smooth="yes"/>
      <point x="274" y="314"/>
      <point x="259" y="291"/>
      <point x="240" y="269" type="curve"/>
      <point x="236" y="236"/>
      <point x="280" y="199"/>
      <point x="352" y="191" type="curve"/>
      <point x="409" y="218"/>
      <point x="502" y="264"/>
      <point x="566" y="317" type="curve"/>
    </contour>
    <contour>
      <point x="1042" y="569" type="line"/>
      <point x="1057" y="579"/>
      <point x="1065" y="595"/>
      <point x="1069" y="610" type="curve"/>
      <point x="1057" y="623" type="line"/>
      <point x="421" y="623" type="line"/>
      <point x="406" y="613"/>
      <point x="397" y="597"/>
      <point x="391" y="584" type="curve"/>
      <point x="406" y="569" type="line"/>
    </contour>
    <contour>
      <point x="683" y="616" type="curve"/>
      <point x="641" y="582" type="line"/>
      <point x="693" y="554"/>
      <point x="736" y="526"/>
      <point x="756" y="497" type="curve"/>
      <point x="752" y="489" type="line"/>
      <point x="659" y="389"/>
      <point x="411" y="359"/>
      <point x="411" y="230" type="curve" smooth="yes"/>
      <point x="411" y="133"/>
      <point x="523" y="51"/>
      <point x="655" y="37" type="curve"/>
      <point x="698" y="92"/>
      <point x="740" y="148"/>
      <point x="773" y="186" type="curve"/>
      <point x="782" y="181" type="line"/>
      <point x="759" y="106"/>
      <point x="685" y="-113"/>
      <point x="648" y="-223" type="curve"/>
      <point x="657" y="-260"/>
      <point x="706" y="-281"/>
      <point x="771" y="-276" type="curve"/>
      <point x="801" y="-125"/>
      <point x="853" y="94"/>
      <point x="898" y="216" type="curve"/>
      <point x="862" y="272"/>
      <point x="802" y="288"/>
      <point x="765" y="276" type="curve"/>
      <point x="737" y="242"/>
      <point x="670" y="162"/>
      <point x="623" y="115" type="curve"/>
      <point x="667" y="130" type="line"/>
      <point x="610" y="130"/>
      <point x="551" y="173"/>
      <point x="541" y="226" type="curve"/>
      <point x="598" y="288"/>
      <point x="747" y="352"/>
      <point x="810" y="403" type="curve"/>
      <point x="844" y="437"/>
      <point x="861" y="482"/>
      <point x="848" y="514" type="curve"/>
      <point x="812" y="557"/>
      <point x="745" y="593"/>
    </contour>
    <contour>
      <point x="743" y="39" type="line"/>
      <point x="634" y="-10"/>
      <point x="499" y="-93"/>
      <point x="408" y="-160" type="curve"/>
      <point x="399" y="-195"/>
      <point x="417" y="-225"/>
      <point x="478" y="-240" type="curve"/>
      <point x="548" y="-162"/>
      <point x="686" y="-69"/>
      <point x="758" y="-36" type="curve"/>
    </contour>
  </outline>
</glyph>
<glyph name="dvL_GA" format="1">
  <advance width="1115"/>
  <outline>
    <contour>
      <point x="625" y="569" type="line"/>
      <point x="640" y="579"/>
      <point x="648" y="595"/>
      <point x="652" y="610" type="curve"/>
      <point x="640" y="623" type="line"/>
      <point x="20" y="623" type="line"/>
      <point x="6" y="613"/>
      <point x="-4" y="597"/>
      <point x="-10" y="584" type="curve"/>
      <point x="6" y="569" type="line"/>
    </contour>
    <contour>
      <point x="498" y="410" type="line"/>
      <point x="454" y="367"/>
      <point x="410" y="330"/>
      <point x="357" y="292" type="curve"/>
      <point x="350" y="298" type="line"/>
      <point x="361" y="314"/>
      <point x="373" y="331"/>
      <point x="382" y="347" type="curve" smooth="yes"/>
      <point x="378" y="402"/>
      <point x="351" y="447"/>
      <point x="297" y="468" type="curve"/>
      <point x="269" y="474"/>
      <point x="222" y="473"/>
      <point x="186" y="467" type="curve"/>
      <point x="101" y="430"/>
      <point x="6" y="333"/>
      <point x="6" y="256" type="curve" smooth="yes"/>
      <point x="6" y="177"/>
      <point x="82" y="62"/>
      <point x="185" y="-2" type="curve"/>
      <point x="253" y="11"/>
      <point x="283" y="60"/>
      <point x="273" y="95" type="curve"/>
      <point x="187" y="143"/>
      <point x="151" y="197"/>
      <point x="139" y="256" type="curve" smooth="yes"/>
      <point x="141" y="311"/>
      <point x="184" y="371"/>
      <point x="227" y="388" type="curve"/>
      <point x="258" y="381"/>
      <point x="275" y="359"/>
      <point x="281" y="335" type="curve" smooth="yes"/>
      <point x="274" y="314"/>
      <point x="259" y="291"/>
      <point x="240" y="269" type="curve"/>
      <point x="241" y="236"/>
      <point x="287" y="198"/>
      <point x="352" y="191" type="curve"/>
      <point x="412" y="239"/>
      <point x="480" y="302"/>
      <point x="536" y="357" type="curve"/>
    </contour>
    <contour>
      <point x="1141" y="609" type="line"/>
      <point x="1119" y="645"/>
      <point x="1080" y="660"/>
      <point x="989" y="653" type="curve"/>
      <point x="850" y="41" type="line"/>
      <point x="897" y="1"/>
      <point x="969" y="-10"/>
      <point x="1011" y="11" type="curve"/>
      <point x="1052" y="431" type="line"/>
    </contour>
    <contour>
      <point x="1243" y="569" type="line"/>
      <point x="1258" y="579"/>
      <point x="1266" y="595"/>
      <point x="1270" y="610" type="curve"/>
      <point x="1258" y="623" type="line"/>
      <point x="494" y="623" type="line"/>
      <point x="479" y="613"/>
      <point x="469" y="597"/>
      <point x="463" y="584" type="curve"/>
      <point x="479" y="569" type="line"/>
    </contour>
    <contour>
      <point x="532" y="243" type="line"/>
      <point x="607" y="278"/>
      <point x="684" y="316"/>
      <point x="758" y="356" type="curve"/>
      <point x="740" y="411" type="line"/>
      <point x="664" y="372"/>
      <point x="586" y="336"/>
      <point x="508" y="305" type="curve"/>
      <point x="485" y="289"/>
      <point x="473" y="258"/>
      <point x="470" y="227" type="curve"/>
      <point x="500" y="168"/>
      <point x="559" y="130"/>
      <point x="625" y="118" type="curve"/>
      <point x="674" y="122"/>
      <point x="723" y="137"/>
      <point x="752" y="171" type="curve"/>
      <point x="791" y="277"/>
      <point x="828" y="472"/>
      <point x="834" y="611" type="curve"/>
      <point x="679" y="591" type="line"/>
      <point x="705" y="479" type="line"/>
      <point x="703" y="381"/>
      <point x="681" y="286"/>
      <point x="647" y="211" type="curve"/>
      <point x="637" y="205" type="line"/>
      <point x="605" y="218"/>
      <point x="580" y="239"/>
      <point x="560" y="277" type="curve"/>
    </contour>
  </outline>
</glyph>
<glyph name="dvL_HA" format="1">
  <advance width="904"/>
  <outline>
    <contour>
      <point x="627" y="4" type="move" name="blwm"/>
    </contour>
    <contour>
      <point x="608" y="640" type="move" name="abvm_Ekaar"/>
    </contour>
    <contour>
      <point x="350" y="298" type="line"/>
      <point x="361" y="314"/>
      <point x="373" y="331"/>
      <point x="382" y="347" type="curve" smooth="yes"/>
      <point x="378" y="402"/>
      <point x="351" y="447"/>
      <point x="297" y="468" type="curve"/>
      <point x="269" y="474"/>
      <point x="222" y="473"/>
      <point x="186" y="467" type="curve"/>
      <point x="101" y="430"/>
      <point x="6" y="333"/>
      <point x="6" y="256" type="curve" smooth="yes"/>
      <point x="6" y="177"/>
      <point x="82" y="62"/>
      <point x="185" y="-2" type="curve"/>
      <point x="253" y="11"/>
      <point x="283" y="60"/>
      <point x="273" y="95" type="curve"/>
      <point x="187" y="143"/>
      <point x="151" y="197"/>
      <point x="139" y="256" type="curve" smooth="yes"/>
      <point x="141" y="311"/>
      <point x="184" y="371"/>
      <point x="227" y="388" type="curve"/>
      <point x="258" y="381"/>
      <point x="275" y="359"/>
      <point x="281" y="335" type="curve" smooth="yes"/>
      <point x="274" y="314"/>
      <point x="259" y="291"/>
      <point x="240" y="269" type="curve"/>
      <point x="241" y="236"/>
      <point x="287" y="198"/>
      <point x="352" y="191" type="curve"/>
      <point x="423" y="247"/>
      <point x="518" y="336"/>
      <point x="577" y="394" type="curve"/>
      <point x="535" y="451" type="line"/>
      <point x="477" y="384"/>
      <point x="423" y="336"/>
      <point x="357" y="292" type="curve"/>
    </contour>
    <contour>
      <point x="625" y="569" type="line"/>
      <point x="640" y="579"/>
      <point x="648" y="595"/>
      <point x="652" y="610" type="curve"/>
      <point x="640" y="623" type="line"/>
      <point x="20" y="623" type="line"/>
      <point x="6" y="613"/>
      <point x="-4" y="597"/>
      <point x="-10" y="584" type="curve"/>
      <point x="6" y="569" type="line"/>
    </contour>
    <contour>
      <point x="1006" y="569" type="line"/>
      <point x="1021" y="579"/>
      <point x="1029" y="595"/>
      <point x="1033" y="610" type="curve"/>
      <point x="1021" y="623" type="line"/>
      <point x="442" y="623" type="line"/>
      <point x="427" y="613"/>
      <point x="418" y="597"/>
      <point x="412" y="584" type="curve"/>
      <point x="427" y="569" type="line"/>
    </contour>
    <contour>
      <point x="750" y="604" type="curve"/>
      <point x="709" y="571" type="line"/>
      <point x="739" y="556"/>
      <point x="763" y="543"/>
      <point x="783" y="519" type="curve"/>
      <point x="780" y="511" type="line"/>
      <point x="730" y="486"/>
      <point x="647" y="464"/>
      <point x="543" y="457" type="curve"/>
      <point x="521" y="440"/>
      <point x="501" y="386"/>
      <point x="520" y="354" type="curve"/>
      <point x="546" y="339"/>
      <point x="597" y="311"/>
      <point x="626" y="299" type="curve"/>
      <point x="623" y="292" type="line"/>
      <point x="502" y="290"/>
      <point x="390" y="215"/>
      <point x="390" y="128" type="curve" smooth="yes"/>
      <point x="390" y="41"/>
      <point x="499" y="-46"/>
      <point x="609" y="-60" type="curve"/>
      <point x="696" y="-58"/>
      <point x="776" y="-28"/>
      <point x="822" y="17" type="curve"/>
      <point x="820" y="58"/>
      <point x="793" y="85"/>
      <point x="756" y="88" type="curve"/>
      <point x="718" y="49"/>
      <point x="670" y="25"/>
      <point x="618" y="15" type="curve"/>
      <point x="541" y="38"/>
      <point x="502" y="84"/>
      <point x="499" y="131" type="curve"/>
      <point x="522" y="194"/>
      <point x="595" y="234"/>
      <point x="643" y="240" type="curve" smooth="yes"/>
      <point x="659" y="238"/>
      <point x="667" y="231"/>
      <point x="669" y="219" type="curve" smooth="yes"/>
      <point x="663" y="207"/>
      <point x="649" y="192"/>
      <point x="633" y="179" type="curve"/>
      <point x="634" y="158"/>
      <point x="674" y="133"/>
      <point x="724" y="143" type="curve"/>
      <point x="756" y="178"/>
      <point x="774" y="223"/>
      <point x="774" y="259" type="curve" smooth="yes"/>
      <point x="774" y="309"/>
      <point x="699" y="338"/>
      <point x="618" y="364" type="curve"/>
      <point x="620" y="371" type="line"/>
      <point x="699" y="379"/>
      <point x="758" y="394"/>
      <point x="819" y="422" type="curve"/>
      <point x="853" y="450"/>
      <point x="872" y="497"/>
      <point x="862" y="532" type="curve"/>
      <point x="841" y="566"/>
      <point x="803" y="584"/>
    </contour>
  </outline>
</glyph>
<glyph name="dvL_JxA" format="1">
  <advance width="1186"/>
  <outline>
    <contour>
      <point x="625" y="569" type="line"/>
      <point x="640" y="579"/>
      <point x="648" y="595"/>
      <point x="652" y="610" type="curve"/>
      <point x="640" y="623" type="line"/>
      <point x="20" y="623" type="line"/>
      <point x="6" y="613"/>
      <point x="-4" y="597"/>
      <point x="-10" y="584" type="curve"/>
      <point x="6" y="569" type="line"/>
    </contour>
    <contour>
      <point x="549" y="438" type="line"/>
      <point x="493" y="380"/>
      <point x="407" y="324"/>
      <point x="357" y="292" type="curve"/>
      <point x="350" y="298" type="line"/>
      <point x="361" y="314"/>
      <point x="373" y="331"/>
      <point x="382" y="347" type="curve" smooth="yes"/>
      <point x="378" y="402"/>
      <point x="351" y="447"/>
      <point x="297" y="468" type="curve"/>
      <point x="269" y="474"/>
      <point x="222" y="473"/>
      <point x="186" y="467" type="curve"/>
      <point x="101" y="430"/>
      <point x="6" y="333"/>
      <point x="6" y="256" type="curve" smooth="yes"/>
      <point x="6" y="177"/>
      <point x="82" y="62"/>
      <point x="185" y="-2" type="curve"/>
      <point x="253" y="11"/>
      <point x="283" y="60"/>
      <point x="273" y="95" type="curve"/>
      <point x="187" y="143"/>
      <point x="151" y="197"/>
      <point x="139" y="256" type="curve" smooth="yes"/>
      <point x="141" y="311"/>
      <point x="184" y="371"/>
      <point x="227" y="388" type="curve"/>
      <point x="258" y="381"/>
      <point x="275" y="359"/>
      <point x="281" y="335" type="curve" smooth="yes"/>
      <point x="274" y="314"/>
      <point x="259" y="291"/>
      <point x="240" y="269" type="curve"/>
      <point x="241" y="236"/>
      <point x="287" y="198"/>
      <point x="352" y="191" type="curve"/>
      <point x="423" y="247"/>
      <point x="534" y="334"/>
      <point x="593" y="392" type="curve"/>
    </contour>
    <contour>
      <point x="1211" y="609" type="line"/>
      <point x="1189" y="645"/>
      <point x="1149" y="660"/>
      <point x="1058" y="653" type="curve"/>
      <point x="996" y="373" type="line"/>
      <point x="1016" y="352" type="line"/>
      <point x="976" y="285" type="line"/>
      <point x="919" y="41" type="line"/>
      <point x="967" y="1"/>
      <point x="1039" y="-10"/>
      <point x="1080" y="11" type="curve"/>
      <point x="1122" y="431" type="line"/>
    </contour>
    <contour>
      <point x="1314" y="569" type="line"/>
      <point x="1329" y="579"/>
      <point x="1337" y="595"/>
      <point x="1341" y="610" type="curve"/>
      <point x="1329" y="623" type="line"/>
      <point x="468" y="623" type="line"/>
      <point x="454" y="613"/>
      <point x="444" y="597"/>
      <point x="438" y="584" type="curve"/>
      <point x="454" y="569" type="line"/>
    </contour>
    <contour>
      <point x="605" y="490" type="curve"/>
      <point x="538" y="446"/>
      <point x="496" y="369"/>
      <point x="487" y="313" type="curve" smooth="yes"/>
      <point x="484" y="212"/>
      <point x="556" y="115"/>
      <point x="639" y="101" type="curve" smooth="yes"/>
      <point x="717" y="97"/>
      <point x="859" y="181"/>
      <point x="864" y="277" type="curve"/>
      <point x="852" y="306" type="line"/>
      <point x="857" y="312" type="line"/>
      <point x="884" y="306" type="line"/>
      <point x="949" y="307"/>
      <point x="1015" y="352"/>
      <point x="1058" y="405" type="curve"/>
      <point x="1013" y="448" type="line"/>
      <point x="980" y="411"/>
      <point x="934" y="381"/>
      <point x="886" y="378" type="curve"/>
      <point x="870" y="383"/>
      <point x="848" y="403"/>
      <point x="832" y="422" type="curve"/>
      <point x="786" y="426"/>
      <point x="747" y="386"/>
      <point x="733" y="324" type="curve"/>
      <point x="748" y="318"/>
      <point x="768" y="307"/>
      <point x="771" y="292" type="curve" smooth="yes"/>
      <point x="767" y="252"/>
      <point x="711" y="194"/>
      <point x="654" y="182" type="curve"/>
      <point x="620" y="205"/>
      <point x="608" y="252"/>
      <point x="613" y="299" type="curve" smooth="yes"/>
      <point x="618" y="345"/>
      <point x="654" y="390"/>
      <point x="695" y="422" type="curve"/>
      <point x="694" y="465"/>
      <point x="660" y="492"/>
    </contour>
    <contour>
      <point x="585" y="-73" type="curve" smooth="yes"/>
      <point x="620" y="-73"/>
      <point x="648" y="-45"/>
      <point x="648" y="-10" type="curve" smooth="yes"/>
      <point x="648" y="25"/>
      <point x="620" y="53"/>
      <point x="585" y="53" type="curve" smooth="yes"/>
      <point x="549" y="53"/>
      <point x="521" y="25"/>
      <point x="521" y="-10" type="curve" smooth="yes"/>
      <point x="521" y="-45"/>
      <point x="549" y="-73"/>
    </contour>
  </outline>
</glyph>
<glyph name="dvL_KA" format="1">
  <advance width="1194"/>
  <outline>
    <contour>
      <point x="841" y="4" type="move" name="blwm"/>
    </contour>
    <contour>
      <point x="820" y="640" type="move" name="abvm_Ekaar"/>
    </contour>
    <contour>
      <point x="625" y="569" type="line"/>
      <point x="640" y="579"/>
      <point x="648" y="595"/>
      <point x="652" y="610" type="curve"/>
      <point x="640" y="623" type="line"/>
      <point x="20" y="623" type="line"/>
      <point x="6" y="613"/>
      <point x="-4" y="597"/>
      <point x="-10" y="584" type="curve"/>
      <point x="6" y="569" type="line"/>
    </contour>
    <contour>
      <point x="526" y="442" type="line"/>
      <point x="468" y="380"/>
      <point x="424" y="340"/>
      <point x="357" y="292" type="curve"/>
      <point x="350" y="298" type="line"/>
      <point x="361" y="314"/>
      <point x="373" y="331"/>
      <point x="382" y="347" type="curve" smooth="yes"/>
      <point x="378" y="402"/>
      <point x="351" y="447"/>
      <point x="297" y="468" type="curve"/>
      <point x="269" y="474"/>
      <point x="222" y="473"/>
      <point x="186" y="467" type="curve"/>
      <point x="101" y="430"/>
      <point x="6" y="333"/>
      <point x="6" y="256" type="curve" smooth="yes"/>
      <point x="6" y="177"/>
      <point x="82" y="62"/>
      <point x="185" y="-2" type="curve"/>
      <point x="253" y="11"/>
      <point x="283" y="60"/>
      <point x="273" y="95" type="curve"/>
      <point x="187" y="143"/>
      <point x="151" y="197"/>
      <point x="139" y="256" type="curve" smooth="yes"/>
      <point x="141" y="311"/>
      <point x="184" y="371"/>
      <point x="227" y="388" type="curve"/>
      <point x="258" y="381"/>
      <point x="275" y="359"/>
      <point x="281" y="335" type="curve" smooth="yes"/>
      <point x="274" y="314"/>
      <point x="259" y="291"/>
      <point x="240" y="269" type="curve"/>
      <point x="241" y="236"/>
      <point x="287" y="198"/>
      <point x="352" y="191" type="curve"/>
      <point x="423" y="247"/>
      <point x="508" y="328"/>
      <point x="566" y="386" type="curve"/>
    </contour>
    <contour>
      <point x="786" y="425" type="line"/>
      <point x="781" y="423" type="line"/>
      <point x="752" y="462"/>
      <point x="715" y="513"/>
      <point x="683" y="513" type="curve"/>
      <point x="558" y="513"/>
      <point x="437" y="367"/>
      <point x="437" y="242" type="curve" smooth="yes"/>
      <point x="437" y="147"/>
      <point x="516" y="98"/>
      <point x="619" y="95" type="curve"/>
      <point x="666" y="150"/>
      <point x="705" y="192"/>
      <point x="746" y="235" type="curve"/>
      <point x="757" y="226" type="line"/>
      <point x="717" y="156" type="line"/>
      <point x="690" y="41" type="line"/>
      <point x="737" y="1"/>
      <point x="810" y="-10"/>
      <point x="851" y="11" type="curve"/>
      <point x="881" y="318" type="line"/>
      <point x="894" y="358" type="line"/>
      <point x="864" y="381" type="line"/>
      <point x="904" y="458"/>
      <point x="943" y="532"/>
      <point x="981" y="609" type="curve"/>
      <point x="959" y="645"/>
      <point x="920" y="660"/>
      <point x="829" y="653" type="curve"/>
    </contour>
    <contour>
      <point x="1322" y="569" type="line"/>
      <point x="1336" y="579"/>
      <point x="1344" y="595"/>
      <point x="1348" y="610" type="curve"/>
      <point x="1336" y="623" type="line"/>
      <point x="428" y="623" type="line"/>
      <point x="413" y="613"/>
      <point x="404" y="597"/>
      <point x="398" y="584" type="curve"/>
      <point x="413" y="569" type="line"/>
    </contour>
    <contour>
      <point x="610" y="173" type="curve"/>
      <point x="588" y="184"/>
      <point x="575" y="206"/>
      <point x="575" y="246" type="curve" smooth="yes"/>
      <point x="575" y="329"/>
      <point x="636" y="422"/>
      <point x="692" y="435" type="curve" smooth="yes"/>
      <point x="719" y="426"/>
      <point x="744" y="391"/>
      <point x="767" y="352" type="curve"/>
      <point x="758" y="316" type="line"/>
      <point x="713" y="270"/>
      <point x="652" y="211"/>
    </contour>
    <contour>
      <point x="857" y="288" type="line"/>
      <point x="903" y="333"/>
      <point x="967" y="390"/>
      <point x="999" y="419" type="curve"/>
      <point x="1039" y="414"/>
      <point x="1061" y="388"/>
      <point x="1061" y="350" type="curve" smooth="yes"/>
      <point x="1061" y="281"/>
      <point x="1031" y="219"/>
      <point x="935" y="144" type="curve"/>
      <point x="928" y="124"/>
      <point x="941" y="110"/>
      <point x="974" y="97" type="curve"/>
      <point x="1095" y="179"/>
      <point x="1187" y="262"/>
      <point x="1187" y="376" type="curve" smooth="yes"/>
      <point x="1187" y="467"/>
      <point x="1106" y="521"/>
      <point x="995" y="500" type="curve"/>
      <point x="941" y="445"/>
      <point x="876" y="377"/>
      <point x="822" y="323" type="curve"/>
    </contour>
  </outline>
</glyph>
<glyph name="dvL_KHA" format="1">
  <advance width="1296"/>
  <outline>
    <contour>
      <point x="625" y="569" type="line"/>
      <point x="640" y="579"/>
      <point x="648" y="595"/>
      <point x="652" y="610" type="curve"/>
      <point x="640" y="623" type="line"/>
      <point x="20" y="623" type="line"/>
      <point x="6" y="613"/>
      <point x="-4" y="597"/>
      <point x="-10" y="584" type="curve"/>
      <point x="6" y="569" type="line"/>
    </contour>
    <contour>
      <point x="491" y="395" type="line"/>
      <point x="447" y="348"/>
      <point x="410" y="320"/>
      <point x="361" y="292" type="curve"/>
      <point x="354" y="298" type="line"/>
      <point x="366" y="314"/>
      <point x="377" y="331"/>
      <point x="386" y="347" type="curve" smooth="yes"/>
      <point x="382" y="402"/>
      <point x="355" y="447"/>
      <point x="302" y="468" type="curve"/>
      <point x="273" y="474"/>
      <point x="226" y="473"/>
      <point x="190" y="467" type="curve"/>
      <point x="105" y="430"/>
      <point x="11" y="333"/>
      <point x="11" y="256" type="curve" smooth="yes"/>
      <point x="11" y="177"/>
      <point x="87" y="62"/>
      <point x="189" y="-2" type="curve"/>
      <point x="257" y="11"/>
      <point x="288" y="60"/>
      <point x="277" y="95" type="curve"/>
      <point x="191" y="143"/>
      <point x="155" y="197"/>
      <point x="144" y="256" type="curve" smooth="yes"/>
      <point x="145" y="311"/>
      <point x="188" y="371"/>
      <point x="231" y="388" type="curve"/>
      <point x="262" y="381"/>
      <point x="280" y="359"/>
      <point x="285" y="335" type="curve" smooth="yes"/>
      <point x="279" y="314"/>
      <point x="264" y="291"/>
      <point x="244" y="269" type="curve"/>
      <point x="245" y="236"/>
      <point x="292" y="198"/>
      <point x="356" y="191" type="curve"/>
      <point x="429" y="245"/>
      <point x="487" y="291"/>
      <point x="533" y="349" type="curve"/>
    </contour>
    <contour>
      <point x="1424" y="569" type="line"/>
      <point x="1439" y="579"/>
      <point x="1447" y="595"/>
      <point x="1451" y="610" type="curve"/>
      <point x="1439" y="623" type="line"/>
      <point x="434" y="623" type="line"/>
      <point x="419" y="613"/>
      <point x="409" y="597"/>
      <point x="404" y="584" type="curve"/>
      <point x="419" y="569" type="line"/>
    </contour>
    <contour>
      <point x="996" y="238" type="curve"/>
      <point x="970" y="238"/>
      <point x="954" y="258"/>
      <point x="954" y="287" type="curve" smooth="yes"/>
      <point x="954" y="336"/>
      <point x="996" y="426"/>
      <point x="1049" y="437" type="curve" smooth="yes"/>
      <point x="1075" y="429"/>
      <point x="1092" y="392"/>
      <point x="1100" y="358" type="curve"/>
      <point x="1095" y="331" type="line"/>
      <point x="1075" y="285"/>
      <point x="1031" y="238"/>
    </contour>
    <contour>
      <point x="717" y="37" type="curve"/>
      <point x="828" y="51"/>
      <point x="1004" y="147"/>
      <point x="1071" y="211" type="curve"/>
      <point x="1081" y="200" type="line"/>
      <point x="1054" y="164" type="line"/>
      <point x="1024" y="41" type="line"/>
      <point x="1072" y="1"/>
      <point x="1144" y="-10"/>
      <point x="1185" y="11" type="curve"/>
      <point x="1227" y="431" type="line"/>
      <point x="1316" y="609" type="line"/>
      <point x="1294" y="645"/>
      <point x="1254" y="660"/>
      <point x="1163" y="653" type="curve"/>
      <point x="1122" y="433" type="line"/>
      <point x="1117" y="431" type="line"/>
      <point x="1103" y="475"/>
      <point x="1078" y="513"/>
      <point x="1038" y="513" type="curve" smooth="yes"/>
      <point x="928" y="513"/>
      <point x="840" y="368"/>
      <point x="840" y="285" type="curve" smooth="yes"/>
      <point x="840" y="239"/>
      <point x="871" y="201"/>
      <point x="929" y="198" type="curve"/>
      <point x="933" y="193" type="line"/>
      <point x="878" y="169"/>
      <point x="798" y="133"/>
      <point x="743" y="131" type="curve" smooth="yes"/>
      <point x="681" y="143"/>
      <point x="615" y="215"/>
      <point x="573" y="263" type="curve"/>
      <point x="578" y="271" type="line"/>
      <point x="713" y="284"/>
      <point x="872" y="389"/>
      <point x="872" y="500" type="curve" smooth="yes"/>
      <point x="872" y="547"/>
      <point x="793" y="623"/>
      <point x="720" y="623" type="curve" smooth="yes"/>
      <point x="642" y="623"/>
      <point x="572" y="589"/>
      <point x="544" y="556" type="curve"/>
      <point x="532" y="525"/>
      <point x="560" y="491"/>
      <point x="610" y="476" type="curve"/>
      <point x="641" y="508"/>
      <point x="685" y="529"/>
      <point x="720" y="529" type="curve" smooth="yes"/>
      <point x="740" y="529"/>
      <point x="758" y="506"/>
      <point x="761" y="487" type="curve" smooth="yes"/>
      <point x="759" y="411"/>
      <point x="670" y="345"/>
      <point x="554" y="326" type="curve"/>
      <point x="531" y="352" type="line"/>
      <point x="477" y="350"/>
      <point x="438" y="304"/>
      <point x="430" y="248" type="curve"/>
      <point x="496" y="157"/>
      <point x="601" y="59"/>
    </contour>
  </outline>
</glyph>
<glyph name="dvL_K_YA" format="1">
  <advance width="1676"/>
  <outline>
    <contour>
      <point x="625" y="569" type="line"/>
      <point x="640" y="579"/>
      <point x="648" y="595"/>
      <point x="652" y="610" type="curve"/>
      <point x="640" y="623" type="line"/>
      <point x="20" y="623" type="line"/>
      <point x="6" y="613"/>
      <point x="-4" y="597"/>
      <point x="-10" y="584" type="curve"/>
      <point x="6" y="569" type="line"/>
    </contour>
    <contour>
      <point x="526" y="442" type="line"/>
      <point x="468" y="380"/>
      <point x="424" y="340"/>
      <point x="357" y="292" type="curve"/>
      <point x="350" y="298" type="line"/>
      <point x="361" y="314"/>
      <point x="373" y="331"/>
      <point x="382" y="347" type="curve" smooth="yes"/>
      <point x="378" y="402"/>
      <point x="351" y="447"/>
      <point x="297" y="468" type="curve"/>
      <point x="269" y="474"/>
      <point x="222" y="473"/>
      <point x="186" y="467" type="curve"/>
      <point x="101" y="430"/>
      <point x="6" y="333"/>
      <point x="6" y="256" type="curve" smooth="yes"/>
      <point x="6" y="177"/>
      <point x="82" y="62"/>
      <point x="185" y="-2" type="curve"/>
      <point x="253" y="11"/>
      <point x="283" y="60"/>
      <point x="273" y="95" type="curve"/>
      <point x="187" y="143"/>
      <point x="151" y="197"/>
      <point x="139" y="256" type="curve" smooth="yes"/>
      <point x="141" y="311"/>
      <point x="184" y="371"/>
      <point x="227" y="388" type="curve"/>
      <point x="258" y="381"/>
      <point x="275" y="359"/>
      <point x="281" y="335" type="curve" smooth="yes"/>
      <point x="274" y="314"/>
      <point x="259" y="291"/>
      <point x="240" y="269" type="curve"/>
      <point x="241" y="236"/>
      <point x="287" y="198"/>
      <point x="352" y="191" type="curve"/>
      <point x="423" y="247"/>
      <point x="508" y="328"/>
      <point x="566" y="386" type="curve"/>
    </contour>
    <contour>
      <point x="786" y="425" type="line"/>
      <point x="781" y="423" type="line"/>
      <point x="752" y="462"/>
      <point x="715" y="513"/>
      <point x="683" y="513" type="curve"/>
      <point x="558" y="513"/>
      <point x="437" y="367"/>
      <point x="437" y="242" type="curve" smooth="yes"/>
      <point x="437" y="147"/>
      <point x="516" y="98"/>
      <point x="619" y="95" type="curve"/>
      <point x="666" y="150"/>
      <point x="705" y="192"/>
      <point x="746" y="235" type="curve"/>
      <point x="757" y="226" type="line"/>
      <point x="717" y="156" type="line"/>
      <point x="690" y="41" type="line"/>
      <point x="737" y="1"/>
      <point x="810" y="-10"/>
      <point x="851" y="11" type="curve"/>
      <point x="881" y="318" type="line"/>
      <point x="894" y="358" type="line"/>
      <point x="864" y="381" type="line"/>
      <point x="904" y="458"/>
      <point x="943" y="532"/>
      <point x="981" y="609" type="curve"/>
      <point x="959" y="645"/>
      <point x="920" y="660"/>
      <point x="829" y="653" type="curve"/>
    </contour>
    <contour>
      <point x="1170" y="569" type="line"/>
      <point x="1185" y="579"/>
      <point x="1193" y="595"/>
      <point x="1197" y="610" type="curve"/>
      <point x="1185" y="623" type="line"/>
      <point x="428" y="623" type="line"/>
      <point x="413" y="613"/>
      <point x="404" y="597"/>
      <point x="398" y="584" type="curve"/>
      <point x="413" y="569" type="line"/>
    </contour>
    <contour>
      <point x="610" y="173" type="curve"/>
      <point x="588" y="184"/>
      <point x="575" y="206"/>
      <point x="575" y="246" type="curve" smooth="yes"/>
      <point x="575" y="329"/>
      <point x="636" y="422"/>
      <point x="692" y="435" type="curve" smooth="yes"/>
      <point x="719" y="426"/>
      <point x="744" y="391"/>
      <point x="767" y="352" type="curve"/>
      <point x="758" y="316" type="line"/>
      <point x="713" y="270"/>
      <point x="652" y="211"/>
    </contour>
    <contour>
      <point x="1171" y="362" type="line"/>
      <point x="1160" y="437"/>
      <point x="1112" y="509"/>
      <point x="995" y="500" type="curve"/>
      <point x="941" y="445"/>
      <point x="876" y="377"/>
      <point x="822" y="323" type="curve"/>
      <point x="857" y="288" type="line"/>
      <point x="903" y="333"/>
      <point x="967" y="390"/>
      <point x="999" y="419" type="curve"/>
      <point x="1045" y="417"/>
      <point x="1079" y="369"/>
      <point x="1074" y="306" type="curve"/>
    </contour>
    <contour>
      <point x="1701" y="609" type="line"/>
      <point x="1678" y="645"/>
      <point x="1639" y="660"/>
      <point x="1548" y="653" type="curve"/>
      <point x="1468" y="299" type="line"/>
      <point x="1491" y="277" type="line"/>
      <point x="1449" y="210" type="line"/>
      <point x="1409" y="41" type="line"/>
      <point x="1456" y="1"/>
      <point x="1529" y="-10"/>
      <point x="1570" y="11" type="curve"/>
      <point x="1612" y="431" type="line"/>
    </contour>
    <contour>
      <point x="1804" y="569" type="line"/>
      <point x="1819" y="579"/>
      <point x="1827" y="595"/>
      <point x="1831" y="610" type="curve"/>
      <point x="1819" y="623" type="line"/>
      <point x="1037" y="623" type="line"/>
      <point x="1022" y="613"/>
      <point x="1011" y="597"/>
      <point x="1006" y="584" type="curve"/>
      <point x="1022" y="569" type="line"/>
    </contour>
    <contour>
      <point x="1106" y="562" type="curve"/>
      <point x="1091" y="529"/>
      <point x="1120" y="496"/>
      <point x="1173" y="483" type="curve"/>
      <point x="1202" y="504"/>
      <point x="1232" y="520"/>
      <point x="1263" y="523" type="curve" smooth="yes"/>
      <point x="1283" y="525"/>
      <point x="1308" y="519"/>
      <point x="1317" y="505" type="curve" smooth="yes"/>
      <point x="1308" y="399"/>
      <point x="1042" y="340"/>
      <point x="1042" y="263" type="curve" smooth="yes"/>
      <point x="1042" y="201"/>
      <point x="1153" y="120"/>
      <point x="1218" y="120" type="curve" smooth="yes"/>
      <point x="1292" y="120"/>
      <point x="1469" y="251"/>
      <point x="1532" y="356" type="curve"/>
      <point x="1490" y="392" type="line"/>
      <point x="1432" y="308"/>
      <point x="1328" y="230"/>
      <point x="1264" y="212" type="curve" smooth="yes"/>
      <point x="1232" y="212"/>
      <point x="1189" y="247"/>
      <point x="1193" y="276" type="curve" smooth="yes"/>
      <point x="1235" y="332"/>
      <point x="1431" y="429"/>
      <point x="1431" y="522" type="curve" smooth="yes"/>
      <point x="1431" y="569"/>
      <point x="1355" y="623"/>
      <point x="1275" y="623" type="curve" smooth="yes"/>
      <point x="1225" y="623"/>
      <point x="1147" y="598"/>
    </contour>
  </outline>
</glyph>
<glyph name="dvL_LA" format="1">
  <advance width="1138"/>
  <outline>
    <contour>
      <point x="625" y="569" type="line"/>
      <point x="640" y="579"/>
      <point x="648" y="595"/>
      <point x="652" y="610" type="curve"/>
      <point x="640" y="623" type="line"/>
      <point x="20" y="623" type="line"/>
      <point x="6" y="613"/>
      <point x="-4" y="597"/>
      <point x="-10" y="584" type="curve"/>
      <point x="6" y="569" type="line"/>
    </contour>
    <contour>
      <point x="514" y="403" type="line"/>
      <point x="471" y="366"/>
      <point x="409" y="323"/>
      <point x="356" y="288" type="curve"/>
      <point x="349" y="294" type="line"/>
      <point x="361" y="310"/>
      <point x="373" y="331"/>
      <point x="382" y="347" type="curve" smooth="yes"/>
      <point x="378" y="402"/>
      <point x="351" y="447"/>
      <point x="297" y="468" type="curve"/>
      <point x="269" y="474"/>
      <point x="222" y="473"/>
      <point x="186" y="467" type="curve"/>
      <point x="101" y="430"/>
      <point x="6" y="333"/>
      <point x="6" y="256" type="curve" smooth="yes"/>
      <point x="6" y="177"/>
      <point x="82" y="62"/>
      <point x="185" y="-2" type="curve"/>
      <point x="253" y="11"/>
      <point x="283" y="60"/>
      <point x="273" y="95" type="curve"/>
      <point x="187" y="143"/>
      <point x="151" y="197"/>
      <point x="139" y="256" type="curve" smooth="yes"/>
      <point x="141" y="311"/>
      <point x="184" y="371"/>
      <point x="227" y="388" type="curve"/>
      <point x="258" y="381"/>
      <point x="275" y="359"/>
      <point x="281" y="335" type="curve" smooth="yes"/>
      <point x="274" y="314"/>
      <point x="259" y="291"/>
      <point x="240" y="269" type="curve"/>
      <point x="241" y="236"/>
      <point x="287" y="198"/>
      <point x="352" y="191" type="curve"/>
      <point x="413" y="240"/>
      <point x="493" y="304"/>
      <point x="549" y="358" type="curve"/>
    </contour>
    <contour>
      <point x="1163" y="609" type="line"/>
      <point x="1141" y="645"/>
      <point x="1101" y="660"/>
      <point x="1010" y="653" type="curve"/>
      <point x="943" y="357" type="line"/>
      <point x="959" y="339" type="line"/>
      <point x="927" y="286" type="line"/>
      <point x="871" y="41" type="line"/>
      <point x="919" y="1"/>
      <point x="991" y="-10"/>
      <point x="1032" y="11" type="curve"/>
      <point x="1074" y="431" type="line"/>
    </contour>
    <contour>
      <point x="1266" y="569" type="line"/>
      <point x="1281" y="579"/>
      <point x="1289" y="595"/>
      <point x="1293" y="610" type="curve"/>
      <point x="1281" y="623" type="line"/>
      <point x="442" y="623" type="line"/>
      <point x="428" y="613"/>
      <point x="418" y="597"/>
      <point x="412" y="584" type="curve"/>
      <point x="428" y="569" type="line"/>
    </contour>
    <contour>
      <point x="763" y="282" type="line"/>
      <point x="777" y="300"/>
      <point x="791" y="322"/>
      <point x="803" y="341" type="curve"/>
      <point x="797" y="399"/>
      <point x="771" y="444"/>
      <point x="716" y="468" type="curve"/>
      <point x="692" y="474"/>
      <point x="647" y="474"/>
      <point x="612" y="469" type="curve"/>
      <point x="526" y="431"/>
      <point x="428" y="329"/>
      <point x="428" y="253" type="curve" smooth="yes"/>
      <point x="428" y="178"/>
      <point x="502" y="64"/>
      <point x="607" y="0" type="curve"/>
      <point x="681" y="13"/>
      <point x="711" y="63"/>
      <point x="690" y="99" type="curve"/>
      <point x="606" y="140"/>
      <point x="569" y="196"/>
      <point x="552" y="264" type="curve"/>
      <point x="558" y="316"/>
      <point x="609" y="384"/>
      <point x="651" y="393" type="curve"/>
      <point x="682" y="386"/>
      <point x="701" y="358"/>
      <point x="707" y="327" type="curve"/>
      <point x="696" y="308"/>
      <point x="682" y="292"/>
      <point x="665" y="274" type="curve"/>
      <point x="660" y="237"/>
      <point x="702" y="199"/>
      <point x="773" y="191" type="curve"/>
      <point x="851" y="254"/>
      <point x="946" y="341"/>
      <point x="999" y="394" type="curve"/>
      <point x="967" y="457" type="line"/>
      <point x="904" y="386"/>
      <point x="830" y="318"/>
      <point x="770" y="278" type="curve"/>
    </contour>
  </outline>
</glyph>
<glyph name="dvL_L_YA" format="1">
  <advance width="1460"/>
  <outline>
    <contour>
      <point x="625" y="569" type="line"/>
      <point x="640" y="579"/>
      <point x="648" y="595"/>
      <point x="652" y="610" type="curve"/>
      <point x="640" y="623" type="line"/>
      <point x="20" y="623" type="line"/>
      <point x="6" y="613"/>
      <point x="-4" y="597"/>
      <point x="-10" y="584" type="curve"/>
      <point x="6" y="569" type="line"/>
    </contour>
    <contour>
      <point x="514" y="403" type="line"/>
      <point x="471" y="366"/>
      <point x="409" y="323"/>
      <point x="356" y="288" type="curve"/>
      <point x="349" y="294" type="line"/>
      <point x="361" y="310"/>
      <point x="373" y="331"/>
      <point x="382" y="347" type="curve" smooth="yes"/>
      <point x="378" y="402"/>
      <point x="351" y="447"/>
      <point x="297" y="468" type="curve"/>
      <point x="269" y="474"/>
      <point x="222" y="473"/>
      <point x="186" y="467" type="curve"/>
      <point x="101" y="430"/>
      <point x="6" y="333"/>
      <point x="6" y="256" type="curve" smooth="yes"/>
      <point x="6" y="177"/>
      <point x="82" y="62"/>
      <point x="185" y="-2" type="curve"/>
      <point x="253" y="11"/>
      <point x="283" y="60"/>
      <point x="273" y="95" type="curve"/>
      <point x="187" y="143"/>
      <point x="151" y="197"/>
      <point x="139" y="256" type="curve" smooth="yes"/>
      <point x="141" y="311"/>
      <point x="184" y="371"/>
      <point x="227" y="388" type="curve"/>
      <point x="258" y="381"/>
      <point x="275" y="359"/>
      <point x="281" y="335" type="curve" smooth="yes"/>
      <point x="274" y="314"/>
      <point x="259" y="291"/>
      <point x="240" y="269" type="curve"/>
      <point x="241" y="236"/>
      <point x="287" y="198"/>
      <point x="352" y="191" type="curve"/>
      <point x="413" y="240"/>
      <point x="493" y="304"/>
      <point x="549" y="358" type="curve"/>
    </contour>
    <contour>
      <point x="1049" y="569" type="line"/>
      <point x="1064" y="579"/>
      <point x="1072" y="595"/>
      <point x="1076" y="610" type="curve"/>
      <point x="1064" y="623" type="line"/>
      <point x="445" y="623" type="line"/>
      <point x="430" y="613"/>
      <point x="420" y="597"/>
      <point x="414" y="584" type="curve"/>
      <point x="430" y="569" type="line"/>
    </contour>
    <contour>
      <point x="949" y="360" type="line"/>
      <point x="890" y="324"/>
      <point x="831" y="299"/>
      <point x="778" y="282" type="curve"/>
      <point x="771" y="287" type="line"/>
      <point x="786" y="308"/>
      <point x="797" y="331"/>
      <point x="806" y="347" type="curve" smooth="yes"/>
      <point x="802" y="402"/>
      <point x="775" y="447"/>
      <point x="721" y="468" type="curve"/>
      <point x="693" y="474"/>
      <point x="646" y="473"/>
      <point x="610" y="467" type="curve"/>
      <point x="525" y="430"/>
      <point x="430" y="333"/>
      <point x="430" y="256" type="curve" smooth="yes"/>
      <point x="430" y="177"/>
      <point x="507" y="62"/>
      <point x="609" y="-2" type="curve"/>
      <point x="677" y="11"/>
      <point x="708" y="60"/>
      <point x="697" y="95" type="curve"/>
      <point x="611" y="143"/>
      <point x="575" y="197"/>
      <point x="563" y="256" type="curve" smooth="yes"/>
      <point x="565" y="311"/>
      <point x="608" y="371"/>
      <point x="651" y="388" type="curve"/>
      <point x="682" y="381"/>
      <point x="699" y="359"/>
      <point x="705" y="335" type="curve" smooth="yes"/>
      <point x="698" y="314"/>
      <point x="683" y="291"/>
      <point x="664" y="269" type="curve"/>
      <point x="662" y="235"/>
      <point x="709" y="197"/>
      <point x="776" y="191" type="curve"/>
      <point x="848" y="223"/>
      <point x="920" y="270"/>
      <point x="980" y="315" type="curve"/>
    </contour>
    <contour>
      <point x="1485" y="609" type="line"/>
      <point x="1463" y="645"/>
      <point x="1423" y="660"/>
      <point x="1332" y="653" type="curve"/>
      <point x="1253" y="299" type="line"/>
      <point x="1276" y="277" type="line"/>
      <point x="1233" y="210" type="line"/>
      <point x="1193" y="41" type="line"/>
      <point x="1241" y="1"/>
      <point x="1313" y="-10"/>
      <point x="1354" y="11" type="curve"/>
      <point x="1396" y="431" type="line"/>
    </contour>
    <contour>
      <point x="1588" y="569" type="line"/>
      <point x="1603" y="579"/>
      <point x="1611" y="595"/>
      <point x="1615" y="610" type="curve"/>
      <point x="1603" y="623" type="line"/>
      <point x="821" y="623" type="line"/>
      <point x="806" y="613"/>
      <point x="796" y="597"/>
      <point x="790" y="584" type="curve"/>
      <point x="806" y="569" type="line"/>
    </contour>
    <contour>
      <point x="890" y="562" type="curve"/>
      <point x="875" y="529"/>
      <point x="904" y="496"/>
      <point x="957" y="483" type="curve"/>
      <point x="987" y="504"/>
      <point x="1016" y="520"/>
      <point x="1047" y="523" type="curve" smooth="yes"/>
      <point x="1068" y="525"/>
      <point x="1092" y="519"/>
      <point x="1101" y="505" type="curve" smooth="yes"/>
      <point x="1093" y="399"/>
      <point x="826" y="340"/>
      <point x="826" y="263" type="curve" smooth="yes"/>
      <point x="826" y="201"/>
      <point x="938" y="120"/>
      <point x="1002" y="120" type="curve" smooth="yes"/>
      <point x="1076" y="120"/>
      <point x="1253" y="251"/>
      <point x="1316" y="356" type="curve"/>
      <point x="1274" y="392" type="line"/>
      <point x="1217" y="308"/>
      <point x="1112" y="230"/>
      <point x="1048" y="212" type="curve" smooth="yes"/>
      <point x="1017" y="212"/>
      <point x="974" y="247"/>
      <point x="978" y="276" type="curve" smooth="yes"/>
      <point x="1020" y="332"/>
      <point x="1215" y="429"/>
      <point x="1215" y="522" type="curve" smooth="yes"/>
      <point x="1215" y="569"/>
      <point x="1139" y="623"/>
      <point x="1059" y="623" type="curve" smooth="yes"/>
      <point x="1009" y="623"/>
      <point x="932" y="598"/>
    </contour>
  </outline>
</glyph>
<glyph name="dvL_MA" format="1">
  <advance width="1070"/>
  <outline>
    <contour>
      <point x="625" y="569" type="line"/>
      <point x="639" y="578"/>
      <point x="648" y="594"/>
      <point x="652" y="610" type="curve"/>
      <point x="640" y="623" type="line"/>
      <point x="20" y="623" type="line"/>
      <point x="7" y="614"/>
      <point x="-4" y="598"/>
      <point x="-10" y="584" type="curve"/>
      <point x="6" y="569" type="line"/>
    </contour>
    <contour>
      <point x="512" y="340" type="line"/>
      <point x="467" y="320"/>
      <point x="398" y="293"/>
      <point x="352" y="283" type="curve"/>
      <point x="345" y="289" type="line"/>
      <point x="360" y="307"/>
      <point x="373" y="331"/>
      <point x="382" y="347" type="curve" smooth="yes"/>
      <point x="378" y="402"/>
      <point x="351" y="447"/>
      <point x="297" y="468" type="curve"/>
      <point x="269" y="474"/>
      <point x="222" y="473"/>
      <point x="186" y="467" type="curve"/>
      <point x="101" y="430"/>
      <point x="6" y="333"/>
      <point x="6" y="256" type="curve" smooth="yes"/>
      <point x="6" y="177"/>
      <point x="82" y="62"/>
      <point x="185" y="-2" type="curve"/>
      <point x="253" y="11"/>
      <point x="283" y="60"/>
      <point x="273" y="95" type="curve"/>
      <point x="187" y="143"/>
      <point x="151" y="197"/>
      <point x="139" y="256" type="curve" smooth="yes"/>
      <point x="141" y="311"/>
      <point x="184" y="371"/>
      <point x="227" y="388" type="curve"/>
      <point x="258" y="381"/>
      <point x="275" y="359"/>
      <point x="281" y="335" type="curve" smooth="yes"/>
      <point x="274" y="314"/>
      <point x="259" y="291"/>
      <point x="240" y="269" type="curve"/>
      <point x="241" y="236"/>
      <point x="288" y="198"/>
      <point x="352" y="191" type="curve"/>
      <point x="401" y="209"/>
      <point x="479" y="249"/>
      <point x="539" y="295" type="curve"/>
    </contour>
    <contour>
      <point x="1198" y="569" type="line"/>
      <point x="1213" y="579"/>
      <point x="1221" y="595"/>
      <point x="1225" y="610" type="curve"/>
      <point x="1213" y="623" type="line"/>
      <point x="442" y="623" type="line"/>
      <point x="427" y="613"/>
      <point x="417" y="597"/>
      <point x="411" y="584" type="curve"/>
      <point x="427" y="569" type="line"/>
    </contour>
    <contour>
      <point x="583" y="204" type="line"/>
      <point x="550" y="217"/>
      <point x="526" y="238"/>
      <point x="505" y="276" type="curve"/>
      <point x="489" y="250" type="line"/>
      <point x="646" y="326"/>
      <point x="795" y="401"/>
      <point x="936" y="486" type="curve"/>
      <point x="908" y="530" type="line"/>
      <point x="784" y="452"/>
      <point x="597" y="366"/>
      <point x="460" y="307" type="curve"/>
      <point x="432" y="291"/>
      <point x="424" y="260"/>
      <point x="423" y="224" type="curve"/>
      <point x="453" y="170"/>
      <point x="512" y="133"/>
      <point x="570" y="122" type="curve"/>
      <point x="616" y="122"/>
      <point x="671" y="137"/>
      <point x="698" y="169" type="curve"/>
      <point x="737" y="273"/>
      <point x="772" y="469"/>
      <point x="780" y="610" type="curve"/>
      <point x="626" y="591" type="line"/>
      <point x="650" y="474" type="line"/>
      <point x="648" y="377"/>
      <point x="624" y="283"/>
      <point x="593" y="211" type="curve"/>
    </contour>
    <contour>
      <point x="1059" y="483" type="line"/>
      <point x="1034" y="520"/>
      <point x="993" y="536"/>
      <point x="908" y="530" type="curve"/>
      <point x="886" y="457" type="line"/>
      <point x="897" y="451" type="line"/>
      <point x="801" y="41" type="line"/>
      <point x="849" y="1"/>
      <point x="921" y="-10"/>
      <point x="962" y="11" type="curve"/>
      <point x="994" y="372" type="line"/>
    </contour>
  </outline>
</glyph>
<glyph name="dvL_PA" format="1">
  <advance width="1027"/>
  <outline>
    <contour>
      <point x="350" y="298" type="line"/>
      <point x="361" y="314"/>
      <point x="373" y="331"/>
      <point x="382" y="347" type="curve" smooth="yes"/>
      <point x="378" y="402"/>
      <point x="351" y="447"/>
      <point x="297" y="468" type="curve"/>
      <point x="269" y="474"/>
      <point x="222" y="473"/>
      <point x="186" y="467" type="curve"/>
      <point x="101" y="430"/>
      <point x="6" y="333"/>
      <point x="6" y="256" type="curve" smooth="yes"/>
      <point x="6" y="177"/>
      <point x="82" y="62"/>
      <point x="185" y="-2" type="curve"/>
      <point x="253" y="11"/>
      <point x="283" y="60"/>
      <point x="273" y="95" type="curve"/>
      <point x="187" y="143"/>
      <point x="151" y="197"/>
      <point x="139" y="256" type="curve" smooth="yes"/>
      <point x="141" y="311"/>
      <point x="184" y="371"/>
      <point x="227" y="388" type="curve"/>
      <point x="258" y="381"/>
      <point x="275" y="359"/>
      <point x="281" y="335" type="curve" smooth="yes"/>
      <point x="274" y="314"/>
      <point x="259" y="291"/>
      <point x="240" y="269" type="curve"/>
      <point x="241" y="236"/>
      <point x="287" y="198"/>
      <point x="352" y="191" type="curve"/>
      <point x="423" y="247"/>
      <point x="518" y="336"/>
      <point x="577" y="394" type="curve"/>
      <point x="545" y="460" type="line"/>
      <point x="491" y="399"/>
      <point x="426" y="341"/>
      <point x="357" y="292" type="curve"/>
    </contour>
    <contour>
      <point x="625" y="569" type="line"/>
      <point x="640" y="579"/>
      <point x="648" y="595"/>
      <point x="652" y="610" type="curve"/>
      <point x="640" y="623" type="line"/>
      <point x="20" y="623" type="line"/>
      <point x="6" y="613"/>
      <point x="-4" y="597"/>
      <point x="-10" y="584" type="curve"/>
      <point x="6" y="569" type="line"/>
    </contour>
    <contour>
      <point x="1052" y="609" type="line"/>
      <point x="1030" y="645"/>
      <point x="990" y="660"/>
      <point x="900" y="653" type="curve"/>
      <point x="832" y="352" type="line"/>
      <point x="845" y="340" type="line"/>
      <point x="818" y="292" type="line"/>
      <point x="760" y="41" type="line"/>
      <point x="808" y="1"/>
      <point x="880" y="-10"/>
      <point x="922" y="11" type="curve"/>
      <point x="963" y="431" type="line"/>
    </contour>
    <contour>
      <point x="1155" y="569" type="line"/>
      <point x="1170" y="579"/>
      <point x="1178" y="595"/>
      <point x="1182" y="610" type="curve"/>
      <point x="1170" y="623" type="line"/>
      <point x="461" y="623" type="line"/>
      <point x="446" y="613"/>
      <point x="436" y="597"/>
      <point x="430" y="584" type="curve"/>
      <point x="446" y="569" type="line"/>
    </contour>
    <contour>
      <point x="568" y="600" type="line"/>
      <point x="527" y="475"/>
      <point x="495" y="361"/>
      <point x="466" y="233" type="curve"/>
      <point x="481" y="180"/>
      <point x="553" y="150"/>
      <point x="616" y="149" type="curve"/>
      <point x="698" y="218"/>
      <point x="812" y="323"/>
      <point x="884" y="391" type="curve"/>
      <point x="850" y="429" type="line"/>
      <point x="785" y="369"/>
      <point x="684" y="291"/>
      <point x="613" y="241" type="curve"/>
      <point x="603" y="246" type="line"/>
      <point x="616" y="322"/>
      <point x="634" y="388"/>
      <point x="652" y="453" type="curve"/>
      <point x="723" y="576" type="line"/>
    </contour>
  </outline>
</glyph>
<glyph name="dvL_PHA" format="1">
  <advance width="1278"/>
  <outline>
    <contour>
      <point x="895" y="4" type="move" name="blwm"/>
    </contour>
    <contour>
      <point x="874" y="640" type="move" name="abvm_Ekaar"/>
    </contour>
    <contour>
      <point x="350" y="298" type="line"/>
      <point x="361" y="314"/>
      <point x="373" y="331"/>
      <point x="382" y="347" type="curve" smooth="yes"/>
      <point x="378" y="402"/>
      <point x="351" y="447"/>
      <point x="297" y="468" type="curve"/>
      <point x="269" y="474"/>
      <point x="222" y="473"/>
      <point x="186" y="467" type="curve"/>
      <point x="101" y="430"/>
      <point x="6" y="333"/>
      <point x="6" y="256" type="curve" smooth="yes"/>
      <point x="6" y="177"/>
      <point x="82" y="62"/>
      <point x="185" y="-2" type="curve"/>
      <point x="253" y="11"/>
      <point x="283" y="60"/>
      <point x="273" y="95" type="curve"/>
      <point x="187" y="143"/>
      <point x="151" y="197"/>
      <point x="139" y="256" type="curve" smooth="yes"/>
      <point x="141" y="311"/>
      <point x="184" y="371"/>
      <point x="227" y="388" type="curve"/>
      <point x="258" y="381"/>
      <point x="275" y="359"/>
      <point x="281" y="335" type="curve" smooth="yes"/>
      <point x="274" y="314"/>
      <point x="259" y="291"/>
      <point x="240" y="269" type="curve"/>
      <point x="241" y="236"/>
      <point x="287" y="198"/>
      <point x="352" y="191" type="curve"/>
      <point x="423" y="247"/>
      <point x="518" y="336"/>
      <point x="577" y="394" type="curve"/>
      <point x="545" y="460" type="line"/>
      <point x="491" y="399"/>
      <point x="426" y="341"/>
      <point x="357" y="292" type="curve"/>
    </contour>
    <contour>
      <point x="625" y="569" type="line"/>
      <point x="640" y="579"/>
      <point x="648" y="595"/>
      <point x="652" y="610" type="curve"/>
      <point x="640" y="623" type="line"/>
      <point x="20" y="623" type="line"/>
      <point x="6" y="613"/>
      <point x="-4" y="597"/>
      <point x="-10" y="584" type="curve"/>
      <point x="6" y="569" type="line"/>
    </contour>
    <contour>
      <point x="1036" y="609" type="line"/>
      <point x="1014" y="645"/>
      <point x="974" y="660"/>
      <point x="883" y="653" type="curve"/>
      <point x="812" y="338" type="line"/>
      <point x="825" y="326" type="line"/>
      <point x="798" y="278" type="line"/>
      <point x="744" y="41" type="line"/>
      <point x="792" y="1"/>
      <point x="864" y="-10"/>
      <point x="905" y="11" type="curve"/>
      <point x="940" y="353" type="line"/>
      <point x="917" y="376" type="line"/>
      <point x="947" y="431" type="line"/>
    </contour>
    <contour>
      <point x="1393" y="569" type="line"/>
      <point x="1408" y="579"/>
      <point x="1416" y="595"/>
      <point x="1420" y="610" type="curve"/>
      <point x="1408" y="623" type="line"/>
      <point x="461" y="623" type="line"/>
      <point x="446" y="613"/>
      <point x="437" y="597"/>
      <point x="431" y="584" type="curve"/>
      <point x="446" y="569" type="line"/>
    </contour>
    <contour>
      <point x="928" y="301" type="line"/>
      <point x="981" y="347"/>
      <point x="1041" y="396"/>
      <point x="1090" y="437" type="curve"/>
      <point x="1132" y="428"/>
      <point x="1153" y="401"/>
      <point x="1153" y="360" type="curve" smooth="yes"/>
      <point x="1153" y="287"/>
      <point x="1109" y="231"/>
      <point x="1010" y="160" type="curve"/>
      <point x="1051" y="114" type="line"/>
      <point x="1173" y="195"/>
      <point x="1278" y="265"/>
      <point x="1278" y="391" type="curve" smooth="yes"/>
      <point x="1278" y="476"/>
      <point x="1205" y="536"/>
      <point x="1089" y="522" type="curve"/>
      <point x="1023" y="458"/>
      <point x="957" y="395"/>
      <point x="893" y="336" type="curve"/>
    </contour>
    <contour>
      <point x="573" y="600" type="line"/>
      <point x="528" y="472"/>
      <point x="495" y="360"/>
      <point x="466" y="232" type="curve"/>
      <point x="479" y="182"/>
      <point x="549" y="153"/>
      <point x="614" y="152" type="curve"/>
      <point x="699" y="224"/>
      <point x="782" y="299"/>
      <point x="866" y="379" type="curve"/>
      <point x="832" y="417" type="line"/>
      <point x="761" y="351"/>
      <point x="681" y="291"/>
      <point x="611" y="244" type="curve"/>
      <point x="601" y="249" type="line"/>
      <point x="615" y="323"/>
      <point x="635" y="389"/>
      <point x="654" y="453" type="curve"/>
      <point x="725" y="576" type="line"/>
    </contour>
  </outline>
</glyph>
<glyph name="dvL_RA" format="1">
  <advance width="716"/>
  <outline>
    <contour>
      <point x="502" y="214" type="line"/>
      <point x="431" y="144"/>
      <point x="377" y="107"/>
      <point x="279" y="53" type="curve"/>
      <point x="267" y="16"/>
      <point x="284" y="-14"/>
      <point x="342" y="-35" type="curve"/>
      <point x="414" y="33"/>
      <point x="455" y="76"/>
      <point x="505" y="134" type="curve"/>
      <point x="514" y="128" type="line"/>
      <point x="473" y="34" type="line"/>
      <point x="516" y="1"/>
      <point x="582" y="-9"/>
      <point x="623" y="11" type="curve"/>
      <point x="665" y="431" type="line"/>
      <point x="754" y="609" type="line"/>
      <point x="732" y="645"/>
      <point x="692" y="660"/>
      <point x="601" y="653" type="curve"/>
      <point x="534" y="357" type="line"/>
      <point x="550" y="339" type="line"/>
      <point x="518" y="285" type="line"/>
    </contour>
    <contour>
      <point x="857" y="569" type="line"/>
      <point x="872" y="579"/>
      <point x="880" y="595"/>
      <point x="884" y="610" type="curve"/>
      <point x="872" y="623" type="line"/>
      <point x="20" y="623" type="line"/>
      <point x="6" y="613"/>
      <point x="-4" y="597"/>
      <point x="-10" y="584" type="curve"/>
      <point x="6" y="569" type="line"/>
    </contour>
    <contour>
      <point x="354" y="298" type="line"/>
      <point x="364" y="314"/>
      <point x="374" y="331"/>
      <point x="382" y="347" type="curve" smooth="yes"/>
      <point x="378" y="398"/>
      <point x="354" y="442"/>
      <point x="308" y="464" type="curve"/>
      <point x="278" y="473"/>
      <point x="228" y="473"/>
      <point x="186" y="467" type="curve"/>
      <point x="101" y="430"/>
      <point x="6" y="333"/>
      <point x="6" y="256" type="curve" smooth="yes"/>
      <point x="6" y="184"/>
      <point x="71" y="74"/>
      <point x="173" y="-2" type="curve"/>
      <point x="241" y="11"/>
      <point x="269" y="60"/>
      <point x="261" y="95" type="curve"/>
      <point x="181" y="148"/>
      <point x="150" y="201"/>
      <point x="139" y="256" type="curve" smooth="yes"/>
      <point x="141" y="311"/>
      <point x="184" y="371"/>
      <point x="227" y="388" type="curve"/>
      <point x="258" y="381"/>
      <point x="275" y="359"/>
      <point x="281" y="335" type="curve" smooth="yes"/>
      <point x="276" y="314"/>
      <point x="262" y="291"/>
      <point x="244" y="269" type="curve"/>
      <point x="245" y="236"/>
      <point x="292" y="198"/>
      <point x="356" y="191" type="curve"/>
      <point x="427" y="247"/>
      <point x="531" y="336"/>
      <point x="590" y="394" type="curve"/>
      <point x="558" y="460" type="line"/>
      <point x="504" y="399"/>
      <point x="431" y="341"/>
      <point x="361" y="292" type="curve"/>
    </contour>
  </outline>
</glyph>
